<svg width="699.375" height="101" viewBox="0 0 699.375 101" xmlns="http://www.w3.org/2000/svg"><g fill="#fff" stroke="#000"><path d="M83.636 23.8h1.17V10.008h5.445V8.95H78.214v1.058h5.422zM99.004 16.983c0-2.768-1.62-4.275-4.073-4.275-1.732 0-3.105.742-4.162 2.25l.787.63c.923-1.193 1.935-1.823 3.308-1.823 1.822 0 2.992 1.103 2.992 3.173v1.237h-3.78c-2.272 0-3.78 1.125-3.78 2.903 0 .922.36 1.665 1.08 2.182.72.518 1.598.765 2.655.765 1.71 0 3.105-.697 3.893-1.935v1.71h1.08zm-1.148 2.767c0 1.867-1.71 3.285-3.712 3.285-1.463 0-2.678-.698-2.678-2.025 0-1.192.945-1.867 2.723-1.867h3.667zM118.489 16.938c0-2.543-1.44-4.23-3.87-4.23-1.733 0-3.038.854-3.758 2.114-.562-1.327-1.732-2.114-3.42-2.114-1.44 0-2.632.584-3.352 1.642v-1.417h-1.08V23.8h1.125v-6.773c0-1.89 1.282-3.262 3.15-3.262 1.8 0 2.902 1.305 2.902 3.262V23.8h1.125v-6.953c0-1.687 1.328-3.082 3.15-3.082 1.8 0 2.88 1.305 2.88 3.262V23.8h1.148v-6.863zM133.406 18.378c0-3.173-2.362-5.67-5.4-5.67-1.867 0-3.555.9-4.387 2.34V6.925h-1.125V23.8h1.08v-2.183c.81 1.463 2.542 2.408 4.432 2.408 3.038 0 5.4-2.52 5.4-5.647zm-1.17-.023c0 2.587-1.845 4.612-4.342 4.612-2.25 0-4.275-1.484-4.275-4.59 0-3.127 2.025-4.612 4.275-4.612 2.497 0 4.342 1.98 4.342 4.59zM146.186 18.625c.068-.247.09-.607.09-1.08 0-2.902-2.182-4.837-4.86-4.837-2.992-.068-5.557 2.587-5.49 5.67-.067 3.082 2.543 5.715 5.625 5.647 1.733 0 3.285-.765 4.365-2.025l-.72-.742c-.967 1.147-2.182 1.71-3.622 1.71-2.453 0-4.343-1.8-4.478-4.343zm-9.045-1.012c.158-1.125.63-2.048 1.418-2.768.787-.742 1.71-1.103 2.812-1.103 2.093 0 3.825 1.508 3.735 3.87zm3.69-6.503h.9l2.543-4.657V6.25h-1.395zM165.109 16.938c0-2.543-1.44-4.23-3.87-4.23-1.733 0-3.038.854-3.758 2.114-.562-1.327-1.732-2.114-3.42-2.114-1.44 0-2.632.584-3.352 1.642v-1.417h-1.08V23.8h1.125v-6.773c0-1.89 1.282-3.262 3.15-3.262 1.8 0 2.902 1.305 2.902 3.262V23.8h1.125v-6.953c0-1.687 1.328-3.082 3.15-3.082 1.8 0 2.88 1.305 2.88 3.262V23.8h1.148v-6.863zM186.326 18.355c0-3.127-2.362-5.647-5.4-5.647-1.89 0-3.622.944-4.432 2.407v-2.183h-1.08V27.85h1.125v-6.143c.832 1.44 2.565 2.318 4.387 2.318 3.038 0 5.4-2.498 5.4-5.67zm-1.17.022c0 2.61-1.845 4.59-4.342 4.59-2.25 0-4.275-1.484-4.275-4.612 0-3.105 2.025-4.59 4.275-4.59 2.497 0 4.342 2.025 4.342 4.612zM188.846 18.355c-.067 3.083 2.543 5.737 5.603 5.67 3.082.068 5.715-2.587 5.647-5.67 0-3.128-2.52-5.648-5.625-5.648-3.082-.067-5.692 2.52-5.625 5.648zm10.08.022c0 2.566-1.98 4.59-4.477 4.59-2.498 0-4.433-2.024-4.433-4.59 0-2.61 1.935-4.612 4.455-4.612 2.475 0 4.455 2.002 4.455 4.612zM212.404 6.925v8.123c-.833-1.44-2.52-2.34-4.388-2.34-3.105 0-5.4 2.497-5.4 5.67 0 3.127 2.363 5.647 5.4 5.647 1.89 0 3.623-.922 4.433-2.43V23.8h1.08V6.925zm0 11.453c0 3.104-2.025 4.59-4.275 4.59-2.498 0-4.343-2.026-4.343-4.613 0-2.61 1.845-4.59 4.343-4.59 2.25 0 4.275 1.485 4.275 4.612zM227.141 18.625c.068-.247.09-.607.09-1.08 0-2.902-2.182-4.837-4.86-4.837-2.992-.068-5.557 2.587-5.49 5.67-.067 3.082 2.543 5.715 5.625 5.647 1.733 0 3.285-.765 4.365-2.025l-.72-.742c-.967 1.147-2.182 1.71-3.622 1.71-2.453 0-4.343-1.8-4.478-4.343zm-9.045-1.012c.158-1.125.63-2.048 1.418-2.768.787-.742 1.71-1.103 2.812-1.103 2.093 0 3.825 1.508 3.735 3.87zM246.064 16.938c0-2.543-1.44-4.23-3.87-4.23-1.733 0-3.038.854-3.758 2.114-.562-1.327-1.732-2.114-3.42-2.114-1.44 0-2.632.584-3.352 1.642v-1.417h-1.08V23.8h1.125v-6.773c0-1.89 1.282-3.262 3.15-3.262 1.8 0 2.902 1.305 2.902 3.262V23.8h1.125v-6.953c0-1.687 1.328-3.082 3.15-3.082 1.8 0 2.88 1.305 2.88 3.262V23.8h1.148v-6.863zM249.236 18.355c-.067 3.083 2.543 5.737 5.603 5.67 3.082.068 5.715-2.587 5.647-5.67 0-3.128-2.52-5.648-5.625-5.648-3.082-.067-5.692 2.52-5.625 5.648zm10.08.022c0 2.566-1.98 4.59-4.477 4.59-2.498 0-4.433-2.024-4.433-4.59 0-2.61 1.935-4.612 4.455-4.612 2.475 0 4.455 2.002 4.455 4.612zM262.781 21.775c.923 1.35 2.363 2.25 4.163 2.25 1.012 0 1.867-.27 2.565-.787.697-.518 1.057-1.26 1.057-2.228 0-1.507-.99-2.317-2.812-3.127l-1.013-.45c-1.462-.63-2.047-1.035-2.047-1.958 0-1.102.945-1.71 2.205-1.71 1.057 0 2.002.472 2.835 1.395l.742-.72c-.81-1.057-2.002-1.732-3.51-1.732-.967 0-1.777.247-2.452.764-.675.518-1.013 1.193-1.013 2.07 0 1.418.968 2.16 2.678 2.903l.99.427c1.53.698 2.115.99 2.227 2.183 0 1.238-1.057 1.912-2.43 1.912-1.372 0-2.407-.674-3.397-1.934l-.788.742zM280.219 19.683c0 2.632 1.867 4.342 4.275 4.342 2.385 0 4.252-1.71 4.252-4.342v-6.75h-1.125v6.795c0 1.98-1.35 3.24-3.127 3.24-1.8 0-3.15-1.26-3.15-3.24v-6.796h-1.125v6.75zM298.219 22.81c-.563.113-1.08.18-1.508.18-1.462 0-2.362-.63-2.362-2.272v-6.75h3.51v-1.035h-3.51V9.85H293.2v3.083h-1.89v1.035h1.89v6.795c0 2.25 1.283 3.262 3.33 3.262.563 0 1.125-.067 1.688-.225v-.99zM300.941 23.8h1.125V12.933h-1.125zm-.427-15.053c0 .54.427.99.99.99.54 0 .99-.45.99-.99s-.45-.99-.99-.99c-.563 0-.99.45-.99.99zM306.251 23.8h1.125V6.925h-1.125zM311.561 23.8h1.125V12.933h-1.125zm-.427-15.053c0 .54.427.99.99.99.54 0 .99-.45.99-.99s-.45-.99-.99-.99c-.563 0-.99.45-.99.99zM317.254 22.765l6.817-9.45v-.382h-8.032v1.035h6.3l-6.818 9.45v.382h8.663v-1.035zM334.714 16.983c0-2.768-1.62-4.275-4.073-4.275-1.732 0-3.105.742-4.162 2.25l.787.63c.923-1.193 1.935-1.823 3.308-1.823 1.822 0 2.992 1.103 2.992 3.173v1.237h-3.78c-2.272 0-3.78 1.125-3.78 2.903 0 .922.36 1.665 1.08 2.182.72.518 1.598.765 2.655.765 1.71 0 3.105-.697 3.893-1.935v1.71h1.08zm-1.148 2.767c0 1.867-1.71 3.285-3.712 3.285-1.463 0-2.678-.698-2.678-2.025 0-1.192.945-1.867 2.723-1.867h3.667zM344.096 12.933c-.112 0-.405-.068-.697-.068-1.508 0-2.813.652-3.6 1.912v-1.844h-1.08V23.8h1.125v-6.39c0-2.183 1.822-3.488 3.69-3.488h.562v-.99zM362.321 18.625c.068-.247.09-.607.09-1.08 0-2.902-2.182-4.837-4.86-4.837-2.992-.068-5.557 2.587-5.49 5.67-.067 3.082 2.543 5.715 5.625 5.647 1.733 0 3.285-.765 4.365-2.025l-.72-.742c-.967 1.147-2.182 1.71-3.622 1.71-2.453 0-4.343-1.8-4.478-4.343zm-9.045-1.012c.158-1.125.63-2.048 1.418-2.768.787-.742 1.71-1.103 2.812-1.103 2.093 0 3.825 1.508 3.735 3.87zM364.706 21.775c.923 1.35 2.363 2.25 4.163 2.25 1.012 0 1.867-.27 2.565-.787.697-.518 1.057-1.26 1.057-2.228 0-1.507-.99-2.317-2.812-3.127l-1.013-.45c-1.462-.63-2.047-1.035-2.047-1.958 0-1.102.945-1.71 2.205-1.71 1.057 0 2.002.472 2.835 1.395l.742-.72c-.81-1.057-2.002-1.732-3.51-1.732-.967 0-1.777.247-2.452.764-.675.518-1.013 1.193-1.013 2.07 0 1.418.968 2.16 2.678 2.903l.99.427c1.53.698 2.115.99 2.227 2.183 0 1.238-1.057 1.912-2.43 1.912-1.372 0-2.407-.674-3.397-1.934l-.788.742zM374.944 21.775c.922 1.35 2.362 2.25 4.162 2.25 1.013 0 1.868-.27 2.565-.787.698-.518 1.058-1.26 1.058-2.228 0-1.507-.99-2.317-2.813-3.127l-1.012-.45c-1.463-.63-2.048-1.035-2.048-1.958 0-1.102.945-1.71 2.205-1.71 1.058 0 2.003.472 2.835 1.395l.743-.72c-.81-1.057-2.003-1.732-3.51-1.732-.968 0-1.778.247-2.453.764-.675.518-1.012 1.193-1.012 2.07 0 1.418.967 2.16 2.677 2.903l.99.427c1.53.698 2.115.99 2.228 2.183 0 1.238-1.058 1.912-2.43 1.912-1.373 0-2.408-.674-3.398-1.934l-.787.742zM393.956 16.983c0-2.768-1.62-4.275-4.072-4.275-1.733 0-3.105.742-4.163 2.25l.788.63c.922-1.193 1.935-1.823 3.307-1.823 1.823 0 2.993 1.103 2.993 3.173v1.237h-3.78c-2.273 0-3.78 1.125-3.78 2.903 0 .922.36 1.665 1.08 2.182.72.518 1.597.765 2.655.765 1.71 0 3.105-.697 3.892-1.935v1.71h1.08zm-1.147 2.767c0 1.867-1.71 3.285-3.713 3.285-1.462 0-2.677-.698-2.677-2.025 0-1.192.945-1.867 2.722-1.867h3.668zM409.706 22.81c-.562.113-1.08.18-1.507.18-1.463 0-2.363-.63-2.363-2.272v-6.75h3.51v-1.035h-3.51V9.85h-1.147v3.083h-1.89v1.035h1.89v6.795c0 2.25 1.282 3.262 3.33 3.262.562 0 1.125-.067 1.687-.225v-.99zM421.631 18.625c.068-.247.09-.607.09-1.08 0-2.902-2.182-4.837-4.86-4.837-2.992-.068-5.557 2.587-5.49 5.67-.067 3.082 2.543 5.715 5.625 5.647 1.733 0 3.285-.765 4.365-2.025l-.72-.742c-.967 1.147-2.182 1.71-3.622 1.71-2.453 0-4.343-1.8-4.478-4.343zm-9.045-1.012c.158-1.125.63-2.048 1.418-2.768.787-.742 1.71-1.103 2.812-1.103 2.093 0 3.825 1.508 3.735 3.87zM424.241 18.355c-.067 3.083 2.543 5.737 5.603 5.67a5.414 5.414 0 004.41-2.228l-.81-.652c-.945 1.215-2.138 1.823-3.6 1.823-2.498 0-4.433-2.025-4.433-4.613 0-2.542 1.935-4.59 4.455-4.59 1.463 0 2.655.607 3.578 1.823l.81-.653c-1.013-1.373-2.565-2.228-4.388-2.228-3.082-.067-5.692 2.565-5.625 5.648zM446.021 16.938c0-2.52-1.485-4.23-3.982-4.23-1.508 0-2.723.607-3.465 1.687v-1.462h-1.08V23.8h1.125v-6.795c0-.923.292-1.71.9-2.318.607-.607 1.395-.922 2.34-.922 1.867 0 3.037 1.327 3.037 3.24V23.8h1.125v-6.863zM449.216 18.355c-.067 3.083 2.543 5.737 5.603 5.67 3.082.068 5.715-2.587 5.647-5.67 0-3.128-2.52-5.648-5.625-5.648-3.082-.067-5.692 2.52-5.625 5.648zm10.08.022c0 2.566-1.98 4.59-4.477 4.59-2.498 0-4.433-2.024-4.433-4.59 0-2.61 1.935-4.612 4.455-4.612 2.475 0 4.455 2.002 4.455 4.612zM463.819 23.8h1.125V6.925h-1.125zM468.296 18.355c-.067 3.083 2.543 5.737 5.603 5.67 3.082.068 5.715-2.587 5.647-5.67 0-3.128-2.52-5.648-5.625-5.648-3.082-.067-5.692 2.52-5.625 5.648zm10.08.022c0 2.566-1.98 4.59-4.477 4.59-2.498 0-4.433-2.024-4.433-4.59 0-2.61 1.935-4.612 4.455-4.612 2.475 0 4.455 2.002 4.455 4.612zM492.034 12.933v2.16c-.81-1.463-2.565-2.385-4.455-2.385-3.038 0-5.378 2.43-5.378 5.512 0 3.083 2.34 5.535 5.378 5.535 1.867 0 3.577-.9 4.41-2.317v1.44c0 2.632-1.643 4.14-4.095 4.14-1.688 0-3.173-.72-4.275-1.823l-.698.765c1.148 1.26 2.948 2.115 4.995 2.115 3.06 0 5.198-1.98 5.198-5.242v-9.9zm-.045 5.287c0 2.992-2.025 4.478-4.253 4.478-2.52 0-4.365-1.958-4.365-4.456 0-2.497 1.845-4.455 4.365-4.455 2.183 0 4.253 1.44 4.253 4.433zM497.299 23.8h1.125V12.933h-1.125zm-.428-15.053c0 .54.428.99.99.99.54 0 .99-.45.99-.99s-.45-.99-.99-.99c-.562 0-.99.45-.99.99zM510.326 16.983c0-2.768-1.62-4.275-4.072-4.275-1.733 0-3.105.742-4.163 2.25l.788.63c.922-1.193 1.935-1.823 3.307-1.823 1.823 0 2.993 1.103 2.993 3.173v1.237h-3.78c-2.273 0-3.78 1.125-3.78 2.903 0 .922.36 1.665 1.08 2.182.72.518 1.597.765 2.655.765 1.71 0 3.105-.697 3.892-1.935v1.71h1.08zm-1.147 2.767c0 1.867-1.71 3.285-3.713 3.285-1.462 0-2.677-.698-2.677-2.025 0-1.192.945-1.867 2.722-1.867h3.668zM531.544 18.355c0-3.127-2.363-5.647-5.4-5.647-1.89 0-3.623.944-4.433 2.407v-2.183h-1.08V27.85h1.125v-6.143c.833 1.44 2.565 2.318 4.388 2.318 3.037 0 5.4-2.498 5.4-5.67zm-1.17.022c0 2.61-1.845 4.59-4.343 4.59-2.25 0-4.275-1.484-4.275-4.612 0-3.105 2.025-4.59 4.275-4.59 2.498 0 4.343 2.025 4.343 4.612zM542.614 16.983c0-2.768-1.62-4.275-4.073-4.275-1.732 0-3.105.742-4.162 2.25l.787.63c.923-1.193 1.935-1.823 3.308-1.823 1.822 0 2.992 1.103 2.992 3.173v1.237h-3.78c-2.272 0-3.78 1.125-3.78 2.903 0 .922.36 1.665 1.08 2.182.72.518 1.598.765 2.655.765 1.71 0 3.105-.697 3.893-1.935v1.71h1.08zm-1.148 2.767c0 1.867-1.71 3.285-3.712 3.285-1.463 0-2.678-.698-2.678-2.025 0-1.192.945-1.867 2.723-1.867h3.667zM551.996 12.933c-.112 0-.405-.068-.697-.068-1.508 0-2.813.652-3.6 1.912v-1.844h-1.08V23.8h1.125v-6.39c0-2.183 1.822-3.488 3.69-3.488h.562v-.99zM561.986 16.983c0-2.768-1.62-4.275-4.072-4.275-1.733 0-3.105.742-4.163 2.25l.788.63c.922-1.193 1.935-1.823 3.307-1.823 1.823 0 2.993 1.103 2.993 3.173v1.237h-3.78c-2.273 0-3.78 1.125-3.78 2.903 0 .922.36 1.665 1.08 2.182.72.518 1.597.765 2.655.765 1.71 0 3.105-.697 3.892-1.935v1.71h1.08zm-1.147 2.767c0 1.867-1.71 3.285-3.713 3.285-1.462 0-2.677-.698-2.677-2.025 0-1.192.945-1.867 2.722-1.867h3.668zM571.459 18.355c-.068 3.083 2.542 5.737 5.602 5.67a5.414 5.414 0 004.41-2.228l-.81-.652c-.945 1.215-2.137 1.823-3.6 1.823-2.497 0-4.432-2.025-4.432-4.613 0-2.542 1.935-4.59 4.455-4.59 1.462 0 2.655.607 3.577 1.823l.81-.653c-1.012-1.373-2.565-2.228-4.387-2.228-3.083-.067-5.693 2.565-5.625 5.648zM590.089 12.933c-.113 0-.405-.068-.698-.068-1.507 0-2.812.652-3.6 1.912v-1.844h-1.08V23.8h1.125v-6.39c0-2.183 1.823-3.488 3.69-3.488h.563v-.99zM592.586 23.8h1.125V12.933h-1.125zm-.427-15.053c0 .54.427.99.99.99.54 0 .99-.45.99-.99s-.45-.99-.99-.99c-.563 0-.99.45-.99.99zM605.614 16.983c0-2.768-1.62-4.275-4.073-4.275-1.732 0-3.105.742-4.162 2.25l.787.63c.923-1.193 1.935-1.823 3.308-1.823 1.822 0 2.992 1.103 2.992 3.173v1.237h-3.78c-2.272 0-3.78 1.125-3.78 2.903 0 .922.36 1.665 1.08 2.182.72.518 1.598.765 2.655.765 1.71 0 3.105-.697 3.893-1.935v1.71h1.08zm-1.148 2.767c0 1.867-1.71 3.285-3.712 3.285-1.463 0-2.678-.698-2.678-2.025 0-1.192.945-1.867 2.723-1.867h3.667zM614.996 12.933c-.112 0-.405-.068-.697-.068-1.508 0-2.813.652-3.6 1.912v-1.844h-1.08V23.8h1.125v-6.39c0-2.183 1.822-3.488 3.69-3.488h.562v-.99z" stroke-width=".0225"/></g><g fill="#fff" stroke="#000"><path d="M122.201 57.55h1.125V40.675h-1.125zM127.511 57.55h1.125V46.683h-1.125zm-.427-15.053c0 .54.427.99.99.99.54 0 .99-.45.99-.99s-.45-.99-.99-.99c-.563 0-.99.45-.99.99zM131.764 55.525c.922 1.35 2.362 2.25 4.162 2.25 1.013 0 1.868-.27 2.565-.787.698-.518 1.058-1.26 1.058-2.228 0-1.507-.99-2.317-2.813-3.127l-1.012-.45c-1.463-.63-2.048-1.036-2.048-1.958 0-1.103.945-1.71 2.205-1.71 1.058 0 2.003.472 2.835 1.395l.743-.72c-.81-1.057-2.003-1.732-3.51-1.732-.968 0-1.778.247-2.453.764-.675.518-1.012 1.193-1.012 2.07 0 1.418.967 2.16 2.677 2.903l.99.427c1.53.698 2.115.99 2.228 2.183 0 1.237-1.058 1.912-2.43 1.912-1.373 0-2.408-.675-3.398-1.935l-.787.743zM148.504 56.56c-.563.112-1.08.18-1.508.18-1.462 0-2.362-.63-2.362-2.273v-6.75h3.51v-1.035h-3.51V43.6h-1.148v3.082h-1.89v1.035h1.89v6.795c0 2.25 1.283 3.263 3.33 3.263.563 0 1.125-.068 1.688-.225v-.99zM158.944 50.732c0-2.767-1.62-4.275-4.073-4.275-1.732 0-3.105.743-4.162 2.25l.787.63c.923-1.192 1.935-1.822 3.308-1.822 1.822 0 2.992 1.103 2.992 3.172v1.238h-3.78c-2.272 0-3.78 1.125-3.78 2.902 0 .923.36 1.666 1.08 2.183.72.517 1.598.765 2.655.765 1.71 0 3.105-.698 3.893-1.935v1.71h1.08zm-1.148 2.768c0 1.867-1.71 3.285-3.712 3.285-1.463 0-2.678-.698-2.678-2.025 0-1.193.945-1.868 2.723-1.868h3.667zM161.891 55.525c.923 1.35 2.363 2.25 4.163 2.25 1.012 0 1.867-.27 2.565-.787.697-.518 1.057-1.26 1.057-2.228 0-1.507-.99-2.317-2.812-3.127l-1.013-.45c-1.462-.63-2.047-1.036-2.047-1.958 0-1.103.945-1.71 2.205-1.71 1.057 0 2.002.472 2.835 1.395l.742-.72c-.81-1.057-2.002-1.732-3.51-1.732-.967 0-1.777.247-2.452.764-.675.518-1.013 1.193-1.013 2.07 0 1.418.968 2.16 2.678 2.903l.99.427c1.53.698 2.115.99 2.227 2.183 0 1.237-1.057 1.912-2.43 1.912-1.372 0-2.407-.675-3.397-1.935l-.788.743zM188.441 40.675v8.123c-.832-1.44-2.52-2.34-4.387-2.34-3.105 0-5.4 2.497-5.4 5.67 0 3.127 2.362 5.647 5.4 5.647 1.89 0 3.622-.922 4.432-2.43v2.205h1.08V40.675zm0 11.452c0 3.105-2.025 4.59-4.275 4.59-2.497 0-4.342-2.024-4.342-4.612 0-2.61 1.845-4.59 4.342-4.59 2.25 0 4.275 1.485 4.275 4.612zM203.179 52.375c.067-.247.09-.607.09-1.08 0-2.902-2.183-4.837-4.86-4.837-2.993-.068-5.558 2.587-5.49 5.67-.068 3.082 2.542 5.715 5.625 5.647 1.732 0 3.285-.765 4.365-2.025l-.72-.742c-.968 1.147-2.183 1.71-3.623 1.71-2.452 0-4.342-1.8-4.477-4.343zm-9.045-1.012c.157-1.126.63-2.048 1.417-2.768.788-.742 1.71-1.103 2.813-1.103 2.092 0 3.825 1.508 3.735 3.87zM222.349 52.375c.067-.247.09-.607.09-1.08 0-2.902-2.183-4.837-4.86-4.837-2.993-.068-5.558 2.587-5.49 5.67-.068 3.082 2.542 5.715 5.625 5.647 1.732 0 3.285-.765 4.365-2.025l-.72-.742c-.968 1.147-2.183 1.71-3.623 1.71-2.452 0-4.342-1.8-4.477-4.343zm-9.045-1.012c.157-1.126.63-2.048 1.417-2.768.788-.742 1.71-1.103 2.813-1.103 2.092 0 3.825 1.508 3.735 3.87zM233.689 57.55l-4.163-5.67 3.825-5.198h-1.35l-3.15 4.365-3.105-4.364h-1.35l3.78 5.152-4.117 5.715h1.35l3.465-4.86 3.465 4.86zM236.366 57.55h1.125V46.683h-1.125zm-.427-15.053c0 .54.427.99.99.99.54 0 .99-.45.99-.99s-.45-.99-.99-.99c-.563 0-.99.45-.99.99zM252.589 52.127c0-3.172-2.363-5.67-5.4-5.67-1.868 0-3.555.9-4.388 2.34v-8.122h-1.125V57.55h1.08v-2.183c.81 1.463 2.543 2.408 4.433 2.408 3.037 0 5.4-2.52 5.4-5.647zm-1.17-.022c0 2.587-1.845 4.612-4.343 4.612-2.25 0-4.275-1.485-4.275-4.59 0-3.127 2.025-4.612 4.275-4.612 2.498 0 4.343 1.98 4.343 4.59zM255.941 57.55h1.125V46.683h-1.125zm-.427-15.053c0 .54.427.99.99.99.54 0 .99-.45.99-.99s-.45-.99-.99-.99c-.563 0-.99.45-.99.99zM260.419 52.105c-.068 3.083 2.542 5.737 5.602 5.67a5.414 5.414 0 004.41-2.228l-.81-.652c-.945 1.215-2.137 1.822-3.6 1.822-2.497 0-4.432-2.025-4.432-4.612 0-2.542 1.935-4.59 4.455-4.59 1.462 0 2.655.607 3.577 1.823l.81-.653c-1.012-1.373-2.565-2.228-4.387-2.228-3.083-.067-5.693 2.565-5.625 5.648zm2.925 9.495a5.215 5.215 0 001.507.225c1.643 0 2.7-1.058 2.7-2.43 0-1.013-.63-1.823-1.597-2.273l-.428.338c.608.517.968 1.057.968 1.8 0 1.08-.743 1.62-1.8 1.62-.428 0-.878-.045-1.35-.158zM281.389 50.732c0-2.767-1.62-4.275-4.073-4.275-1.732 0-3.105.743-4.162 2.25l.787.63c.923-1.192 1.935-1.822 3.308-1.822 1.822 0 2.992 1.103 2.992 3.172v1.238h-3.78c-2.272 0-3.78 1.125-3.78 2.902 0 .923.36 1.666 1.08 2.183.72.517 1.598.765 2.655.765 1.71 0 3.105-.698 3.893-1.935v1.71h1.08zM280.24 53.5c0 1.867-1.71 3.285-3.712 3.285-1.463 0-2.678-.698-2.678-2.025 0-1.193.945-1.868 2.723-1.868h3.667zm-2.857-10.193c.45.45.945.675 1.462.675 1.058 0 1.62-.922 1.62-2.025 0-.225 0-.382-.022-.495h-.99v.428c0 .607-.248 1.035-.72 1.035-.338 0-.585-.158-.968-.54l-.562-.563c-.45-.45-.923-.675-1.44-.675-1.058 0-1.62.878-1.62 2.025 0 .203 0 .383.022.495h.99v-.45c0-.607.225-1.012.698-1.012.36 0 .585.157.967.54zM284.561 52.105c-.067 3.083 2.543 5.737 5.603 5.67 3.082.068 5.715-2.587 5.647-5.67 0-3.127-2.52-5.647-5.625-5.647-3.082-.068-5.692 2.52-5.625 5.647zm10.08.022c0 2.565-1.98 4.59-4.477 4.59-2.498 0-4.433-2.024-4.433-4.59 0-2.61 1.935-4.612 4.455-4.612 2.475 0 4.455 2.002 4.455 4.612zM305.464 57.55h1.125V46.683h-1.125zm-.428-15.053c0 .54.428.99.99.99.54 0 .99-.45.99-.99s-.45-.99-.99-.99c-.562 0-.99.45-.99.99zM319.301 50.688c0-2.52-1.485-4.23-3.982-4.23-1.508 0-2.723.607-3.465 1.687v-1.462h-1.08V57.55h1.125v-6.795c0-.922.292-1.71.9-2.317.607-.608 1.395-.923 2.34-.923 1.867 0 3.037 1.327 3.037 3.24v6.795h1.125v-6.862zM328.774 56.56c-.563.112-1.08.18-1.508.18-1.462 0-2.362-.63-2.362-2.273v-6.75h3.51v-1.035h-3.51V43.6h-1.148v3.082h-1.89v1.035h1.89v6.795c0 2.25 1.283 3.263 3.33 3.263.563 0 1.125-.068 1.688-.225v-.99zM340.699 52.375c.067-.247.09-.607.09-1.08 0-2.902-2.183-4.837-4.86-4.837-2.993-.068-5.558 2.587-5.49 5.67-.068 3.082 2.542 5.715 5.625 5.647 1.732 0 3.285-.765 4.365-2.025l-.72-.742c-.968 1.147-2.183 1.71-3.623 1.71-2.452 0-4.342-1.8-4.477-4.343zm-9.045-1.012c.157-1.126.63-2.048 1.417-2.768.788-.742 1.71-1.103 2.813-1.103 2.092 0 3.825 1.508 3.735 3.87zM349.519 46.682c-.113 0-.405-.067-.698-.067-1.507 0-2.812.652-3.6 1.912v-1.845h-1.08V57.55h1.125v-6.39c0-2.183 1.823-3.487 3.69-3.487h.563v-.99zM359.509 50.732c0-2.767-1.62-4.275-4.073-4.275-1.732 0-3.105.743-4.162 2.25l.787.63c.923-1.192 1.935-1.822 3.308-1.822 1.822 0 2.992 1.103 2.992 3.172v1.238h-3.78c-2.272 0-3.78 1.125-3.78 2.902 0 .923.36 1.666 1.08 2.183.72.517 1.598.765 2.655.765 1.71 0 3.105-.698 3.893-1.935v1.71h1.08zM358.36 53.5c0 1.867-1.71 3.285-3.712 3.285-1.463 0-2.678-.698-2.678-2.025 0-1.193.945-1.868 2.723-1.868h3.667zM368.959 56.56c-.563.112-1.08.18-1.508.18-1.462 0-2.362-.63-2.362-2.273v-6.75h3.51v-1.035h-3.51V43.6h-1.148v3.082h-1.89v1.035h1.89v6.795c0 2.25 1.283 3.263 3.33 3.263.563 0 1.125-.068 1.688-.225v-.99zM371.681 57.55h1.125V46.683h-1.125zm-.427-15.053c0 .54.427.99.99.99.54 0 .99-.45.99-.99s-.45-.99-.99-.99c-.563 0-.99.45-.99.99zM384.821 46.682l-3.982 9.158-4.005-9.158h-1.215l4.995 11.093h.472l4.95-11.092zM396.116 50.732c0-2.767-1.62-4.275-4.072-4.275-1.733 0-3.105.743-4.163 2.25l.788.63c.922-1.192 1.935-1.822 3.307-1.822 1.823 0 2.993 1.103 2.993 3.172v1.238h-3.78c-2.273 0-3.78 1.125-3.78 2.902 0 .923.36 1.666 1.08 2.183.72.517 1.597.765 2.655.765 1.71 0 3.105-.698 3.892-1.935v1.71h1.08zM394.97 53.5c0 1.867-1.71 3.285-3.713 3.285-1.462 0-2.677-.698-2.677-2.025 0-1.193.945-1.868 2.722-1.868h3.668zM399.064 55.525c.922 1.35 2.362 2.25 4.162 2.25 1.013 0 1.868-.27 2.565-.787.698-.518 1.058-1.26 1.058-2.228 0-1.507-.99-2.317-2.813-3.127l-1.012-.45c-1.463-.63-2.048-1.036-2.048-1.958 0-1.103.945-1.71 2.205-1.71 1.058 0 2.003.472 2.835 1.395l.743-.72c-.81-1.057-2.003-1.732-3.51-1.732-.968 0-1.778.247-2.453.764-.675.518-1.012 1.193-1.012 2.07 0 1.418.967 2.16 2.677 2.903l.99.427c1.53.698 2.115.99 2.228 2.183 0 1.237-1.058 1.912-2.43 1.912-1.373 0-2.408-.675-3.398-1.935l-.787.743zM410.516 61.6h.968l.81-5.738h-1.395zM422.959 57.55h1.125V40.675h-1.125zM437.696 52.375c.068-.247.09-.607.09-1.08 0-2.902-2.182-4.837-4.86-4.837-2.992-.068-5.557 2.587-5.49 5.67-.067 3.082 2.543 5.715 5.625 5.647 1.733 0 3.285-.765 4.365-2.025l-.72-.742c-.967 1.147-2.182 1.71-3.622 1.71-2.453 0-4.343-1.8-4.478-4.343zm-9.045-1.012c.158-1.126.63-2.048 1.418-2.768.787-.742 1.71-1.103 2.812-1.103 2.093 0 3.825 1.508 3.735 3.87zM448.519 46.682l-3.983 9.158-4.005-9.158h-1.215l4.995 11.093h.473l4.95-11.092zM459.814 50.732c0-2.767-1.62-4.275-4.073-4.275-1.732 0-3.105.743-4.162 2.25l.787.63c.923-1.192 1.935-1.822 3.308-1.822 1.822 0 2.992 1.103 2.992 3.172v1.238h-3.78c-2.272 0-3.78 1.125-3.78 2.902 0 .923.36 1.666 1.08 2.183.72.517 1.598.765 2.655.765 1.71 0 3.105-.698 3.893-1.935v1.71h1.08zm-1.148 2.768c0 1.867-1.71 3.285-3.712 3.285-1.463 0-2.678-.698-2.678-2.025 0-1.193.945-1.868 2.723-1.868h3.667zM472.346 50.688c0-2.52-1.485-4.23-3.982-4.23-1.508 0-2.723.607-3.465 1.687v-1.462h-1.08V57.55h1.125v-6.795c0-.922.292-1.71.9-2.317.607-.608 1.395-.923 2.34-.923 1.867 0 3.037 1.327 3.037 3.24v6.795h1.125v-6.862zM485.329 40.675v8.123c-.833-1.44-2.52-2.34-4.388-2.34-3.105 0-5.4 2.497-5.4 5.67 0 3.127 2.363 5.647 5.4 5.647 1.89 0 3.623-.922 4.433-2.43v2.205h1.08V40.675zm0 11.452c0 3.105-2.025 4.59-4.275 4.59-2.498 0-4.343-2.024-4.343-4.612 0-2.61 1.845-4.59 4.343-4.59 2.25 0 4.275 1.485 4.275 4.612zM489.806 52.105c-.067 3.083 2.543 5.737 5.603 5.67 3.082.068 5.715-2.587 5.647-5.67 0-3.127-2.52-5.647-5.625-5.647-3.082-.068-5.692 2.52-5.625 5.647zm10.08.022c0 2.565-1.98 4.59-4.477 4.59-2.498 0-4.433-2.024-4.433-4.59 0-2.61 1.935-4.612 4.455-4.612 2.475 0 4.455 2.002 4.455 4.612zM510.551 53.432c0 2.633 1.868 4.343 4.275 4.343 2.385 0 4.253-1.71 4.253-4.343v-6.75h-1.125v6.795c0 1.98-1.35 3.24-3.128 3.24-1.8 0-3.15-1.26-3.15-3.24v-6.794h-1.125v6.75zM538.586 50.688c0-2.543-1.44-4.23-3.87-4.23-1.732 0-3.037.855-3.757 2.115-.563-1.328-1.733-2.115-3.42-2.115-1.44 0-2.633.585-3.353 1.642v-1.417h-1.08V57.55h1.125v-6.772c0-1.89 1.283-3.263 3.15-3.263 1.8 0 2.903 1.305 2.903 3.262v6.773h1.125v-6.952c0-1.688 1.327-3.083 3.15-3.083 1.8 0 2.88 1.305 2.88 3.262v6.773h1.147v-6.862zM548.059 52.105c-.068 3.083 2.542 5.737 5.602 5.67 3.083.068 5.715-2.587 5.648-5.67 0-3.127-2.52-5.647-5.625-5.647-3.083-.068-5.693 2.52-5.625 5.647zm10.08.022c0 2.565-1.98 4.59-4.478 4.59-2.497 0-4.432-2.024-4.432-4.59 0-2.61 1.935-4.612 4.455-4.612 2.475 0 4.455 2.002 4.455 4.612zM562.504 53.432c0 2.633 1.867 4.343 4.275 4.343 2.385 0 4.252-1.71 4.252-4.343v-6.75h-1.125v6.795c0 1.98-1.35 3.24-3.127 3.24-1.8 0-3.15-1.26-3.15-3.24v-6.794h-1.125v6.75z" stroke-width=".0225"/></g><g fill="#fff" stroke="#000"><path d="M186.652 84.438c0-2.543-1.44-4.23-3.87-4.23-1.732 0-3.037.854-3.757 2.114-.563-1.327-1.733-2.115-3.42-2.115-1.44 0-2.632.586-3.353 1.643v-1.417h-1.08V91.3h1.125v-6.773c0-1.89 1.283-3.262 3.15-3.262 1.8 0 2.903 1.305 2.903 3.262V91.3h1.125v-6.953c0-1.687 1.327-3.082 3.15-3.082 1.8 0 2.88 1.305 2.88 3.262V91.3h1.147v-6.863zM198.375 84.483c0-2.768-1.62-4.276-4.072-4.276-1.733 0-3.105.743-4.163 2.25l.788.63c.922-1.192 1.935-1.822 3.307-1.822 1.823 0 2.992 1.102 2.992 3.172v1.238h-3.78c-2.272 0-3.78 1.125-3.78 2.902 0 .923.36 1.665 1.08 2.183.72.517 1.598.765 2.656.765 1.71 0 3.105-.698 3.892-1.935v1.71h1.08zm-1.147 2.767c0 1.867-1.71 3.285-3.713 3.285-1.462 0-2.677-.698-2.677-2.025 0-1.193.944-1.868 2.722-1.868h3.667zM202.38 91.3h1.125V80.433h-1.125zm-.427-15.053c0 .54.427.99.99.99.54 0 .99-.45.99-.99s-.45-.99-.99-.99c-.563 0-.99.45-.99.99zM206.632 89.275c.923 1.35 2.363 2.25 4.163 2.25 1.012 0 1.867-.27 2.565-.788.697-.517 1.057-1.26 1.057-2.227 0-1.508-.99-2.318-2.812-3.128l-1.012-.45c-1.463-.63-2.048-1.035-2.048-1.957 0-1.103.945-1.71 2.205-1.71 1.057 0 2.002.472 2.835 1.395l.742-.72c-.81-1.057-2.002-1.732-3.51-1.732-.967 0-1.777.247-2.452.764-.675.518-1.012 1.193-1.012 2.07 0 1.418.967 2.16 2.677 2.903l.99.427c1.53.698 2.115.99 2.228 2.183 0 1.237-1.058 1.912-2.43 1.912-1.373 0-2.408-.675-3.398-1.935l-.787.743zM231.382 80.433L227.4 89.59l-4.005-9.157h-1.215l4.995 11.092h.472l4.95-11.092zM235.41 91.3h1.125V80.433h-1.125zm.09-12.69h.9l1.867-4.657v-.203h-1.394zM249.675 74.425v8.123c-.833-1.44-2.52-2.34-4.388-2.34-3.104 0-5.4 2.497-5.4 5.67 0 3.127 2.363 5.647 5.4 5.647 1.89 0 3.623-.923 4.433-2.43V91.3h1.08V74.425zm0 11.452c0 3.106-2.025 4.59-4.275 4.59-2.498 0-4.343-2.024-4.343-4.612 0-2.61 1.846-4.59 4.343-4.59 2.25 0 4.275 1.485 4.275 4.612zM264.412 86.125c.068-.247.09-.607.09-1.08 0-2.902-2.182-4.837-4.86-4.837-2.992-.068-5.557 2.587-5.49 5.67-.067 3.082 2.543 5.714 5.625 5.647 1.733 0 3.285-.765 4.365-2.025l-.72-.743c-.967 1.148-2.182 1.71-3.622 1.71-2.453 0-4.343-1.8-4.478-4.342zm-9.045-1.012c.158-1.126.63-2.048 1.418-2.768.787-.742 1.71-1.103 2.812-1.103 2.093 0 3.825 1.508 3.735 3.87zM267.022 85.855c-.067 3.083 2.543 5.737 5.603 5.67 3.083.068 5.715-2.587 5.647-5.67 0-3.127-2.52-5.647-5.625-5.647-3.082-.068-5.692 2.52-5.625 5.647zm10.08.022c0 2.566-1.98 4.59-4.477 4.59-2.498 0-4.433-2.024-4.433-4.59 0-2.61 1.935-4.612 4.455-4.612 2.475 0 4.455 2.002 4.455 4.612zM280.567 89.275c.923 1.35 2.363 2.25 4.163 2.25 1.012 0 1.867-.27 2.565-.788.698-.517 1.057-1.26 1.057-2.227 0-1.508-.99-2.318-2.812-3.128l-1.012-.45c-1.463-.63-2.048-1.035-2.048-1.957 0-1.103.945-1.71 2.205-1.71 1.057 0 2.002.472 2.835 1.395l.742-.72c-.81-1.057-2.002-1.732-3.51-1.732-.967 0-1.777.247-2.452.764-.675.518-1.012 1.193-1.012 2.07 0 1.418.967 2.16 2.677 2.903l.99.427c1.53.698 2.115.99 2.228 2.183 0 1.237-1.058 1.912-2.43 1.912-1.373 0-2.408-.675-3.398-1.935l-.787.743zM305.88 84.483c0-2.768-1.62-4.276-4.072-4.276-1.733 0-3.105.743-4.163 2.25l.787.63c.923-1.192 1.935-1.822 3.308-1.822 1.823 0 2.992 1.102 2.992 3.172v1.238h-3.78c-2.272 0-3.78 1.125-3.78 2.902 0 .923.36 1.665 1.08 2.183.72.517 1.598.765 2.656.765 1.71 0 3.105-.698 3.892-1.935v1.71h1.08zm-1.147 2.767c0 1.867-1.71 3.285-3.713 3.285-1.462 0-2.677-.698-2.677-2.025 0-1.193.945-1.868 2.722-1.868h3.668zM315.33 90.31c-.562.112-1.08.18-1.507.18-1.463 0-2.363-.63-2.363-2.272v-6.75h3.51v-1.035h-3.51V77.35h-1.147v3.083h-1.89v1.035h1.89v6.795c0 2.25 1.282 3.262 3.33 3.262.562 0 1.125-.067 1.687-.225v-.99zM327.255 86.125c.068-.247.09-.607.09-1.08 0-2.902-2.183-4.837-4.86-4.837-2.993-.068-5.558 2.587-5.49 5.67-.068 3.082 2.542 5.714 5.625 5.647 1.732 0 3.285-.765 4.365-2.025l-.72-.743c-.968 1.148-2.183 1.71-3.623 1.71-2.452 0-4.342-1.8-4.477-4.342zm-9.045-1.012c.158-1.126.63-2.048 1.417-2.768.788-.742 1.71-1.103 2.813-1.103 2.092 0 3.825 1.508 3.735 3.87zm3.69-6.503h.9l2.542-4.657v-.203h-1.395zM336.165 85.855c-.068 3.083 2.542 5.737 5.603 5.67 3.082.068 5.715-2.587 5.647-5.67 0-3.127-2.52-5.647-5.625-5.647-3.083-.068-5.692 2.52-5.625 5.647zm10.08.022c0 2.566-1.98 4.59-4.478 4.59-2.497 0-4.432-2.024-4.432-4.59 0-2.61 1.935-4.612 4.455-4.612 2.475 0 4.455 2.002 4.455 4.612zM356.01 89.275c.923 1.35 2.363 2.25 4.163 2.25 1.012 0 1.867-.27 2.565-.788.697-.517 1.057-1.26 1.057-2.227 0-1.508-.99-2.318-2.812-3.128l-1.013-.45c-1.462-.63-2.047-1.035-2.047-1.957 0-1.103.945-1.71 2.205-1.71 1.057 0 2.002.472 2.835 1.395l.742-.72c-.81-1.057-2.002-1.732-3.51-1.732-.967 0-1.777.247-2.452.764-.675.518-1.013 1.193-1.013 2.07 0 1.418.968 2.16 2.678 2.903l.99.427c1.53.698 2.115.99 2.227 2.183 0 1.237-1.057 1.912-2.43 1.912-1.372 0-2.407-.675-3.397-1.935l-.788.743zM376.733 86.125c.067-.247.09-.607.09-1.08 0-2.902-2.183-4.837-4.86-4.837-2.993-.068-5.558 2.587-5.49 5.67-.068 3.082 2.542 5.714 5.624 5.647 1.733 0 3.285-.765 4.365-2.025l-.72-.743c-.967 1.148-2.182 1.71-3.622 1.71-2.453 0-4.343-1.8-4.478-4.342zm-9.045-1.012c.157-1.126.63-2.048 1.417-2.768.787-.742 1.71-1.103 2.813-1.103 2.092 0 3.825 1.508 3.735 3.87zM380.018 87.183c0 2.632 1.867 4.342 4.275 4.342 2.385 0 4.252-1.71 4.252-4.343v-6.75h-1.125v6.796c0 1.98-1.35 3.24-3.127 3.24-1.8 0-3.15-1.26-3.15-3.24v-6.795h-1.125v6.75zM409.785 85.855c0-3.127-2.362-5.647-5.4-5.647-1.89 0-3.622.945-4.432 2.407v-2.182h-1.08V95.35h1.125v-6.142c.832 1.44 2.565 2.317 4.387 2.317 3.038 0 5.4-2.498 5.4-5.67zm-1.17.022c0 2.61-1.845 4.59-4.343 4.59-2.25 0-4.274-1.484-4.274-4.612 0-3.105 2.025-4.59 4.275-4.59 2.497 0 4.342 2.025 4.342 4.612zM412.98 87.183c0 2.632 1.867 4.342 4.275 4.342 2.385 0 4.252-1.71 4.252-4.343v-6.75h-1.125v6.796c0 1.98-1.35 3.24-3.127 3.24-1.8 0-3.15-1.26-3.15-3.24v-6.795h-1.125zm3.825-8.573h.9l2.542-4.657v-.203h-1.395zM436.447 85.877c0-3.172-2.362-5.67-5.4-5.67-1.867 0-3.555.9-4.387 2.34v-8.122h-1.125V91.3h1.08v-2.183c.81 1.463 2.542 2.408 4.433 2.408 3.037 0 5.4-2.52 5.4-5.648zm-1.17-.022c0 2.587-1.845 4.612-4.342 4.612-2.25 0-4.275-1.484-4.275-4.59 0-3.127 2.025-4.612 4.275-4.612 2.498 0 4.343 1.98 4.343 4.59zM439.8 91.3h1.125V74.425H439.8zM445.11 91.3h1.125V80.433h-1.125zm-.428-15.053c0 .54.428.99.99.99.54 0 .99-.45.99-.99s-.45-.99-.99-.99c-.562 0-.99.45-.99.99zM449.587 85.855c-.067 3.083 2.543 5.737 5.603 5.67a5.414 5.414 0 004.41-2.228l-.81-.652c-.945 1.215-2.137 1.823-3.6 1.823-2.498 0-4.433-2.026-4.433-4.613 0-2.542 1.935-4.59 4.455-4.59 1.463 0 2.655.607 3.578 1.823l.81-.653c-1.013-1.373-2.565-2.228-4.388-2.228-3.082-.067-5.692 2.566-5.625 5.648zM461.782 85.855c-.067 3.083 2.543 5.737 5.603 5.67 3.083.068 5.715-2.587 5.647-5.67 0-3.127-2.52-5.647-5.625-5.647-3.082-.068-5.692 2.52-5.625 5.647zm10.08.022c0 2.566-1.98 4.59-4.477 4.59-2.498 0-4.433-2.024-4.433-4.59 0-2.61 1.935-4.612 4.455-4.612 2.475 0 4.455 2.002 4.455 4.612zM475.575 84.797h5.13v-.99h-5.13zM491.82 84.483c0-2.768-1.62-4.276-4.073-4.276-1.732 0-3.105.743-4.162 2.25l.787.63c.923-1.192 1.935-1.822 3.308-1.822 1.822 0 2.992 1.102 2.992 3.172v1.238h-3.78c-2.272 0-3.78 1.125-3.78 2.902 0 .923.36 1.665 1.08 2.183.72.517 1.598.765 2.655.765 1.71 0 3.105-.698 3.893-1.935v1.71h1.08zm-1.148 2.767c0 1.867-1.71 3.285-3.712 3.285-1.462 0-2.677-.698-2.677-2.025 0-1.193.944-1.868 2.722-1.868h3.667zM495.825 91.3h1.125V74.425h-1.125zM508.965 80.433l-3.982 9.157-4.006-9.157h-1.215l4.995 11.092h.473l4.95-11.092zM511.71 85.855c-.068 3.083 2.542 5.737 5.602 5.67 3.083.068 5.715-2.587 5.648-5.67 0-3.127-2.52-5.647-5.625-5.647-3.083-.068-5.693 2.52-5.625 5.647zm10.08.022c0 2.566-1.98 4.59-4.478 4.59-2.497 0-4.432-2.024-4.432-4.59 0-2.61 1.935-4.612 4.455-4.612 2.475 0 4.455 2.002 4.455 4.612zM526.042 90.445c0 .63.518 1.08 1.08 1.08.63 0 1.125-.45 1.125-1.08 0-.698-.495-1.125-1.125-1.125-.607 0-1.08.472-1.08 1.125z" stroke-width=".0225"/></g></svg>