<svg width="314.265" height="32" viewBox="0 0 314.265 32" xmlns="http://www.w3.org/2000/svg"><g fill="#5BB293" stroke="#000"><path d="M14.936 10.445L8.715 25.434 2.494 10.445h-1.47l7.429 17.587h.55l7.403-17.587zM29.216 21.733c.079-.29.105-.71.105-1.26 0-3.387-2.546-5.644-5.67-5.644-3.491-.079-6.484 3.018-6.405 6.615-.079 3.596 2.966 6.667 6.563 6.588 2.021 0 3.832-.892 5.092-2.362l-.84-.866c-1.129 1.338-2.546 1.995-4.226 1.995-2.861 0-5.066-2.1-5.224-5.067zM18.664 20.55c.183-1.312.735-2.388 1.653-3.228.92-.867 1.995-1.287 3.282-1.287 2.441 0 4.462 1.759 4.357 4.515zM29.269 32.6a6.24 6.24 0 001.443.158c2.337 0 3.833-1.182 3.833-3.807v-13.86h-1.313V28.9c0 1.968-.997 2.651-2.756 2.651-.393 0-.813-.026-1.207-.105zm3.465-22.391c0 .63.498 1.155 1.155 1.155.63 0 1.155-.525 1.155-1.155s-.525-1.155-1.155-1.155c-.657 0-1.155.525-1.155 1.155zM48.431 19.816c0-3.228-1.89-4.987-4.751-4.987-2.021 0-3.623.866-4.856 2.625l.918.735c1.077-1.392 2.258-2.127 3.86-2.127 2.126 0 3.49 1.287 3.49 3.702v1.444h-4.41c-2.65 0-4.41 1.312-4.41 3.386 0 1.076.42 1.942 1.26 2.546.84.604 1.864.893 3.098.893 1.995 0 3.623-.814 4.541-2.258v1.995h1.26zm-1.338 3.229c0 2.179-1.996 3.833-4.332 3.833-1.706 0-3.123-.814-3.123-2.363 0-1.391 1.102-2.179 3.176-2.179h4.279zM69.457 19.816c0-3.228-1.89-4.987-4.75-4.987-2.022 0-3.623.866-4.857 2.625l.919.735c1.076-1.392 2.257-2.127 3.858-2.127 2.127 0 3.492 1.287 3.492 3.702v1.444h-4.41c-2.652 0-4.41 1.312-4.41 3.386 0 1.076.42 1.942 1.26 2.546.84.604 1.863.893 3.097.893 1.995 0 3.623-.814 4.541-2.258v1.995h1.26zm-1.338 3.229c0 2.179-1.995 3.833-4.332 3.833-1.706 0-3.123-.814-3.123-2.363 0-1.391 1.102-2.179 3.176-2.179h4.279zM89.828 15.091L85.18 25.775 80.51 15.091H79.09l5.828 12.941h.551l5.775-12.94zM105 21.733c.079-.29.105-.71.105-1.26 0-3.387-2.546-5.644-5.67-5.644-3.491-.079-6.484 3.018-6.405 6.615-.079 3.596 2.966 6.667 6.563 6.588 2.02 0 3.832-.892 5.092-2.362l-.84-.866c-1.129 1.338-2.546 1.995-4.226 1.995-2.861 0-5.066-2.1-5.224-5.067zM94.447 20.55c.184-1.312.736-2.388 1.654-3.228.919-.867 1.995-1.287 3.282-1.287 2.44 0 4.462 1.759 4.357 4.515zM115.29 15.091c-.131 0-.472-.078-.814-.078-1.758 0-3.281.76-4.2 2.23v-2.152h-1.26V27.77h1.313v-7.455c0-2.546 2.126-4.069 4.305-4.069h.656v-1.155zM116.97 25.407c1.076 1.575 2.756 2.625 4.856 2.625 1.182 0 2.179-.315 2.993-.918.813-.604 1.233-1.47 1.233-2.599 0-1.759-1.155-2.704-3.28-3.649l-1.182-.525c-1.706-.735-2.389-1.207-2.389-2.283 0-1.287 1.103-1.995 2.573-1.995 1.233 0 2.336.55 3.307 1.627l.866-.84c-.945-1.234-2.336-2.021-4.095-2.021-1.128 0-2.073.289-2.86.892-.788.604-1.182 1.392-1.182 2.415 0 1.654 1.129 2.52 3.124 3.387l1.155.498c1.785.814 2.467 1.155 2.598 2.547 0 1.443-1.233 2.23-2.835 2.23-1.6 0-2.808-.787-3.963-2.257l-.919.867zM139.151 19.816c0-3.228-1.89-4.987-4.751-4.987-2.021 0-3.623.866-4.856 2.625l.919.735c1.076-1.392 2.257-2.127 3.858-2.127 2.126 0 3.491 1.287 3.491 3.702v1.444h-4.41c-2.65 0-4.41 1.312-4.41 3.386 0 1.076.42 1.942 1.26 2.546.84.604 1.864.893 3.098.893 1.995 0 3.623-.814 4.541-2.258v1.995h1.26zm-1.339 3.229c0 2.179-1.995 3.833-4.33 3.833-1.707 0-3.125-.814-3.125-2.363 0-1.391 1.103-2.179 3.177-2.179h4.279zm-3.333-11.891c.525.525 1.102.787 1.706.787 1.234 0 1.89-1.076 1.89-2.362 0-.263 0-.446-.026-.578h-1.155V9.5c0 .709-.289 1.208-.84 1.208-.394 0-.683-.184-1.129-.63l-.656-.657c-.525-.525-1.077-.787-1.68-.787-1.234 0-1.89 1.024-1.89 2.362 0 .236 0 .446.026.578h1.155v-.525c0-.709.263-1.181.814-1.181.42 0 .682.183 1.129.63zM142.852 21.418c-.078 3.596 2.967 6.693 6.537 6.615 3.596.078 6.667-3.02 6.588-6.616 0-3.648-2.94-6.588-6.562-6.588-3.596-.079-6.641 2.94-6.563 6.588zm11.76.026c0 2.992-2.31 5.355-5.223 5.355-2.914 0-5.172-2.363-5.172-5.355 0-3.045 2.258-5.381 5.198-5.381 2.887 0 5.197 2.336 5.197 5.38zM185.299 19.764c0-2.966-1.68-4.935-4.515-4.935-2.021 0-3.544.997-4.384 2.467-.656-1.548-2.021-2.467-3.99-2.467-1.68 0-3.071.682-3.911 1.916v-1.654h-1.26V27.77h1.312v-7.901c0-2.205 1.497-3.806 3.675-3.806 2.1 0 3.387 1.522 3.387 3.806v7.901h1.312v-8.111c0-1.969 1.549-3.596 3.675-3.596 2.1 0 3.36 1.522 3.36 3.806v7.901h1.339v-8.006zM189 21.418c-.079 3.596 2.966 6.693 6.536 6.615 3.596.078 6.668-3.02 6.589-6.616 0-3.648-2.94-6.588-6.563-6.588-3.596-.079-6.64 2.94-6.562 6.588zm11.76.026c0 2.992-2.31 5.355-5.224 5.355s-5.171-2.363-5.171-5.355c0-3.045 2.257-5.381 5.197-5.381 2.888 0 5.198 2.336 5.198 5.38zM218.767 21.444c0-3.701-2.756-6.615-6.3-6.615-2.178 0-4.147 1.05-5.118 2.73V8.083h-1.313V27.77h1.26v-2.546c.945 1.706 2.966 2.809 5.171 2.809 3.544 0 6.3-2.94 6.3-6.59zm-1.365-.026c0 3.018-2.152 5.38-5.066 5.38-2.625 0-4.987-1.732-4.987-5.354 0-3.649 2.362-5.382 4.987-5.382 2.914 0 5.066 2.31 5.066 5.355zM222.679 27.77h1.312V15.091h-1.312zm-.499-17.561c0 .63.499 1.155 1.155 1.155.63 0 1.155-.525 1.155-1.155s-.525-1.155-1.155-1.155c-.656 0-1.155.525-1.155 1.155zM228.874 27.77h1.312V8.082h-1.312zM246.067 21.733c.08-.29.105-.71.105-1.26 0-3.387-2.546-5.644-5.67-5.644-3.49-.079-6.483 3.018-6.405 6.615-.078 3.596 2.967 6.667 6.563 6.588 2.021 0 3.832-.892 5.092-2.362l-.84-.866c-1.128 1.338-2.546 1.995-4.226 1.995-2.861 0-5.066-2.1-5.224-5.067zm-10.552-1.182c.184-1.312.735-2.388 1.654-3.228.918-.867 1.995-1.287 3.281-1.287 2.441 0 4.462 1.759 4.357 4.515zM249.637 14.645v1.26l8.794 3.649-8.794 3.675v1.286l11.183-4.725v-.446z" stroke-width=".02625"/></g></svg>