<svg width="448.994" height="158" viewBox="0 0 448.994 158" xmlns="http://www.w3.org/2000/svg"><g fill="#fff" stroke="#000"><path d="M2.572 27.77h1.365V20h4.515c3.256 0 5.25-2.021 5.25-4.804 0-2.73-1.994-4.751-5.25-4.751h-5.88zm1.365-9.004V11.68H8.4c2.494 0 3.885 1.444 3.885 3.544s-1.391 3.543-3.885 3.543zM15.724 21.418c-.079 3.596 2.966 6.693 6.536 6.615 3.596.078 6.667-3.02 6.589-6.616 0-3.648-2.94-6.588-6.563-6.588-3.596-.079-6.641 2.94-6.562 6.588zm11.76.026c0 2.992-2.31 5.355-5.224 5.355s-5.171-2.363-5.171-5.355c0-3.045 2.257-5.381 5.197-5.381 2.888 0 5.198 2.336 5.198 5.38zM43.207 8.082v9.477c-.97-1.68-2.94-2.73-5.118-2.73-3.623 0-6.3 2.913-6.3 6.615 0 3.648 2.756 6.588 6.3 6.588 2.205 0 4.226-1.076 5.171-2.835v2.573h1.26V8.082zm0 13.362c0 3.622-2.362 5.355-4.987 5.355-2.914 0-5.066-2.363-5.066-5.381 0-3.045 2.152-5.355 5.066-5.355 2.625 0 4.987 1.732 4.987 5.38zM60.401 21.733c.079-.29.105-.71.105-1.26 0-3.387-2.546-5.644-5.67-5.644-3.491-.079-6.484 3.018-6.405 6.615-.079 3.596 2.966 6.667 6.563 6.588 2.021 0 3.832-.892 5.092-2.362l-.84-.866c-1.129 1.338-2.546 1.995-4.226 1.995-2.861 0-5.066-2.1-5.224-5.067zM49.85 20.55c.183-1.312.735-2.388 1.653-3.228.92-.867 1.995-1.287 3.282-1.287 2.441 0 4.462 1.759 4.357 4.515zM82.477 19.764c0-2.966-1.68-4.935-4.515-4.935-2.02 0-3.543.997-4.383 2.467-.657-1.548-2.022-2.467-3.99-2.467-1.68 0-3.072.682-3.912 1.916v-1.654h-1.26V27.77h1.313v-7.901c0-2.205 1.496-3.806 3.675-3.806 2.1 0 3.386 1.522 3.386 3.806v7.901h1.313v-8.111c0-1.969 1.548-3.596 3.675-3.596 2.1 0 3.36 1.522 3.36 3.806v7.901h1.338v-8.006zM86.179 21.418c-.079 3.596 2.966 6.693 6.536 6.615 3.596.078 6.667-3.02 6.589-6.616 0-3.648-2.94-6.588-6.563-6.588-3.596-.079-6.641 2.94-6.562 6.588zm11.76.026c0 2.992-2.31 5.355-5.224 5.355s-5.171-2.363-5.171-5.355c0-3.045 2.257-5.381 5.197-5.381 2.888 0 5.198 2.336 5.198 5.38zM101.981 25.407c1.076 1.575 2.756 2.625 4.856 2.625 1.182 0 2.18-.315 2.993-.918.814-.604 1.234-1.47 1.234-2.599 0-1.759-1.155-2.704-3.282-3.649l-1.18-.525c-1.707-.735-2.39-1.207-2.39-2.283 0-1.287 1.103-1.995 2.573-1.995 1.234 0 2.336.55 3.307 1.627l.867-.84c-.945-1.234-2.337-2.021-4.095-2.021-1.129 0-2.074.289-2.862.892-.787.604-1.18 1.392-1.18 2.415 0 1.654 1.128 2.52 3.123 3.387l1.155.498c1.785.814 2.467 1.155 2.599 2.547 0 1.443-1.234 2.23-2.835 2.23-1.602 0-2.809-.787-3.964-2.257l-.919.867zM122.325 22.966c0 3.071 2.179 5.066 4.987 5.066 2.783 0 4.962-1.995 4.962-5.066v-7.875h-1.313v7.928c0 2.31-1.575 3.78-3.649 3.78-2.1 0-3.675-1.47-3.675-3.78V15.09h-1.312v7.875zM143.325 26.615c-.656.131-1.26.21-1.759.21-1.706 0-2.756-.735-2.756-2.651v-7.875h4.095V15.09h-4.095v-3.596h-1.339v3.596h-2.205V16.3h2.205v7.927c0 2.625 1.496 3.806 3.885 3.806.656 0 1.313-.078 1.969-.262v-1.155zM146.501 27.77h1.313V15.091H146.5zm-.499-17.561c0 .63.5 1.155 1.155 1.155.63 0 1.155-.525 1.155-1.155s-.525-1.155-1.155-1.155c-.656 0-1.155.525-1.155 1.155zM152.696 27.77h1.313V8.082h-1.313zM158.891 27.77h1.313V15.091h-1.313zm-.499-17.561c0 .63.5 1.155 1.155 1.155.63 0 1.155-.525 1.155-1.155s-.525-1.155-1.155-1.155c-.656 0-1.155.525-1.155 1.155zM165.532 26.563l7.954-11.025v-.447h-9.371V16.3h7.35l-7.954 11.025v.446h10.106v-1.207zM185.902 19.816c0-3.228-1.89-4.987-4.75-4.987-2.022 0-3.623.866-4.857 2.625l.919.735c1.076-1.392 2.257-2.127 3.858-2.127 2.127 0 3.492 1.287 3.492 3.702v1.444h-4.41c-2.652 0-4.41 1.312-4.41 3.386 0 1.076.42 1.942 1.26 2.546.84.604 1.863.893 3.097.893 1.995 0 3.623-.814 4.541-2.258v1.995h1.26zm-1.338 3.229c0 2.179-1.995 3.833-4.332 3.833-1.706 0-3.123-.814-3.123-2.363 0-1.391 1.102-2.179 3.176-2.179h4.279zM196.849 15.091c-.132 0-.473-.078-.814-.078-1.759 0-3.281.76-4.2 2.23v-2.152h-1.26V27.77h1.313v-7.455c0-2.546 2.126-4.069 4.304-4.069h.657v-1.155zM218.111 21.733c.079-.29.105-.71.105-1.26 0-3.387-2.546-5.644-5.67-5.644-3.491-.079-6.484 3.018-6.405 6.615-.079 3.596 2.966 6.667 6.563 6.588 2.021 0 3.832-.892 5.092-2.362l-.84-.866c-1.129 1.338-2.546 1.995-4.226 1.995-2.861 0-5.066-2.1-5.224-5.067zM207.56 20.55c.183-1.312.735-2.388 1.653-3.228.92-.867 1.995-1.287 3.282-1.287 2.441 0 4.462 1.759 4.357 4.515zM220.894 25.407c1.076 1.575 2.756 2.625 4.856 2.625 1.181 0 2.179-.315 2.992-.918.814-.604 1.234-1.47 1.234-2.599 0-1.759-1.155-2.704-3.281-3.649l-1.181-.525c-1.707-.735-2.389-1.207-2.389-2.283 0-1.287 1.102-1.995 2.572-1.995 1.234 0 2.337.55 3.308 1.627l.866-.84c-.945-1.234-2.336-2.021-4.095-2.021-1.129 0-2.074.289-2.861.892-.788.604-1.181 1.392-1.181 2.415 0 1.654 1.128 2.52 3.123 3.387l1.155.498c1.785.814 2.468 1.155 2.6 2.547 0 1.443-1.235 2.23-2.836 2.23-1.601 0-2.809-.787-3.964-2.257l-.918.867zM232.837 25.407c1.077 1.575 2.757 2.625 4.857 2.625 1.181 0 2.178-.315 2.992-.918.814-.604 1.234-1.47 1.234-2.599 0-1.759-1.155-2.704-3.281-3.649l-1.182-.525c-1.706-.735-2.388-1.207-2.388-2.283 0-1.287 1.102-1.995 2.572-1.995 1.234 0 2.336.55 3.308 1.627l.866-.84c-.945-1.234-2.336-2.021-4.095-2.021-1.129 0-2.074.289-2.861.892-.788.604-1.182 1.392-1.182 2.415 0 1.654 1.13 2.52 3.124 3.387l1.155.498c1.785.814 2.468 1.155 2.599 2.547 0 1.443-1.234 2.23-2.835 2.23s-2.809-.787-3.964-2.257l-.919.867zM255.019 19.816c0-3.228-1.89-4.987-4.752-4.987-2.02 0-3.622.866-4.856 2.625l.919.735c1.076-1.392 2.257-2.127 3.859-2.127 2.126 0 3.491 1.287 3.491 3.702v1.444h-4.41c-2.651 0-4.41 1.312-4.41 3.386 0 1.076.42 1.942 1.26 2.546.84.604 1.864.893 3.097.893 1.995 0 3.623-.814 4.542-2.258v1.995h1.26zm-1.339 3.229c0 2.179-1.995 3.833-4.331 3.833-1.707 0-3.124-.814-3.124-2.363 0-1.391 1.102-2.179 3.176-2.179h4.279zM273.394 26.615c-.657.131-1.26.21-1.759.21-1.706 0-2.756-.735-2.756-2.651v-7.875h4.095V15.09h-4.095v-3.596h-1.339v3.596h-2.205V16.3h2.205v7.927c0 2.625 1.496 3.806 3.885 3.806.656 0 1.312-.078 1.969-.262v-1.155zM287.306 21.733c.079-.29.105-.71.105-1.26 0-3.387-2.546-5.644-5.67-5.644-3.491-.079-6.484 3.018-6.405 6.615-.079 3.596 2.966 6.667 6.563 6.588 2.021 0 3.832-.892 5.092-2.362l-.84-.866c-1.129 1.338-2.546 1.995-4.226 1.995-2.861 0-5.066-2.1-5.224-5.067zm-10.552-1.182c.183-1.312.735-2.388 1.653-3.228.92-.867 1.995-1.287 3.282-1.287 2.441 0 4.462 1.759 4.357 4.515zM290.351 21.418c-.079 3.596 2.966 6.693 6.536 6.615a6.316 6.316 0 005.145-2.6l-.945-.76c-1.102 1.417-2.493 2.126-4.2 2.126-2.913 0-5.17-2.363-5.17-5.382 0-2.966 2.257-5.355 5.197-5.355 1.706 0 3.097.71 4.174 2.127l.944-.762c-1.18-1.6-2.992-2.598-5.118-2.598-3.596-.079-6.641 2.992-6.563 6.588zM315.761 19.764c0-2.94-1.732-4.935-4.646-4.935-1.759 0-3.176.709-4.043 1.969V15.09h-1.26V27.77h1.313v-7.927c0-1.077.341-1.995 1.05-2.704.709-.709 1.627-1.076 2.73-1.076 2.179 0 3.544 1.548 3.544 3.78v7.927h1.312v-8.006zM319.489 21.418c-.079 3.596 2.966 6.693 6.536 6.615 3.596.078 6.667-3.02 6.589-6.616 0-3.648-2.94-6.588-6.563-6.588-3.596-.079-6.641 2.94-6.562 6.588zm11.76.026c0 2.992-2.31 5.355-5.224 5.355s-5.171-2.363-5.171-5.355c0-3.045 2.257-5.381 5.197-5.381 2.888 0 5.198 2.336 5.198 5.38zM336.525 27.77h1.313V8.082h-1.313zM341.749 21.418c-.079 3.596 2.966 6.693 6.536 6.615 3.596.078 6.667-3.02 6.589-6.616 0-3.648-2.94-6.588-6.563-6.588-3.596-.079-6.641 2.94-6.562 6.588zm11.76.026c0 2.992-2.31 5.355-5.224 5.355s-5.171-2.363-5.171-5.355c0-3.045 2.257-5.381 5.197-5.381 2.888 0 5.198 2.336 5.198 5.38zM369.442 15.091v2.52c-.945-1.706-2.992-2.782-5.197-2.782-3.544 0-6.274 2.835-6.274 6.431s2.73 6.457 6.274 6.457c2.179 0 4.174-1.05 5.145-2.703v1.68c0 3.071-1.916 4.83-4.778 4.83-1.968 0-3.7-.84-4.987-2.127l-.814.893c1.339 1.47 3.439 2.467 5.828 2.467 3.57 0 6.063-2.31 6.063-6.116v-11.55zm-.052 6.169c0 3.491-2.363 5.224-4.961 5.224-2.94 0-5.093-2.284-5.093-5.198 0-2.913 2.153-5.197 5.093-5.197 2.546 0 4.961 1.68 4.961 5.171zM375.585 27.77h1.313V15.091h-1.313zm-.499-17.561c0 .63.499 1.155 1.155 1.155.63 0 1.155-.525 1.155-1.155s-.525-1.155-1.155-1.155c-.656 0-1.155.525-1.155 1.155zM390.784 19.816c0-3.228-1.89-4.987-4.752-4.987-2.02 0-3.622.866-4.856 2.625l.919.735c1.076-1.392 2.257-2.127 3.859-2.127 2.126 0 3.491 1.287 3.491 3.702v1.444h-4.41c-2.651 0-4.41 1.312-4.41 3.386 0 1.076.42 1.942 1.26 2.546.84.604 1.864.893 3.097.893 1.995 0 3.623-.814 4.542-2.258v1.995h1.26zm-1.339 3.229c0 2.179-1.995 3.833-4.331 3.833-1.707 0-3.124-.814-3.124-2.363 0-1.391 1.102-2.179 3.176-2.179h4.279z" stroke-width=".02625"/></g><g fill="#fff" stroke="#000"><path d="M15.172 60.788c0-3.65-2.756-6.59-6.3-6.59-2.205 0-4.226 1.103-5.17 2.81V54.46h-1.26v17.404h1.312v-7.166c.971 1.68 2.992 2.704 5.118 2.704 3.544 0 6.3-2.914 6.3-6.616zm-1.365.026c0 3.045-2.152 5.355-5.066 5.355-2.625 0-4.987-1.733-4.987-5.381 0-3.623 2.362-5.355 4.987-5.355 2.914 0 5.066 2.362 5.066 5.38zM28.087 59.186c0-3.228-1.89-4.987-4.75-4.987-2.022 0-3.623.866-4.857 2.625l.919.735c1.076-1.391 2.257-2.126 3.858-2.126 2.127 0 3.492 1.286 3.492 3.7v1.445h-4.41c-2.651 0-4.41 1.312-4.41 3.386 0 1.076.42 1.942 1.26 2.546.84.604 1.864.892 3.097.892 1.995 0 3.623-.813 4.542-2.257v1.995h1.26zm-1.338 3.229c0 2.179-1.995 3.833-4.332 3.833-1.706 0-3.123-.814-3.123-2.363 0-1.391 1.102-2.179 3.176-2.179h4.279zM39.034 54.461c-.132 0-.473-.078-.814-.078-1.759 0-3.281.76-4.2 2.23v-2.152h-1.26V67.14h1.313v-7.455c0-2.546 2.126-4.069 4.304-4.069h.657v-1.155zM50.689 59.186c0-3.228-1.89-4.987-4.752-4.987-2.02 0-3.622.866-4.856 2.625l.919.735c1.076-1.391 2.257-2.126 3.859-2.126 2.126 0 3.491 1.286 3.491 3.7v1.445h-4.41c-2.651 0-4.41 1.312-4.41 3.386 0 1.076.42 1.942 1.26 2.546.84.604 1.864.892 3.097.892 1.995 0 3.623-.813 4.542-2.257v1.995h1.26zm-1.339 3.229c0 2.179-1.995 3.833-4.331 3.833-1.706 0-3.124-.814-3.124-2.363 0-1.391 1.103-2.179 3.176-2.179h4.279zM68.985 54.461c-.131 0-.472-.078-.814-.078-1.759 0-3.281.76-4.2 2.23v-2.152h-1.26V67.14h1.313v-7.455c0-2.546 2.126-4.069 4.305-4.069h.656v-1.155zM82.635 61.102c.079-.288.105-.708.105-1.26 0-3.386-2.546-5.643-5.67-5.643-3.491-.079-6.484 3.019-6.405 6.615-.079 3.596 2.966 6.667 6.563 6.589 2.02 0 3.832-.893 5.092-2.363l-.84-.866c-1.129 1.339-2.546 1.995-4.226 1.995-2.862 0-5.067-2.1-5.224-5.066zm-10.553-1.18c.184-1.313.736-2.39 1.654-3.23.919-.866 1.995-1.286 3.282-1.286 2.44 0 4.462 1.759 4.357 4.515zM95.655 59.186c0-3.228-1.89-4.987-4.751-4.987-2.021 0-3.623.866-4.856 2.625l.918.735c1.077-1.391 2.258-2.126 3.859-2.126 2.126 0 3.491 1.286 3.491 3.7v1.445h-4.41c-2.651 0-4.41 1.312-4.41 3.386 0 1.076.42 1.942 1.26 2.546.84.604 1.864.892 3.098.892 1.995 0 3.622-.813 4.541-2.257v1.995h1.26zm-1.339 3.229c0 2.179-1.995 3.833-4.331 3.833-1.706 0-3.124-.814-3.124-2.363 0-1.391 1.103-2.179 3.176-2.179h4.28zM100.328 67.14h1.312V47.452h-1.313zM106.522 67.14h1.313V54.461h-1.313zm-.498-17.561c0 .63.498 1.155 1.155 1.155.63 0 1.155-.525 1.155-1.155s-.525-1.155-1.155-1.155c-.657 0-1.155.525-1.155 1.155zM113.164 65.933l7.953-11.026v-.446h-9.37v1.208h7.35l-7.955 11.025v.446h10.107v-1.207zM133.534 59.186c0-3.228-1.89-4.987-4.751-4.987-2.022 0-3.623.866-4.857 2.625l.919.735c1.076-1.391 2.257-2.126 3.859-2.126 2.126 0 3.491 1.286 3.491 3.7v1.445h-4.41c-2.651 0-4.41 1.312-4.41 3.386 0 1.076.42 1.942 1.26 2.546.84.604 1.864.892 3.097.892 1.996 0 3.623-.813 4.542-2.257v1.995h1.26zm-1.339 3.229c0 2.179-1.995 3.833-4.331 3.833-1.707 0-3.124-.814-3.124-2.363 0-1.391 1.103-2.179 3.176-2.179h4.279zM144.48 54.461c-.131 0-.472-.078-.814-.078-1.759 0-3.281.76-4.2 2.23v-2.152h-1.26V67.14h1.313v-7.455c0-2.546 2.126-4.069 4.305-4.069h.656v-1.155zM167.475 60.788c0-3.65-2.756-6.59-6.3-6.59-2.205 0-4.226 1.103-5.171 2.81V54.46h-1.26v17.404h1.312v-7.166c.971 1.68 2.993 2.704 5.119 2.704 3.544 0 6.3-2.914 6.3-6.616zm-1.365.026c0 3.045-2.153 5.355-5.066 5.355-2.625 0-4.988-1.733-4.988-5.381 0-3.623 2.363-5.355 4.988-5.355 2.913 0 5.066 2.362 5.066 5.38zM182.385 61.102c.079-.288.105-.708.105-1.26 0-3.386-2.546-5.643-5.67-5.643-3.491-.079-6.484 3.019-6.405 6.615-.079 3.596 2.966 6.667 6.563 6.589 2.02 0 3.832-.893 5.092-2.363l-.84-.866c-1.129 1.339-2.546 1.995-4.226 1.995-2.861 0-5.066-2.1-5.224-5.066zm-10.553-1.18c.184-1.313.735-2.39 1.654-3.23.919-.866 1.995-1.286 3.281-1.286 2.442 0 4.463 1.759 4.358 4.515zM185.167 64.778c1.077 1.574 2.757 2.624 4.857 2.624 1.181 0 2.178-.314 2.992-.918.814-.604 1.234-1.47 1.234-2.599 0-1.759-1.155-2.704-3.281-3.649l-1.182-.525c-1.706-.735-2.388-1.207-2.388-2.283 0-1.287 1.102-1.995 2.572-1.995 1.234 0 2.336.55 3.308 1.627l.866-.84c-.945-1.234-2.336-2.021-4.095-2.021-1.129 0-2.074.288-2.861.892-.788.604-1.182 1.391-1.182 2.415 0 1.654 1.13 2.52 3.124 3.386l1.155.5c1.785.813 2.468 1.154 2.599 2.545 0 1.444-1.234 2.232-2.835 2.232s-2.809-.788-3.964-2.258l-.919.866zM208.845 54.461v2.573c-.945-1.759-2.966-2.835-5.171-2.835-3.544 0-6.3 2.94-6.3 6.588 0 3.702 2.677 6.615 6.3 6.615 2.126 0 4.147-1.023 5.118-2.703v7.166h1.313V54.461zm-.053 6.327c0 3.648-2.362 5.38-4.987 5.38-2.914 0-5.066-2.31-5.066-5.354 0-3.019 2.152-5.381 5.066-5.381 2.625 0 4.987 1.732 4.987 5.355zM214.804 62.336c0 3.072 2.178 5.067 4.987 5.067 2.783 0 4.961-1.996 4.961-5.067v-7.875h-1.312v7.928c0 2.31-1.575 3.78-3.649 3.78-2.1 0-3.675-1.47-3.675-3.78V54.46h-1.312v7.875zM229.451 67.14h1.313V54.461h-1.313zm-.499-17.561c0 .63.5 1.155 1.155 1.155.63 0 1.155-.525 1.155-1.155s-.525-1.155-1.155-1.155c-.656 0-1.155.525-1.155 1.155zM234.412 64.778c1.077 1.574 2.757 2.624 4.857 2.624 1.181 0 2.178-.314 2.992-.918.814-.604 1.234-1.47 1.234-2.599 0-1.759-1.155-2.704-3.281-3.649l-1.182-.525c-1.706-.735-2.388-1.207-2.388-2.283 0-1.287 1.102-1.995 2.572-1.995 1.234 0 2.336.55 3.308 1.627l.866-.84c-.945-1.234-2.336-2.021-4.095-2.021-1.129 0-2.074.288-2.861.892-.788.604-1.182 1.391-1.182 2.415 0 1.654 1.13 2.52 3.124 3.386l1.155.5c1.785.813 2.468 1.154 2.599 2.545 0 1.444-1.234 2.232-2.835 2.232s-2.809-.788-3.964-2.258l-.919.866zM256.594 59.186c0-3.228-1.89-4.987-4.751-4.987-2.022 0-3.623.866-4.857 2.625l.919.735c1.076-1.391 2.257-2.126 3.859-2.126 2.126 0 3.491 1.286 3.491 3.7v1.445h-4.41c-2.651 0-4.41 1.312-4.41 3.386 0 1.076.42 1.942 1.26 2.546.84.604 1.864.892 3.097.892 1.995 0 3.623-.813 4.542-2.257v1.995h1.26zm-1.339 3.229c0 2.179-1.995 3.833-4.331 3.833-1.707 0-3.124-.814-3.124-2.363 0-1.391 1.102-2.179 3.176-2.179h4.279zM260.032 64.778c1.077 1.574 2.757 2.624 4.857 2.624 1.181 0 2.178-.314 2.992-.918.814-.604 1.234-1.47 1.234-2.599 0-1.759-1.155-2.704-3.281-3.649l-1.182-.525c-1.706-.735-2.388-1.207-2.388-2.283 0-1.287 1.102-1.995 2.572-1.995 1.234 0 2.336.55 3.308 1.627l.866-.84c-.945-1.234-2.336-2.021-4.095-2.021-1.129 0-2.074.288-2.861.892-.788.604-1.182 1.391-1.182 2.415 0 1.654 1.13 2.52 3.124 3.386l1.155.5c1.785.813 2.468 1.154 2.599 2.545 0 1.444-1.234 2.232-2.835 2.232s-2.809-.788-3.964-2.258l-.919.866zM291.008 47.453v9.476c-.972-1.68-2.94-2.73-5.12-2.73-3.622 0-6.3 2.914-6.3 6.615 0 3.649 2.757 6.589 6.3 6.589 2.206 0 4.227-1.077 5.172-2.836v2.573h1.26V47.453zm0 13.36c0 3.623-2.363 5.356-4.988 5.356-2.914 0-5.066-2.363-5.066-5.381 0-3.045 2.152-5.355 5.066-5.355 2.625 0 4.988 1.732 4.988 5.38zM308.201 61.102c.079-.288.105-.708.105-1.26 0-3.386-2.546-5.643-5.67-5.643-3.491-.079-6.484 3.019-6.405 6.615-.078 3.596 2.967 6.667 6.563 6.589 2.021 0 3.832-.893 5.092-2.363l-.84-.866c-1.128 1.339-2.546 1.995-4.226 1.995-2.861 0-5.066-2.1-5.224-5.066zm-10.552-1.18c.184-1.313.735-2.39 1.654-3.23.918-.866 1.995-1.286 3.28-1.286 2.442 0 4.463 1.759 4.358 4.515zM331.958 62.205c0-2.336-1.365-4.095-3.702-4.646 1.287-.735 1.995-1.969 1.995-3.518 0-2.493-1.758-4.226-4.672-4.226h-5.88V67.14h6.877c3.386 0 5.381-2.1 5.381-4.935zm-6.51-11.182c2.283 0 3.386 1.286 3.386 3.097s-1.181 3.071-3.386 3.071h-4.384V51.05zm5.118 11.156c0 2.205-1.496 3.727-4.121 3.727h-5.381v-7.481h5.381c2.625 0 4.121 1.549 4.121 3.754zM341.933 54.461c-.132 0-.473-.078-.814-.078-1.759 0-3.282.76-4.2 2.23v-2.152h-1.26V67.14h1.312v-7.455c0-2.546 2.126-4.069 4.305-4.069h.656v-1.155zM353.588 59.186c0-3.228-1.89-4.987-4.752-4.987-2.021 0-3.622.866-4.856 2.625l.919.735c1.076-1.391 2.257-2.126 3.859-2.126 2.126 0 3.49 1.286 3.49 3.7v1.445h-4.41c-2.65 0-4.41 1.312-4.41 3.386 0 1.076.42 1.942 1.26 2.546.84.604 1.864.892 3.098.892 1.995 0 3.623-.813 4.541-2.257v1.995h1.26zm-1.34 3.229c0 2.179-1.994 3.833-4.33 3.833-1.707 0-3.124-.814-3.124-2.363 0-1.391 1.102-2.179 3.176-2.179h4.279zM368.209 59.134c0-2.94-1.733-4.935-4.646-4.935-1.76 0-3.177.708-4.043 1.968v-1.706h-1.26V67.14h1.313v-7.927c0-1.077.34-1.996 1.05-2.704.708-.709 1.627-1.077 2.73-1.077 2.178 0 3.543 1.55 3.543 3.78v7.928h1.313v-8.006zM383.355 47.453v9.476c-.971-1.68-2.94-2.73-5.119-2.73-3.622 0-6.3 2.914-6.3 6.615 0 3.649 2.757 6.589 6.3 6.589 2.205 0 4.227-1.077 5.172-2.836v2.573h1.26V47.453zm0 13.36c0 3.623-2.362 5.356-4.987 5.356-2.914 0-5.067-2.363-5.067-5.381 0-3.045 2.153-5.355 5.066-5.355 2.625 0 4.988 1.732 4.988 5.38zM397.031 67.14h9.896v-1.234h-8.53V49.815h-1.366zM409.999 67.14h1.312V54.461H410zm-.499-17.561c0 .63.499 1.155 1.155 1.155.63 0 1.155-.525 1.155-1.155s-.525-1.155-1.155-1.155c-.656 0-1.155.525-1.155 1.155zM417.716 51.049c0-1.917 1.05-2.652 2.756-2.652.394 0 .814.027 1.208.106v-1.156a6.405 6.405 0 00-1.444-.157c-2.336 0-3.832 1.181-3.832 3.806v3.465h-1.838v1.208h1.838V67.14h1.312V55.669h3.334V54.46h-3.334V51.05zM429.345 65.985c-.656.131-1.26.21-1.759.21-1.706 0-2.756-.735-2.756-2.651v-7.875h4.095V54.46h-4.095v-3.596h-1.339v3.596h-2.205v1.208h2.205v7.927c0 2.625 1.496 3.807 3.885 3.807.656 0 1.313-.08 1.969-.263v-1.155zM432.705 71.865h1.129l.945-6.694h-1.628z" stroke-width=".02625"/></g><g fill="#fff" stroke="#000"><path d="M15.172 100.157c0-3.648-2.756-6.588-6.3-6.588-2.205 0-4.226 1.102-5.17 2.808v-2.546h-1.26v17.404h1.312v-7.166c.971 1.68 2.992 2.703 5.118 2.703 3.544 0 6.3-2.913 6.3-6.615zm-1.365.027c0 3.045-2.152 5.355-5.066 5.355-2.625 0-4.987-1.733-4.987-5.382 0-3.622 2.362-5.354 4.987-5.354 2.914 0 5.066 2.362 5.066 5.38zM28.087 98.556c0-3.229-1.89-4.987-4.75-4.987-2.022 0-3.623.866-4.857 2.625l.919.735c1.076-1.392 2.257-2.127 3.858-2.127 2.127 0 3.492 1.287 3.492 3.702v1.443h-4.41c-2.651 0-4.41 1.313-4.41 3.387 0 1.076.42 1.942 1.26 2.546.84.604 1.864.892 3.097.892 1.995 0 3.623-.813 4.542-2.257v1.995h1.26zm-1.338 3.229c0 2.179-1.995 3.833-4.332 3.833-1.706 0-3.123-.814-3.123-2.363 0-1.391 1.102-2.179 3.176-2.179h4.279zM39.034 93.831c-.132 0-.473-.079-.814-.079-1.759 0-3.281.762-4.2 2.232V93.83h-1.26v12.679h1.313v-7.455c0-2.546 2.126-4.069 4.304-4.069h.657v-1.155zM50.689 98.556c0-3.229-1.89-4.987-4.752-4.987-2.02 0-3.622.866-4.856 2.625l.919.735c1.076-1.392 2.257-2.127 3.859-2.127 2.126 0 3.491 1.287 3.491 3.702v1.443h-4.41c-2.651 0-4.41 1.313-4.41 3.387 0 1.076.42 1.942 1.26 2.546.84.604 1.864.892 3.097.892 1.995 0 3.623-.813 4.542-2.257v1.995h1.26zm-1.339 3.229c0 2.179-1.995 3.833-4.331 3.833-1.706 0-3.124-.814-3.124-2.363 0-1.391 1.103-2.179 3.176-2.179h4.279zM71.715 98.556c0-3.229-1.89-4.987-4.751-4.987-2.021 0-3.623.866-4.856 2.625l.918.735c1.077-1.392 2.258-2.127 3.859-2.127 2.126 0 3.491 1.287 3.491 3.702v1.443h-4.41c-2.651 0-4.41 1.313-4.41 3.387 0 1.076.42 1.942 1.26 2.546.84.604 1.864.892 3.098.892 1.995 0 3.622-.813 4.541-2.257v1.995h1.26zm-1.339 3.229c0 2.179-1.995 3.833-4.331 3.833-1.706 0-3.124-.814-3.124-2.363 0-1.391 1.103-2.179 3.177-2.179h4.278zM84.998 93.831l-4.647 10.684-4.672-10.684H74.26l5.828 12.941h.551l5.775-12.94zM98.175 98.556c0-3.229-1.89-4.987-4.751-4.987-2.021 0-3.623.866-4.856 2.625l.918.735c1.077-1.392 2.258-2.127 3.859-2.127 2.126 0 3.491 1.287 3.491 3.702v1.443h-4.41c-2.651 0-4.41 1.313-4.41 3.387 0 1.076.42 1.942 1.26 2.546.84.604 1.864.892 3.098.892 1.995 0 3.622-.813 4.541-2.257v1.995h1.26zm-1.339 3.229c0 2.179-1.995 3.833-4.331 3.833-1.706 0-3.124-.814-3.124-2.363 0-1.391 1.103-2.179 3.177-2.179h4.278zM102.847 106.51h1.313V86.822h-1.313zM109.042 106.51h1.313V93.831h-1.313zm-.498-17.561c0 .63.498 1.155 1.155 1.155.63 0 1.155-.525 1.155-1.155s-.525-1.155-1.155-1.155c-.657 0-1.155.525-1.155 1.155zM124.241 98.556c0-3.229-1.89-4.987-4.751-4.987-2.021 0-3.623.866-4.856 2.625l.918.735c1.077-1.392 2.258-2.127 3.86-2.127 2.125 0 3.49 1.287 3.49 3.702v1.443h-4.41c-2.65 0-4.41 1.313-4.41 3.387 0 1.076.42 1.942 1.26 2.546.84.604 1.864.892 3.098.892 1.995 0 3.622-.813 4.541-2.257v1.995h1.26zm-1.339 3.229c0 2.179-1.995 3.833-4.33 3.833-1.707 0-3.125-.814-3.125-2.363 0-1.391 1.103-2.179 3.177-2.179h4.278zM135.187 93.831c-.13 0-.472-.079-.813-.079-1.759 0-3.282.762-4.2 2.232V93.83h-1.26v12.679h1.312v-7.455c0-2.546 2.126-4.069 4.305-4.069h.656v-1.155zM154.455 98.556c0-3.229-1.89-4.987-4.751-4.987-2.022 0-3.623.866-4.857 2.625l.92.735c1.075-1.392 2.257-2.127 3.858-2.127 2.126 0 3.491 1.287 3.491 3.702v1.443h-4.41c-2.651 0-4.41 1.313-4.41 3.387 0 1.076.42 1.942 1.26 2.546.84.604 1.864.892 3.098.892 1.995 0 3.622-.813 4.541-2.257v1.995h1.26zm-1.339 3.229c0 2.179-1.995 3.833-4.331 3.833-1.706 0-3.124-.814-3.124-2.363 0-1.391 1.103-2.179 3.176-2.179h4.28zM179.209 100.157c0-3.648-2.757-6.588-6.3-6.588-2.205 0-4.227 1.102-5.172 2.808v-2.546h-1.26v17.404h1.313v-7.166c.971 1.68 2.992 2.703 5.119 2.703 3.543 0 6.3-2.913 6.3-6.615zm-1.365.027c0 3.045-2.153 5.355-5.067 5.355-2.625 0-4.987-1.733-4.987-5.382 0-3.622 2.362-5.354 4.987-5.354 2.914 0 5.067 2.362 5.067 5.38zM194.119 100.472c.078-.288.105-.708.105-1.26 0-3.386-2.547-5.643-5.67-5.643-3.492-.079-6.484 3.018-6.405 6.615-.079 3.596 2.966 6.667 6.562 6.588 2.021 0 3.833-.892 5.093-2.362l-.84-.866c-1.129 1.339-2.547 1.995-4.227 1.995-2.86 0-5.066-2.1-5.223-5.066zm-10.553-1.18c.184-1.313.735-2.39 1.654-3.23.919-.866 1.995-1.286 3.281-1.286 2.441 0 4.463 1.759 4.358 4.515zM204.409 93.831c-.132 0-.473-.079-.814-.079-1.759 0-3.281.762-4.2 2.232V93.83h-1.26v12.679h1.313v-7.455c0-2.546 2.126-4.069 4.304-4.069h.657v-1.155zM206.089 100.157c-.079 3.597 2.966 6.694 6.536 6.615a6.316 6.316 0 005.145-2.598l-.945-.762c-1.103 1.418-2.494 2.127-4.2 2.127-2.914 0-5.171-2.363-5.171-5.382 0-2.966 2.257-5.355 5.197-5.355 1.706 0 3.098.71 4.174 2.127l.945-.762c-1.181-1.6-2.992-2.598-5.119-2.598-3.596-.079-6.641 2.992-6.562 6.588zM232.286 100.472c.079-.288.105-.708.105-1.26 0-3.386-2.546-5.643-5.67-5.643-3.491-.079-6.484 3.018-6.405 6.615-.079 3.596 2.966 6.667 6.563 6.588 2.021 0 3.832-.892 5.092-2.362l-.84-.866c-1.129 1.339-2.546 1.995-4.226 1.995-2.861 0-5.066-2.1-5.224-5.066zm-10.552-1.18c.183-1.313.735-2.39 1.653-3.23.92-.866 1.995-1.286 3.282-1.286 2.441 0 4.462 1.759 4.357 4.515zM249.034 100.157c0-3.648-2.757-6.588-6.3-6.588-2.205 0-4.227 1.102-5.172 2.808v-2.546h-1.26v17.404h1.313v-7.166c.971 1.68 2.992 2.703 5.119 2.703 3.543 0 6.3-2.913 6.3-6.615zm-1.365.027c0 3.045-2.153 5.355-5.067 5.355-2.625 0-4.987-1.733-4.987-5.382 0-3.622 2.362-5.354 4.987-5.354 2.914 0 5.067 2.362 5.067 5.38zM251.974 100.157c-.079 3.597 2.966 6.694 6.536 6.615a6.316 6.316 0 005.145-2.598l-.945-.762c-1.103 1.418-2.494 2.127-4.2 2.127-2.914 0-5.171-2.363-5.171-5.382 0-2.966 2.257-5.355 5.197-5.355 1.706 0 3.098.71 4.174 2.127l.945-.762c-1.181-1.6-2.992-2.598-5.119-2.598-3.596-.079-6.641 2.992-6.562 6.588zm3.412 11.078a6.084 6.084 0 001.759.262c1.916 0 3.15-1.233 3.15-2.835 0-1.18-.735-2.126-1.864-2.65l-.499.393c.71.604 1.13 1.234 1.13 2.1 0 1.26-.867 1.89-2.1 1.89a6.76 6.76 0 01-1.576-.184zM276.439 98.556c0-3.229-1.89-4.987-4.752-4.987-2.02 0-3.622.866-4.856 2.625l.919.735c1.076-1.392 2.257-2.127 3.859-2.127 2.126 0 3.491 1.287 3.491 3.702v1.443h-4.41c-2.651 0-4.41 1.313-4.41 3.387 0 1.076.42 1.942 1.26 2.546.84.604 1.864.892 3.097.892 1.995 0 3.623-.813 4.542-2.257v1.995h1.26zm-1.339 3.229c0 2.179-1.995 3.833-4.331 3.833-1.707 0-3.124-.814-3.124-2.363 0-1.391 1.103-2.179 3.176-2.179h4.279zm-3.334-11.891c.525.525 1.103.787 1.706.787 1.234 0 1.89-1.076 1.89-2.362 0-.263 0-.447-.026-.578h-1.155v.499c0 .709-.289 1.208-.84 1.208-.394 0-.682-.184-1.129-.63l-.656-.657c-.525-.525-1.076-.787-1.68-.787-1.234 0-1.89 1.024-1.89 2.362 0 .236 0 .446.026.578h1.155v-.525c0-.709.263-1.182.814-1.182.42 0 .683.184 1.129.63zM280.14 100.157c-.079 3.597 2.966 6.694 6.536 6.615 3.596.08 6.668-3.018 6.589-6.615 0-3.648-2.94-6.588-6.563-6.588-3.596-.079-6.64 2.94-6.562 6.588zm11.76.027c0 2.992-2.31 5.355-5.224 5.355s-5.171-2.363-5.171-5.355c0-3.045 2.257-5.382 5.197-5.382 2.888 0 5.198 2.337 5.198 5.382zM314.974 86.822V96.3c-.971-1.68-2.94-2.73-5.119-2.73-3.623 0-6.3 2.913-6.3 6.615 0 3.648 2.756 6.588 6.3 6.588 2.205 0 4.226-1.076 5.171-2.835v2.573h1.26V86.822zm0 13.362c0 3.622-2.363 5.355-4.988 5.355-2.914 0-5.066-2.363-5.066-5.382 0-3.044 2.152-5.354 5.066-5.354 2.625 0 4.988 1.732 4.988 5.38zM320.197 100.157c-.078 3.597 2.967 6.694 6.537 6.615 3.596.08 6.667-3.018 6.589-6.615 0-3.648-2.94-6.588-6.563-6.588-3.596-.079-6.641 2.94-6.563 6.588zm11.76.027c0 2.992-2.31 5.355-5.223 5.355-2.914 0-5.171-2.363-5.171-5.355 0-3.045 2.257-5.382 5.197-5.382 2.887 0 5.197 2.337 5.197 5.382zM357.315 100.157c0-3.648-2.756-6.588-6.3-6.588-2.205 0-4.226 1.102-5.171 2.808v-2.546h-1.26v17.404h1.312v-7.166c.971 1.68 2.993 2.703 5.119 2.703 3.544 0 6.3-2.913 6.3-6.615zm-1.365.027c0 3.045-2.152 5.355-5.066 5.355-2.625 0-4.988-1.733-4.988-5.382 0-3.622 2.363-5.354 4.988-5.354 2.913 0 5.066 2.362 5.066 5.38zM361.042 101.706c0 3.071 2.18 5.066 4.988 5.066 2.782 0 4.961-1.995 4.961-5.066v-7.875h-1.312v7.928c0 2.31-1.575 3.78-3.649 3.78-2.1 0-3.675-1.47-3.675-3.78V93.83h-1.313zm4.463-10.001h1.05l2.966-5.434v-.236h-1.627zM388.421 100.184c0-3.702-2.756-6.615-6.3-6.615-2.179 0-4.147 1.05-5.119 2.73v-9.477h-1.312v19.688h1.26v-2.546c.945 1.706 2.966 2.808 5.171 2.808 3.544 0 6.3-2.94 6.3-6.588zm-1.365-.027c0 3.02-2.152 5.382-5.066 5.382-2.625 0-4.988-1.733-4.988-5.355 0-3.649 2.363-5.382 4.988-5.382 2.914 0 5.066 2.31 5.066 5.355zM392.332 106.51h1.313V86.822h-1.313zM398.527 106.51h1.313V93.831h-1.313zm-.498-17.561c0 .63.499 1.155 1.155 1.155.63 0 1.155-.525 1.155-1.155s-.525-1.155-1.155-1.155c-.657 0-1.155.525-1.155 1.155zM403.751 100.157c-.079 3.597 2.966 6.694 6.536 6.615a6.316 6.316 0 005.145-2.598l-.945-.762c-1.102 1.418-2.493 2.127-4.2 2.127-2.913 0-5.17-2.363-5.17-5.382 0-2.966 2.257-5.355 5.197-5.355 1.706 0 3.097.71 4.173 2.127l.945-.762c-1.18-1.6-2.992-2.598-5.118-2.598-3.597-.079-6.642 2.992-6.563 6.588zM417.979 100.157c-.079 3.597 2.966 6.694 6.536 6.615 3.596.08 6.667-3.018 6.589-6.615 0-3.648-2.94-6.588-6.563-6.588-3.596-.079-6.641 2.94-6.562 6.588zm11.76.027c0 2.992-2.31 5.355-5.224 5.355s-5.171-2.363-5.171-5.355c0-3.045 2.257-5.382 5.197-5.382 2.888 0 5.198 2.337 5.198 5.382z" stroke-width=".02625"/></g><g fill="#fff" stroke="#000"><path d="M1.208 143.517c1.076 1.575 2.756 2.625 4.856 2.625 1.181 0 2.179-.315 2.992-.918.814-.604 1.234-1.47 1.234-2.599 0-1.759-1.155-2.704-3.281-3.649l-1.181-.525c-1.707-.735-2.39-1.207-2.39-2.284 0-1.286 1.103-1.995 2.573-1.995 1.234 0 2.337.552 3.308 1.628l.866-.84c-.945-1.234-2.336-2.021-4.095-2.021-1.129 0-2.074.288-2.861.892-.788.604-1.182 1.391-1.182 2.415 0 1.654 1.13 2.52 3.124 3.386l1.155.5c1.785.813 2.468 1.154 2.599 2.545 0 1.444-1.234 2.232-2.835 2.232s-2.809-.788-3.964-2.258l-.919.866zM13.414 139.528c-.079 3.596 2.966 6.693 6.536 6.615 3.596.078 6.667-3.02 6.589-6.615 0-3.65-2.94-6.59-6.563-6.59-3.596-.078-6.641 2.94-6.562 6.59zm11.76.026c0 2.992-2.31 5.355-5.224 5.355s-5.171-2.363-5.171-5.355c0-3.045 2.257-5.381 5.197-5.381 2.888 0 5.198 2.336 5.198 5.38zM43.181 139.554c0-3.701-2.756-6.615-6.3-6.615-2.178 0-4.147 1.05-5.118 2.73v-9.477H30.45v19.688h1.26v-2.546c.945 1.706 2.966 2.809 5.171 2.809 3.544 0 6.3-2.94 6.3-6.59zm-1.365-.026c0 3.018-2.152 5.38-5.066 5.38-2.625 0-4.987-1.732-4.987-5.354 0-3.649 2.362-5.381 4.987-5.381 2.914 0 5.066 2.31 5.066 5.355zM53.366 133.201c-.131 0-.472-.079-.814-.079-1.758 0-3.28.762-4.2 2.232V133.2h-1.26v12.679h1.313v-7.455c0-2.546 2.126-4.069 4.305-4.069h.656v-1.155zM67.016 139.843c.079-.29.105-.71.105-1.26 0-3.387-2.546-5.644-5.67-5.644-3.491-.079-6.483 3.019-6.405 6.615-.078 3.596 2.967 6.667 6.563 6.589 2.021 0 3.832-.893 5.092-2.363l-.84-.866c-1.129 1.339-2.546 1.995-4.226 1.995-2.861 0-5.066-2.1-5.224-5.066zm-10.552-1.182c.183-1.312.735-2.389 1.653-3.229.92-.866 1.996-1.286 3.282-1.286 2.441 0 4.462 1.759 4.357 4.515zM77.411 139.528c-.079 3.596 2.966 6.693 6.536 6.615a6.316 6.316 0 005.145-2.6l-.945-.76c-1.102 1.417-2.493 2.126-4.2 2.126-2.913 0-5.17-2.363-5.17-5.381 0-2.967 2.257-5.355 5.197-5.355 1.706 0 3.097.708 4.173 2.126l.945-.761c-1.18-1.602-2.992-2.6-5.118-2.6-3.597-.078-6.642 2.993-6.563 6.59zM101.876 137.926c0-3.229-1.89-4.987-4.751-4.987-2.021 0-3.623.866-4.856 2.625l.918.735c1.077-1.392 2.258-2.127 3.86-2.127 2.125 0 3.49 1.287 3.49 3.702v1.443h-4.41c-2.65 0-4.41 1.313-4.41 3.387 0 1.076.42 1.942 1.26 2.546.84.604 1.864.892 3.098.892 1.995 0 3.622-.813 4.541-2.257v1.995h1.26zm-1.339 3.229c0 2.179-1.995 3.832-4.33 3.832-1.707 0-3.125-.813-3.125-2.362 0-1.391 1.103-2.179 3.177-2.179h4.278zM124.609 137.874c0-2.966-1.68-4.935-4.515-4.935-2.022 0-3.544.997-4.384 2.467-.656-1.549-2.021-2.467-3.99-2.467-1.68 0-3.071.682-3.911 1.916v-1.654h-1.26v12.679h1.312v-7.901c0-2.205 1.496-3.807 3.675-3.807 2.1 0 3.386 1.523 3.386 3.807v7.901h1.313v-8.111c0-1.969 1.549-3.597 3.675-3.597 2.1 0 3.36 1.523 3.36 3.807v7.901h1.339v-8.006zM142.012 139.528c0-3.65-2.756-6.59-6.3-6.59-2.205 0-4.226 1.103-5.17 2.81V133.2h-1.26v17.404h1.312v-7.166c.971 1.68 2.992 2.704 5.119 2.704 3.543 0 6.3-2.914 6.3-6.615zm-1.365.026c0 3.045-2.152 5.355-5.066 5.355-2.625 0-4.987-1.733-4.987-5.381 0-3.623 2.362-5.355 4.987-5.355 2.914 0 5.066 2.362 5.066 5.38zM154.927 137.926c0-3.229-1.89-4.987-4.75-4.987-2.022 0-3.623.866-4.857 2.625l.919.735c1.076-1.392 2.257-2.127 3.858-2.127 2.127 0 3.492 1.287 3.492 3.702v1.443h-4.41c-2.652 0-4.41 1.313-4.41 3.387 0 1.076.42 1.942 1.26 2.546.84.604 1.863.892 3.097.892 1.995 0 3.623-.813 4.541-2.257v1.995h1.26zm-1.338 3.229c0 2.179-1.995 3.832-4.332 3.832-1.706 0-3.123-.813-3.123-2.362 0-1.391 1.102-2.179 3.176-2.179h4.279zM169.549 137.874c0-2.94-1.733-4.935-4.647-4.935-1.758 0-3.176.709-4.042 1.969V133.2h-1.26v12.679h1.312v-7.927c0-1.077.342-1.996 1.05-2.704.71-.709 1.628-1.077 2.73-1.077 2.18 0 3.544 1.55 3.544 3.78v7.928h1.313v-8.006zM184.196 137.874c0-2.94-1.759-4.935-4.62-4.935-1.759 0-3.15.735-4.016 1.995v-8.741h-1.313v19.687h1.313v-7.901c0-2.205 1.575-3.807 3.78-3.807 2.179 0 3.544 1.523 3.544 3.807v7.901h1.312v-8.006zM197.899 137.926c0-3.229-1.89-4.987-4.752-4.987-2.02 0-3.622.866-4.856 2.625l.919.735c1.076-1.392 2.257-2.127 3.859-2.127 2.126 0 3.491 1.287 3.491 3.702v1.443h-4.41c-2.651 0-4.41 1.313-4.41 3.387 0 1.076.42 1.942 1.26 2.546.84.604 1.864.892 3.097.892 1.995 0 3.623-.813 4.542-2.257v1.995h1.26zm-1.339 3.229c0 2.179-1.995 3.832-4.331 3.832-1.707 0-3.124-.813-3.124-2.362 0-1.391 1.102-2.179 3.176-2.179h4.279zM201.338 143.517c1.076 1.575 2.756 2.625 4.856 2.625 1.181 0 2.179-.315 2.992-.918.814-.604 1.234-1.47 1.234-2.599 0-1.759-1.155-2.704-3.281-3.649l-1.182-.525c-1.706-.735-2.388-1.207-2.388-2.284 0-1.286 1.102-1.995 2.572-1.995 1.234 0 2.336.552 3.308 1.628l.866-.84c-.945-1.234-2.336-2.021-4.095-2.021-1.129 0-2.074.288-2.861.892-.788.604-1.182 1.391-1.182 2.415 0 1.654 1.13 2.52 3.124 3.386l1.155.5c1.785.813 2.468 1.154 2.599 2.545 0 1.444-1.234 2.232-2.835 2.232s-2.809-.788-3.964-2.258l-.919.866zM220.894 139.528c-.079 3.596 2.966 6.693 6.536 6.615a6.316 6.316 0 005.145-2.6l-.945-.76c-1.103 1.417-2.494 2.126-4.2 2.126-2.914 0-5.171-2.363-5.171-5.381 0-2.967 2.257-5.355 5.197-5.355 1.707 0 3.098.708 4.174 2.126l.945-.761c-1.181-1.602-2.992-2.6-5.119-2.6-3.596-.078-6.641 2.993-6.562 6.59zM235.121 139.528c-.079 3.596 2.966 6.693 6.536 6.615 3.597.078 6.668-3.02 6.59-6.615 0-3.65-2.94-6.59-6.563-6.59-3.597-.078-6.642 2.94-6.563 6.59zm11.76.026c0 2.992-2.31 5.355-5.224 5.355-2.913 0-5.17-2.363-5.17-5.355 0-3.045 2.257-5.381 5.197-5.381 2.887 0 5.197 2.336 5.197 5.38zM262.106 137.874c0-2.94-1.732-4.935-4.646-4.935-1.759 0-3.176.709-4.042 1.969V133.2h-1.26v12.679h1.312v-7.927c0-1.077.341-1.996 1.05-2.704.709-.709 1.627-1.077 2.73-1.077 2.179 0 3.544 1.55 3.544 3.78v7.928h1.312v-8.006zM265.834 139.528c-.079 3.596 2.966 6.693 6.536 6.615a6.316 6.316 0 005.145-2.6l-.945-.76c-1.103 1.417-2.494 2.126-4.2 2.126-2.914 0-5.171-2.363-5.171-5.381 0-2.967 2.257-5.355 5.197-5.355 1.706 0 3.098.708 4.174 2.126l.945-.761c-1.181-1.602-2.992-2.6-5.119-2.6-3.596-.078-6.641 2.993-6.562 6.59zM281.295 145.88h1.313v-19.688h-1.313zM287.306 141.076c0 3.071 2.179 5.066 4.988 5.066 2.782 0 4.961-1.995 4.961-5.066v-7.875h-1.313v7.928c0 2.31-1.575 3.78-3.648 3.78-2.1 0-3.675-1.47-3.675-3.78V133.2h-1.313v7.875zM301.954 145.88h1.312v-12.679h-1.312zm.105-14.805h1.05l2.179-5.434v-.236h-1.628zM318.596 126.192v9.477c-.971-1.68-2.94-2.73-5.119-2.73-3.622 0-6.3 2.914-6.3 6.615 0 3.649 2.757 6.589 6.3 6.589 2.206 0 4.227-1.077 5.172-2.835v2.572h1.26v-19.688zm0 13.362c0 3.622-2.362 5.355-4.987 5.355-2.914 0-5.066-2.363-5.066-5.381 0-3.045 2.152-5.355 5.066-5.355 2.625 0 4.987 1.732 4.987 5.38zM333.795 137.926c0-3.229-1.89-4.987-4.751-4.987-2.022 0-3.623.866-4.857 2.625l.92.735c1.075-1.392 2.257-2.127 3.858-2.127 2.126 0 3.491 1.287 3.491 3.702v1.443h-4.41c-2.651 0-4.41 1.313-4.41 3.387 0 1.076.42 1.942 1.26 2.546.84.604 1.864.892 3.098.892 1.995 0 3.622-.813 4.541-2.257v1.995h1.26zm-1.339 3.229c0 2.179-1.995 3.832-4.331 3.832-1.706 0-3.124-.813-3.124-2.362 0-1.391 1.103-2.179 3.176-2.179h4.28zM337.234 143.517c1.076 1.575 2.756 2.625 4.856 2.625 1.181 0 2.179-.315 2.992-.918.814-.604 1.234-1.47 1.234-2.599 0-1.759-1.155-2.704-3.281-3.649l-1.181-.525c-1.707-.735-2.389-1.207-2.389-2.284 0-1.286 1.102-1.995 2.572-1.995 1.234 0 2.337.552 3.308 1.628l.866-.84c-.945-1.234-2.336-2.021-4.095-2.021-1.129 0-2.074.288-2.861.892-.788.604-1.181 1.391-1.181 2.415 0 1.654 1.128 2.52 3.123 3.386l1.155.5c1.785.813 2.468 1.154 2.6 2.545 0 1.444-1.235 2.232-2.836 2.232-1.601 0-2.809-.788-3.964-2.258l-.918.866zM350.359 144.882c0 .735.604 1.26 1.26 1.26.735 0 1.312-.525 1.312-1.26 0-.813-.577-1.312-1.312-1.312-.709 0-1.26.551-1.26 1.313z" stroke-width=".02625"/></g></svg>