<svg width="699.375" height="204" viewBox="0 0 699.375 204" xmlns="http://www.w3.org/2000/svg"><g fill="#fff" stroke="#000"><path d="M97.024 16.375c-.09 4.207 3.442 7.74 7.605 7.65 4.117.09 7.717-3.442 7.627-7.65.09-4.23-3.51-7.717-7.627-7.65-4.163-.067-7.695 3.42-7.605 7.65zm13.995-.022c.067 3.622-2.835 6.637-6.368 6.57-3.577.045-6.457-2.903-6.39-6.57-.067-3.623 2.813-6.616 6.39-6.548 3.533-.068 6.435 2.925 6.368 6.547zM114.484 21.775c.922 1.35 2.362 2.25 4.162 2.25 1.013 0 1.868-.27 2.565-.787.698-.518 1.058-1.26 1.058-2.228 0-1.507-.99-2.317-2.813-3.127l-1.012-.45c-1.463-.63-2.048-1.035-2.048-1.958 0-1.102.945-1.71 2.205-1.71 1.058 0 2.003.472 2.835 1.395l.743-.72c-.81-1.057-2.003-1.732-3.51-1.732-.968 0-1.778.247-2.453.764-.675.518-1.012 1.193-1.012 2.07 0 1.418.967 2.16 2.677 2.903l.99.427c1.53.698 2.115.99 2.228 2.183 0 1.238-1.058 1.912-2.43 1.912-1.373 0-2.408-.674-3.398-1.934l-.787.742zM132.191 23.8h1.17V8.95h-1.17zM146.051 16.938c0-2.52-1.485-4.23-3.982-4.23-1.508 0-2.723.607-3.465 1.687v-1.462h-1.08V23.8h1.125v-6.795c0-.923.292-1.71.9-2.318.607-.607 1.395-.922 2.34-.922 1.867 0 3.037 1.327 3.037 3.24V23.8h1.125v-6.863zM155.524 22.81c-.563.113-1.08.18-1.508.18-1.462 0-2.362-.63-2.362-2.272v-6.75h3.51v-1.035h-3.51V9.85h-1.148v3.083h-1.89v1.035h1.89v6.795c0 2.25 1.283 3.262 3.33 3.262.563 0 1.125-.067 1.688-.225v-.99zM167.449 18.625c.067-.247.09-.607.09-1.08 0-2.902-2.183-4.837-4.86-4.837-2.993-.068-5.558 2.587-5.49 5.67-.068 3.082 2.542 5.715 5.625 5.647 1.732 0 3.285-.765 4.365-2.025l-.72-.742c-.968 1.147-2.183 1.71-3.623 1.71-2.452 0-4.342-1.8-4.477-4.343zm-9.045-1.012c.157-1.125.63-2.048 1.417-2.768.788-.742 1.71-1.103 2.813-1.103 2.092 0 3.825 1.508 3.735 3.87zM176.269 12.933c-.113 0-.405-.068-.698-.068-1.507 0-2.812.652-3.6 1.912v-1.844h-1.08V23.8h1.125v-6.39c0-2.183 1.823-3.488 3.69-3.488h.563v-.99zM186.259 16.983c0-2.768-1.62-4.275-4.073-4.275-1.732 0-3.105.742-4.162 2.25l.787.63c.923-1.193 1.935-1.823 3.308-1.823 1.822 0 2.992 1.103 2.992 3.173v1.237h-3.78c-2.272 0-3.78 1.125-3.78 2.903 0 .922.36 1.665 1.08 2.182.72.518 1.598.765 2.655.765 1.71 0 3.105-.697 3.893-1.935v1.71h1.08zm-1.148 2.767c0 1.867-1.71 3.285-3.712 3.285-1.463 0-2.678-.698-2.678-2.025 0-1.192.945-1.867 2.723-1.867h3.667zM189.431 18.355c-.067 3.083 2.543 5.737 5.603 5.67a5.414 5.414 0 004.41-2.228l-.81-.652c-.945 1.215-2.138 1.823-3.6 1.823-2.498 0-4.433-2.025-4.433-4.613 0-2.542 1.935-4.59 4.455-4.59 1.463 0 2.655.607 3.578 1.823l.81-.653c-1.013-1.373-2.565-2.228-4.388-2.228-3.082-.067-5.692 2.565-5.625 5.648zM208.129 22.81c-.563.113-1.08.18-1.508.18-1.462 0-2.362-.63-2.362-2.272v-6.75h3.51v-1.035h-3.51V9.85h-1.148v3.083h-1.89v1.035h1.89v6.795c0 2.25 1.283 3.262 3.33 3.262.563 0 1.125-.067 1.688-.225v-.99zM210.851 23.8h1.125V12.933h-1.125zm-.427-15.053c0 .54.427.99.99.99.54 0 .99-.45.99-.99s-.45-.99-.99-.99c-.563 0-.99.45-.99.99zM223.991 12.933l-3.982 9.157-4.005-9.157h-1.215l4.995 11.092h.472l4.95-11.092zM236.996 18.625c.068-.247.09-.607.09-1.08 0-2.902-2.182-4.837-4.86-4.837-2.992-.068-5.557 2.587-5.49 5.67-.067 3.082 2.543 5.715 5.625 5.647 1.733 0 3.285-.765 4.365-2.025l-.72-.742c-.967 1.147-2.182 1.71-3.622 1.71-2.453 0-4.343-1.8-4.478-4.343zm-9.045-1.012c.158-1.125.63-2.048 1.418-2.768.787-.742 1.71-1.103 2.812-1.103 2.093 0 3.825 1.508 3.735 3.87zM256.346 23.8h1.238l-6.345-15.075h-.473L244.4 23.8h1.215l1.462-3.532h7.808zm-5.355-12.982l3.443 8.392h-6.908zM269.216 6.925v8.123c-.832-1.44-2.52-2.34-4.387-2.34-3.105 0-5.4 2.497-5.4 5.67 0 3.127 2.362 5.647 5.4 5.647 1.89 0 3.622-.922 4.432-2.43V23.8h1.08V6.925zm0 11.453c0 3.104-2.025 4.59-4.275 4.59-2.497 0-4.342-2.026-4.342-4.613 0-2.61 1.845-4.59 4.342-4.59 2.25 0 4.275 1.485 4.275 4.612zM273.469 21.775c.922 1.35 2.362 2.25 4.162 2.25 1.013 0 1.868-.27 2.565-.787.698-.518 1.058-1.26 1.058-2.228 0-1.507-.99-2.317-2.813-3.127l-1.012-.45c-1.463-.63-2.048-1.035-2.048-1.958 0-1.102.945-1.71 2.205-1.71 1.058 0 2.003.472 2.835 1.395l.743-.72c-.81-1.057-2.003-1.732-3.51-1.732-.968 0-1.778.247-2.453.764-.675.518-1.012 1.193-1.012 2.07 0 1.418.967 2.16 2.677 2.903l.99.427c1.53.698 2.115.99 2.228 2.183 0 1.238-1.058 1.912-2.43 1.912-1.373 0-2.408-.674-3.398-1.934l-.787.742zM296.509 22.81c-.563.113-1.08.18-1.508.18-1.462 0-2.362-.63-2.362-2.272v-6.75h3.51v-1.035h-3.51V9.85h-1.148v3.083h-1.89v1.035h1.89v6.795c0 2.25 1.283 3.262 3.33 3.262.563 0 1.125-.067 1.688-.225v-.99zM306.949 16.983c0-2.768-1.62-4.275-4.073-4.275-1.732 0-3.105.742-4.162 2.25l.787.63c.923-1.193 1.935-1.823 3.308-1.823 1.822 0 2.992 1.103 2.992 3.173v1.237h-3.78c-2.272 0-3.78 1.125-3.78 2.903 0 .922.36 1.665 1.08 2.182.72.518 1.598.765 2.655.765 1.71 0 3.105-.697 3.893-1.935v1.71h1.08zM305.8 19.75c0 1.867-1.71 3.285-3.712 3.285-1.463 0-2.678-.698-2.678-2.025 0-1.192.945-1.867 2.723-1.867h3.667zM326.434 16.938c0-2.543-1.44-4.23-3.87-4.23-1.733 0-3.038.854-3.758 2.114-.562-1.327-1.732-2.114-3.42-2.114-1.44 0-2.632.584-3.352 1.642v-1.417h-1.08V23.8h1.125v-6.773c0-1.89 1.282-3.262 3.15-3.262 1.8 0 2.902 1.305 2.902 3.262V23.8h1.125v-6.953c0-1.687 1.328-3.082 3.15-3.082 1.8 0 2.88 1.305 2.88 3.262V23.8h1.148v-6.863zM341.351 18.378c0-3.173-2.362-5.67-5.4-5.67-1.867 0-3.555.9-4.387 2.34V6.925h-1.125V23.8h1.08v-2.183c.81 1.463 2.542 2.408 4.432 2.408 3.038 0 5.4-2.52 5.4-5.647zm-1.17-.023c0 2.587-1.845 4.612-4.342 4.612-2.25 0-4.275-1.484-4.275-4.59 0-3.127 2.025-4.612 4.275-4.612 2.497 0 4.342 1.98 4.342 4.59zM354.131 18.625c.068-.247.09-.607.09-1.08 0-2.902-2.182-4.837-4.86-4.837-2.992-.068-5.557 2.587-5.49 5.67-.067 3.082 2.543 5.715 5.625 5.647 1.733 0 3.285-.765 4.365-2.025l-.72-.742c-.967 1.147-2.182 1.71-3.622 1.71-2.453 0-4.343-1.8-4.478-4.343zm-9.045-1.012c.158-1.125.63-2.048 1.418-2.768.787-.742 1.71-1.103 2.812-1.103 2.093 0 3.825 1.508 3.735 3.87zm3.69-6.503h.9l2.543-4.657V6.25h-1.395zM373.054 16.938c0-2.543-1.44-4.23-3.87-4.23-1.733 0-3.038.854-3.758 2.114-.562-1.327-1.732-2.114-3.42-2.114-1.44 0-2.632.584-3.352 1.642v-1.417h-1.08V23.8h1.125v-6.773c0-1.89 1.282-3.262 3.15-3.262 1.8 0 2.902 1.305 2.902 3.262V23.8h1.125v-6.953c0-1.687 1.328-3.082 3.15-3.082 1.8 0 2.88 1.305 2.88 3.262V23.8h1.148v-6.863zM394.271 18.355c0-3.127-2.362-5.647-5.4-5.647-1.89 0-3.622.944-4.432 2.407v-2.183h-1.08V27.85h1.125v-6.143c.832 1.44 2.565 2.318 4.387 2.318 3.038 0 5.4-2.498 5.4-5.67zm-1.17.022c0 2.61-1.845 4.59-4.342 4.59-2.25 0-4.275-1.484-4.275-4.612 0-3.105 2.025-4.59 4.275-4.59 2.497 0 4.342 2.025 4.342 4.612zM396.791 18.355c-.067 3.083 2.543 5.737 5.603 5.67 3.082.068 5.715-2.587 5.647-5.67 0-3.128-2.52-5.648-5.625-5.648-3.082-.067-5.692 2.52-5.625 5.648zm10.08.022c0 2.566-1.98 4.59-4.477 4.59-2.498 0-4.433-2.024-4.433-4.59 0-2.61 1.935-4.612 4.455-4.612 2.475 0 4.455 2.002 4.455 4.612zM420.349 6.925v8.123c-.833-1.44-2.52-2.34-4.388-2.34-3.105 0-5.4 2.497-5.4 5.67 0 3.127 2.363 5.647 5.4 5.647 1.89 0 3.623-.922 4.433-2.43V23.8h1.08V6.925zm0 11.453c0 3.104-2.025 4.59-4.275 4.59-2.498 0-4.343-2.026-4.343-4.613 0-2.61 1.845-4.59 4.343-4.59 2.25 0 4.275 1.485 4.275 4.612zM435.086 18.625c.068-.247.09-.607.09-1.08 0-2.902-2.182-4.837-4.86-4.837-2.992-.068-5.557 2.587-5.49 5.67-.067 3.082 2.543 5.715 5.625 5.647 1.733 0 3.285-.765 4.365-2.025l-.72-.742c-.967 1.147-2.182 1.71-3.622 1.71-2.453 0-4.343-1.8-4.478-4.343zm-9.045-1.012c.158-1.125.63-2.048 1.418-2.768.787-.742 1.71-1.103 2.812-1.103 2.093 0 3.825 1.508 3.735 3.87zM454.009 16.938c0-2.543-1.44-4.23-3.87-4.23-1.733 0-3.038.854-3.758 2.114-.562-1.327-1.732-2.114-3.42-2.114-1.44 0-2.632.584-3.352 1.642v-1.417h-1.08V23.8h1.125v-6.773c0-1.89 1.282-3.262 3.15-3.262 1.8 0 2.902 1.305 2.902 3.262V23.8h1.125v-6.953c0-1.687 1.328-3.082 3.15-3.082 1.8 0 2.88 1.305 2.88 3.262V23.8h1.148v-6.863zM475.226 18.355c0-3.127-2.362-5.647-5.4-5.647-1.89 0-3.622.944-4.432 2.407v-2.183h-1.08V27.85h1.125v-6.143c.832 1.44 2.565 2.318 4.387 2.318 3.038 0 5.4-2.498 5.4-5.67zm-1.17.022c0 2.61-1.845 4.59-4.342 4.59-2.25 0-4.275-1.484-4.275-4.612 0-3.105 2.025-4.59 4.275-4.59 2.497 0 4.342 2.025 4.342 4.612zM483.956 12.933c-.112 0-.405-.068-.697-.068-1.508 0-2.813.652-3.6 1.912v-1.844h-1.08V23.8h1.125v-6.39c0-2.183 1.822-3.488 3.69-3.488h.562v-.99zM485.396 18.355c-.067 3.083 2.543 5.737 5.603 5.67 3.082.068 5.715-2.587 5.647-5.67 0-3.128-2.52-5.648-5.625-5.648-3.082-.067-5.692 2.52-5.625 5.648zm10.08.022c0 2.566-1.98 4.59-4.477 4.59-2.498 0-4.433-2.024-4.433-4.59 0-2.61 1.935-4.612 4.455-4.612 2.475 0 4.455 2.002 4.455 4.612zM510.911 18.355c0-3.127-2.362-5.647-5.4-5.647-1.89 0-3.622.944-4.432 2.407v-2.183h-1.08V27.85h1.125v-6.143c.832 1.44 2.565 2.318 4.387 2.318 3.038 0 5.4-2.498 5.4-5.67zm-1.17.022c0 2.61-1.845 4.59-4.342 4.59-2.25 0-4.275-1.484-4.275-4.612 0-3.105 2.025-4.59 4.275-4.59 2.497 0 4.342 2.025 4.342 4.612zM513.431 18.355c-.067 3.083 2.543 5.737 5.603 5.67 3.082.068 5.715-2.587 5.647-5.67 0-3.128-2.52-5.648-5.625-5.648-3.082-.067-5.692 2.52-5.625 5.648zm10.08.022c0 2.566-1.98 4.59-4.477 4.59-2.498 0-4.433-2.024-4.433-4.59 0-2.61 1.935-4.612 4.455-4.612 2.475 0 4.455 2.002 4.455 4.612zM533.411 12.933c-.112 0-.405-.068-.697-.068-1.508 0-2.813.652-3.6 1.912v-1.844h-1.08V23.8h1.125v-6.39c0-2.183 1.822-3.488 3.69-3.488h.562v-.99zM534.851 18.355c-.067 3.083 2.543 5.737 5.603 5.67a5.414 5.414 0 004.41-2.228l-.81-.652c-.945 1.215-2.138 1.823-3.6 1.823-2.498 0-4.433-2.025-4.433-4.613 0-2.542 1.935-4.59 4.455-4.59 1.463 0 2.655.607 3.578 1.823l.81-.653c-1.013-1.373-2.565-2.228-4.388-2.228-3.082-.067-5.692 2.565-5.625 5.648zM548.104 23.8h1.125V12.933h-1.125zm-.428-15.053c0 .54.428.99.99.99.54 0 .99-.45.99-.99s-.45-.99-.99-.99c-.562 0-.99.45-.99.99zM552.581 18.355c-.067 3.083 2.543 5.737 5.603 5.67 3.082.068 5.715-2.587 5.647-5.67 0-3.128-2.52-5.648-5.625-5.648-3.082-.067-5.692 2.52-5.625 5.648zm10.08.022c0 2.566-1.98 4.59-4.477 4.59-2.498 0-4.433-2.024-4.433-4.59 0-2.61 1.935-4.612 4.455-4.612 2.475 0 4.455 2.002 4.455 4.612zM575.711 16.938c0-2.52-1.485-4.23-3.982-4.23-1.508 0-2.723.607-3.465 1.687v-1.462h-1.08V23.8h1.125v-6.795c0-.923.292-1.71.9-2.318.607-.607 1.395-.922 2.34-.922 1.867 0 3.037 1.327 3.037 3.24V23.8h1.125v-6.863zM587.456 16.983c0-2.768-1.62-4.275-4.072-4.275-1.733 0-3.105.742-4.163 2.25l.788.63c.922-1.193 1.935-1.823 3.307-1.823 1.823 0 2.993 1.103 2.993 3.173v1.237h-3.78c-2.273 0-3.78 1.125-3.78 2.903 0 .922.36 1.665 1.08 2.182.72.518 1.597.765 2.655.765 1.71 0 3.105-.697 3.892-1.935v1.71h1.08zm-1.147 2.767c0 1.867-1.71 3.285-3.713 3.285-1.462 0-2.677-.698-2.677-2.025 0-1.192.945-1.867 2.722-1.867h3.668zM596.839 12.933c-.113 0-.405-.068-.698-.068-1.507 0-2.812.652-3.6 1.912v-1.844h-1.08V23.8h1.125v-6.39c0-2.183 1.823-3.488 3.69-3.488h.563v-.99z" stroke-width=".0225"/></g><g fill="#fff" stroke="#000"><path d="M168.09 52.375c.067-.247.09-.607.09-1.08 0-2.902-2.183-4.837-4.86-4.837-2.992-.068-5.558 2.587-5.49 5.67-.068 3.082 2.542 5.715 5.625 5.647 1.732 0 3.285-.765 4.365-2.025l-.72-.742c-.967 1.147-2.183 1.71-3.623 1.71-2.452 0-4.342-1.8-4.477-4.343zm-9.045-1.012c.158-1.126.63-2.048 1.417-2.768.788-.742 1.71-1.103 2.813-1.103 2.092 0 3.825 1.508 3.735 3.87zM179.43 57.55l-4.163-5.67 3.825-5.198h-1.35l-3.15 4.365-3.105-4.364h-1.35l3.78 5.152-4.117 5.715h1.35l3.465-4.86 3.465 4.86zM193.02 52.105c0-3.127-2.363-5.647-5.4-5.647-1.89 0-3.623.944-4.433 2.407v-2.183h-1.08V61.6h1.125v-6.143c.833 1.44 2.565 2.318 4.388 2.318 3.037 0 5.4-2.498 5.4-5.67zm-1.17.022c0 2.61-1.845 4.59-4.343 4.59-2.25 0-4.275-1.484-4.275-4.612 0-3.105 2.025-4.59 4.275-4.59 2.498 0 4.343 2.025 4.343 4.612zM205.8 52.375c.067-.247.09-.607.09-1.08 0-2.902-2.183-4.837-4.86-4.837-2.993-.068-5.558 2.587-5.49 5.67-.068 3.082 2.542 5.715 5.625 5.647 1.732 0 3.285-.765 4.365-2.025l-.72-.742c-.968 1.147-2.183 1.71-3.623 1.71-2.452 0-4.342-1.8-4.477-4.343zm-9.045-1.012c.158-1.126.63-2.048 1.417-2.768.788-.742 1.71-1.103 2.813-1.103 2.092 0 3.825 1.508 3.735 3.87zM214.62 46.682c-.113 0-.405-.067-.698-.067-1.507 0-2.812.652-3.6 1.912v-1.845h-1.08V57.55h1.125v-6.39c0-2.183 1.823-3.487 3.69-3.487h.563v-.99zM217.117 57.55h1.125V46.683h-1.125zm-.427-15.053c0 .54.427.99.99.99.54 0 .99-.45.99-.99s-.45-.99-.99-.99c-.563 0-.99.45-.99.99zM231.855 52.375c.068-.247.09-.607.09-1.08 0-2.902-2.183-4.837-4.86-4.837-2.993-.068-5.558 2.587-5.49 5.67-.068 3.082 2.542 5.715 5.625 5.647 1.732 0 3.285-.765 4.365-2.025l-.72-.742c-.968 1.147-2.183 1.71-3.623 1.71-2.452 0-4.342-1.8-4.477-4.343zm-9.045-1.012c.158-1.126.63-2.048 1.417-2.768.788-.742 1.71-1.103 2.813-1.103 2.092 0 3.825 1.508 3.735 3.87zm7.515-6.503L227.287 40h-.675l-3.06 4.86h.945l2.453-3.42 2.452 3.42zM243.825 50.688c0-2.52-1.485-4.23-3.982-4.23-1.508 0-2.723.607-3.465 1.687v-1.462h-1.08V57.55h1.124v-6.795c0-.922.293-1.71.9-2.317.608-.608 1.395-.923 2.34-.923 1.868 0 3.038 1.327 3.038 3.24v6.795h1.125v-6.862zM247.02 52.105c-.068 3.083 2.542 5.737 5.602 5.67a5.414 5.414 0 004.41-2.228l-.81-.652c-.945 1.215-2.137 1.822-3.6 1.822-2.497 0-4.432-2.025-4.432-4.612 0-2.542 1.935-4.59 4.455-4.59 1.462 0 2.655.607 3.577 1.823l.81-.653c-1.012-1.373-2.565-2.228-4.387-2.228-3.083-.067-5.693 2.565-5.625 5.648zM260.272 57.55h1.125V46.683h-1.125zm-.427-15.053c0 .54.427.99.99.99.54 0 .99-.45.99-.99s-.45-.99-.99-.99c-.563 0-.99.45-.99.99zM273.3 50.732c0-2.767-1.62-4.275-4.072-4.275-1.733 0-3.105.743-4.163 2.25l.787.63c.923-1.192 1.936-1.822 3.308-1.822 1.823 0 2.992 1.103 2.992 3.172v1.238h-3.78c-2.272 0-3.78 1.125-3.78 2.902 0 .923.36 1.666 1.08 2.183.72.517 1.598.765 2.656.765 1.71 0 3.105-.698 3.892-1.935v1.71h1.08zm-1.147 2.768c0 1.867-1.71 3.285-3.713 3.285-1.462 0-2.677-.698-2.677-2.025 0-1.193.945-1.868 2.722-1.868h3.668zM276.248 55.525c.922 1.35 2.362 2.25 4.162 2.25 1.013 0 1.868-.27 2.565-.787.698-.518 1.058-1.26 1.058-2.228 0-1.507-.99-2.317-2.813-3.127l-1.012-.45c-1.463-.63-2.048-1.036-2.048-1.958 0-1.103.945-1.71 2.205-1.71 1.058 0 2.003.472 2.835 1.395l.743-.72c-.81-1.057-2.003-1.732-3.51-1.732-.968 0-1.778.247-2.453.764-.675.518-1.012 1.193-1.012 2.07 0 1.418.967 2.16 2.677 2.903l.99.427c1.53.698 2.115.99 2.228 2.183 0 1.237-1.058 1.912-2.43 1.912-1.373 0-2.408-.675-3.398-1.935l-.787.743zM302.798 40.675v8.123c-.833-1.44-2.52-2.34-4.388-2.34-3.105 0-5.4 2.497-5.4 5.67 0 3.127 2.363 5.647 5.4 5.647 1.89 0 3.623-.922 4.433-2.43v2.205h1.08V40.675zm0 11.452c0 3.105-2.025 4.59-4.275 4.59-2.498 0-4.343-2.024-4.343-4.612 0-2.61 1.845-4.59 4.343-4.59 2.25 0 4.275 1.485 4.275 4.612zM317.535 52.375c.068-.247.09-.607.09-1.08 0-2.902-2.183-4.837-4.86-4.837-2.992-.068-5.558 2.587-5.49 5.67-.068 3.082 2.542 5.715 5.625 5.647 1.732 0 3.285-.765 4.365-2.025l-.72-.742c-.968 1.147-2.183 1.71-3.623 1.71-2.452 0-4.342-1.8-4.477-4.343zm-9.045-1.012c.158-1.126.63-2.048 1.417-2.768.788-.742 1.71-1.103 2.813-1.103 2.092 0 3.825 1.508 3.735 3.87zM336.705 52.375c.068-.247.09-.607.09-1.08 0-2.902-2.183-4.837-4.86-4.837-2.992-.068-5.558 2.587-5.49 5.67-.068 3.082 2.542 5.715 5.625 5.647 1.732 0 3.285-.765 4.365-2.025l-.72-.742c-.967 1.147-2.183 1.71-3.623 1.71-2.452 0-4.342-1.8-4.477-4.343zm-9.045-1.012c.158-1.126.63-2.048 1.417-2.768.788-.742 1.71-1.103 2.813-1.103 2.093 0 3.825 1.508 3.735 3.87zM348.675 50.688c0-2.52-1.485-4.23-3.982-4.23-1.508 0-2.723.607-3.465 1.687v-1.462h-1.08V57.55h1.125v-6.795c0-.922.292-1.71.9-2.317.607-.608 1.395-.923 2.34-.923 1.867 0 3.037 1.327 3.037 3.24v6.795h1.125v-6.862zM358.148 56.56c-.563.112-1.08.18-1.508.18-1.462 0-2.362-.63-2.362-2.273v-6.75h3.51v-1.035h-3.51V43.6h-1.148v3.082h-1.89v1.035h1.89v6.795c0 2.25 1.283 3.263 3.33 3.263.563 0 1.125-.068 1.688-.225v-.99zM366.248 46.682c-.113 0-.405-.067-.698-.067-1.507 0-2.812.652-3.6 1.912v-1.845h-1.08V57.55h1.125v-6.39c0-2.183 1.823-3.487 3.69-3.487h.563v-.99zM377.948 52.375c.067-.247.09-.607.09-1.08 0-2.902-2.183-4.837-4.86-4.837-2.993-.068-5.558 2.587-5.49 5.67-.068 3.082 2.542 5.715 5.625 5.647 1.732 0 3.285-.765 4.365-2.025l-.72-.742c-.968 1.147-2.183 1.71-3.623 1.71-2.453 0-4.343-1.8-4.478-4.343zm-9.045-1.012c.157-1.126.63-2.048 1.417-2.768.788-.742 1.71-1.103 2.813-1.103 2.092 0 3.825 1.508 3.735 3.87zM386.835 56.56c-.562.112-1.08.18-1.507.18-1.463 0-2.363-.63-2.363-2.273v-6.75h3.51v-1.035h-3.51V43.6h-1.147v3.082h-1.89v1.035h1.89v6.795c0 2.25 1.282 3.263 3.33 3.263.562 0 1.125-.068 1.687-.225v-.99zM398.76 52.375c.068-.247.09-.607.09-1.08 0-2.902-2.183-4.837-4.86-4.837-2.992-.068-5.558 2.587-5.49 5.67-.068 3.082 2.542 5.715 5.625 5.647 1.732 0 3.285-.765 4.365-2.025l-.72-.742c-.967 1.147-2.183 1.71-3.623 1.71-2.452 0-4.342-1.8-4.477-4.343zm-9.045-1.012c.158-1.126.63-2.048 1.418-2.768.787-.742 1.71-1.103 2.812-1.103 2.093 0 3.825 1.508 3.735 3.87zM410.73 50.688c0-2.52-1.485-4.23-3.982-4.23-1.508 0-2.723.607-3.465 1.687v-1.462h-1.08V57.55h1.125v-6.795c0-.922.292-1.71.9-2.317.607-.608 1.395-.923 2.34-.923 1.867 0 3.037 1.327 3.037 3.24v6.795h1.125v-6.862zM414.758 57.55h1.125V46.683h-1.125zm-.428-15.053c0 .54.428.99.99.99.54 0 .99-.45.99-.99s-.45-.99-.99-.99c-.562 0-.99.45-.99.99zM435.548 50.688c0-2.543-1.44-4.23-3.87-4.23-1.733 0-3.038.855-3.758 2.115-.562-1.328-1.732-2.115-3.42-2.115-1.44 0-2.632.585-3.352 1.642v-1.417h-1.08V57.55h1.125v-6.772c0-1.89 1.282-3.263 3.15-3.263 1.8 0 2.902 1.305 2.902 3.262v6.773h1.125v-6.952c0-1.688 1.327-3.083 3.15-3.083 1.8 0 2.88 1.305 2.88 3.262v6.773h1.147v-6.862zM448.98 52.375c.068-.247.09-.607.09-1.08 0-2.902-2.182-4.837-4.86-4.837-2.992-.068-5.557 2.587-5.49 5.67-.068 3.082 2.542 5.715 5.625 5.647 1.732 0 3.285-.765 4.365-2.025l-.72-.742c-.967 1.147-2.183 1.71-3.623 1.71-2.452 0-4.342-1.8-4.477-4.343zm-9.045-1.012c.158-1.126.63-2.048 1.418-2.768.787-.742 1.71-1.103 2.812-1.103 2.093 0 3.825 1.508 3.735 3.87zM460.95 50.688c0-2.52-1.485-4.23-3.982-4.23-1.508 0-2.723.607-3.465 1.687v-1.462h-1.08V57.55h1.125v-6.795c0-.922.292-1.71.9-2.317.607-.608 1.395-.923 2.34-.923 1.867 0 3.037 1.327 3.037 3.24v6.795h1.125v-6.862zM470.423 56.56c-.563.112-1.08.18-1.508.18-1.462 0-2.362-.63-2.362-2.273v-6.75h3.51v-1.035h-3.51V43.6h-1.148v3.082h-1.89v1.035h1.89v6.795c0 2.25 1.283 3.263 3.33 3.263.563 0 1.125-.068 1.688-.225v-.99zM472.088 52.105c-.068 3.083 2.542 5.737 5.602 5.67 3.083.068 5.715-2.587 5.648-5.67 0-3.127-2.52-5.647-5.625-5.647-3.083-.068-5.693 2.52-5.625 5.647zm10.08.022c0 2.565-1.98 4.59-4.478 4.59-2.497 0-4.432-2.024-4.432-4.59 0-2.61 1.935-4.612 4.455-4.612 2.475 0 4.455 2.002 4.455 4.612zM486.623 61.6h.967l.81-5.738h-1.395zM508.065 46.682v2.205c-.81-1.507-2.542-2.43-4.432-2.43-3.038 0-5.4 2.52-5.4 5.648 0 3.172 2.295 5.67 5.4 5.67 1.822 0 3.555-.877 4.387-2.317V61.6h1.125V46.682zm-.045 5.423c0 3.127-2.025 4.612-4.275 4.612-2.497 0-4.342-1.98-4.342-4.59 0-2.587 1.845-4.612 4.342-4.612 2.25 0 4.275 1.485 4.275 4.59zM513.173 53.432c0 2.633 1.867 4.343 4.275 4.343 2.385 0 4.252-1.71 4.252-4.343v-6.75h-1.125v6.795c0 1.98-1.35 3.24-3.127 3.24-1.8 0-3.15-1.26-3.15-3.24v-6.794h-1.125v6.75zM535.155 52.375c.068-.247.09-.607.09-1.08 0-2.902-2.182-4.837-4.86-4.837-2.992-.068-5.557 2.587-5.49 5.67-.067 3.082 2.543 5.715 5.625 5.647 1.733 0 3.285-.765 4.365-2.025l-.72-.742c-.967 1.147-2.182 1.71-3.622 1.71-2.453 0-4.343-1.8-4.478-4.343zm-9.045-1.012c.158-1.126.63-2.048 1.418-2.768.787-.742 1.71-1.103 2.812-1.103 2.093 0 3.825 1.508 3.735 3.87z" stroke-width=".0225"/></g><g fill="#fff" stroke="#000"><path d="M188.981 85.855c0-3.127-2.362-5.647-5.4-5.647-1.89 0-3.622.945-4.432 2.407v-2.182h-1.08V95.35h1.125v-6.142c.832 1.44 2.565 2.317 4.387 2.317 3.038 0 5.4-2.498 5.4-5.67zm-1.17.022c0 2.61-1.845 4.59-4.342 4.59-2.25 0-4.275-1.484-4.275-4.612 0-3.105 2.025-4.59 4.275-4.59 2.497 0 4.342 2.025 4.342 4.612zM197.711 80.433c-.112 0-.405-.068-.697-.068-1.508 0-2.813.653-3.6 1.913v-1.846h-1.08V91.3h1.125v-6.39c0-2.182 1.822-3.487 3.69-3.487h.562v-.99zM199.151 85.855c-.067 3.083 2.543 5.737 5.603 5.67 3.082.068 5.715-2.587 5.647-5.67 0-3.127-2.52-5.647-5.625-5.647-3.082-.068-5.692 2.52-5.625 5.647zm10.08.022c0 2.566-1.98 4.59-4.477 4.59-2.498 0-4.433-2.024-4.433-4.59 0-2.61 1.935-4.612 4.455-4.612 2.475 0 4.455 2.002 4.455 4.612zM229.234 84.438c0-2.543-1.44-4.23-3.87-4.23-1.733 0-3.038.854-3.758 2.114-.562-1.327-1.732-2.115-3.42-2.115-1.44 0-2.632.586-3.352 1.643v-1.417h-1.08V91.3h1.125v-6.773c0-1.89 1.282-3.262 3.15-3.262 1.8 0 2.902 1.305 2.902 3.262V91.3h1.125v-6.953c0-1.687 1.328-3.082 3.15-3.082 1.8 0 2.88 1.305 2.88 3.262V91.3h1.148v-6.863zM232.406 85.855c-.067 3.083 2.543 5.737 5.603 5.67 3.082.068 5.715-2.587 5.647-5.67 0-3.127-2.52-5.647-5.625-5.647-3.082-.068-5.692 2.52-5.625 5.647zm10.08.022c0 2.566-1.98 4.59-4.477 4.59-2.498 0-4.433-2.024-4.433-4.59 0-2.61 1.935-4.612 4.455-4.612 2.475 0 4.455 2.002 4.455 4.612zM254.389 80.433l-3.983 9.157-4.005-9.157h-1.215l4.995 11.092h.473l4.95-11.092zM265.684 84.483c0-2.768-1.62-4.276-4.073-4.276-1.732 0-3.105.743-4.162 2.25l.787.63c.923-1.192 1.935-1.822 3.308-1.822 1.822 0 2.992 1.102 2.992 3.172v1.238h-3.78c-2.272 0-3.78 1.125-3.78 2.902 0 .923.36 1.665 1.08 2.183.72.517 1.598.765 2.655.765 1.71 0 3.105-.698 3.893-1.935v1.71h1.08zm-1.148 2.767c0 1.867-1.71 3.285-3.712 3.285-1.463 0-2.678-.698-2.678-2.025 0-1.193.945-1.868 2.723-1.868h3.667zM285.169 84.438c0-2.543-1.44-4.23-3.87-4.23-1.733 0-3.038.854-3.758 2.114-.562-1.327-1.732-2.115-3.42-2.115-1.44 0-2.632.586-3.352 1.643v-1.417h-1.08V91.3h1.125v-6.773c0-1.89 1.282-3.262 3.15-3.262 1.8 0 2.902 1.305 2.902 3.262V91.3h1.125v-6.953c0-1.687 1.328-3.082 3.15-3.082 1.8 0 2.88 1.305 2.88 3.262V91.3h1.148v-6.863zM306.386 85.855c0-3.127-2.362-5.647-5.4-5.647-1.89 0-3.622.945-4.432 2.407v-2.182h-1.08V95.35h1.125v-6.142c.832 1.44 2.565 2.317 4.387 2.317 3.038 0 5.4-2.498 5.4-5.67zm-1.17.022c0 2.61-1.845 4.59-4.342 4.59-2.25 0-4.275-1.484-4.275-4.612 0-3.105 2.025-4.59 4.275-4.59 2.497 0 4.342 2.025 4.342 4.612zM315.116 80.433c-.112 0-.405-.068-.697-.068-1.508 0-2.813.653-3.6 1.913v-1.846h-1.08V91.3h1.125v-6.39c0-2.182 1.822-3.487 3.69-3.487h.562v-.99zM316.556 85.855c-.067 3.083 2.543 5.737 5.603 5.67 3.082.068 5.715-2.587 5.647-5.67 0-3.127-2.52-5.647-5.625-5.647-3.082-.068-5.692 2.52-5.625 5.647zm10.08.022c0 2.566-1.98 4.59-4.477 4.59-2.498 0-4.433-2.024-4.433-4.59 0-2.61 1.935-4.612 4.455-4.612 2.475 0 4.455 2.002 4.455 4.612zM340.114 74.425v8.123c-.833-1.44-2.52-2.34-4.388-2.34-3.105 0-5.4 2.497-5.4 5.67 0 3.127 2.363 5.647 5.4 5.647 1.89 0 3.623-.923 4.433-2.43V91.3h1.08V74.425zm0 11.452c0 3.106-2.025 4.59-4.275 4.59-2.498 0-4.343-2.024-4.343-4.612 0-2.61 1.845-4.59 4.343-4.59 2.25 0 4.275 1.485 4.275 4.612zM345.266 87.183c0 2.632 1.868 4.342 4.275 4.342 2.385 0 4.253-1.71 4.253-4.343v-6.75h-1.125v6.796c0 1.98-1.35 3.24-3.128 3.24-1.8 0-3.15-1.26-3.15-3.24v-6.795h-1.125v6.75zM363.266 90.31c-.562.112-1.08.18-1.507.18-1.463 0-2.363-.63-2.363-2.272v-6.75h3.51v-1.035h-3.51V77.35h-1.147v3.083h-1.89v1.035h1.89v6.795c0 2.25 1.282 3.262 3.33 3.262.562 0 1.125-.067 1.687-.225v-.99zM364.931 85.855c-.067 3.083 2.543 5.737 5.603 5.67 3.082.068 5.715-2.587 5.647-5.67 0-3.127-2.52-5.647-5.625-5.647-3.082-.068-5.692 2.52-5.625 5.647zm10.08.022c0 2.566-1.98 4.59-4.477 4.59-2.498 0-4.433-2.024-4.433-4.59 0-2.61 1.935-4.612 4.455-4.612 2.475 0 4.455 2.002 4.455 4.612zM378.476 89.275c.923 1.35 2.363 2.25 4.163 2.25 1.012 0 1.867-.27 2.565-.788.697-.517 1.057-1.26 1.057-2.227 0-1.508-.99-2.318-2.812-3.128l-1.013-.45c-1.462-.63-2.047-1.035-2.047-1.957 0-1.103.945-1.71 2.205-1.71 1.057 0 2.002.472 2.835 1.395l.742-.72c-.81-1.057-2.002-1.732-3.51-1.732-.967 0-1.777.247-2.452.764-.675.518-1.013 1.193-1.013 2.07 0 1.418.968 2.16 2.678 2.903l.99.427c1.53.698 2.115.99 2.227 2.183 0 1.237-1.057 1.912-2.43 1.912-1.372 0-2.407-.675-3.397-1.935l-.788.743zM395.239 85.855c-.068 3.083 2.542 5.737 5.602 5.67 3.083.068 5.715-2.587 5.648-5.67 0-3.127-2.52-5.647-5.625-5.647-3.083-.068-5.693 2.52-5.625 5.647zm10.08.022c0 2.566-1.98 4.59-4.478 4.59-2.497 0-4.432-2.024-4.432-4.59 0-2.61 1.935-4.612 4.455-4.612 2.475 0 4.455 2.002 4.455 4.612zM409.684 87.183c0 2.632 1.867 4.342 4.275 4.342 2.385 0 4.252-1.71 4.252-4.343v-6.75h-1.125v6.796c0 1.98-1.35 3.24-3.127 3.24-1.8 0-3.15-1.26-3.15-3.24v-6.795h-1.125v6.75zM427.481 89.275c.923 1.35 2.363 2.25 4.163 2.25 1.012 0 1.867-.27 2.565-.788.697-.517 1.057-1.26 1.057-2.227 0-1.508-.99-2.318-2.812-3.128l-1.013-.45c-1.462-.63-2.047-1.035-2.047-1.957 0-1.103.945-1.71 2.205-1.71 1.057 0 2.002.472 2.835 1.395l.742-.72c-.81-1.057-2.002-1.732-3.51-1.732-.967 0-1.777.247-2.452.764-.675.518-1.013 1.193-1.013 2.07 0 1.418.968 2.16 2.678 2.903l.99.427c1.53.698 2.115.99 2.227 2.183 0 1.237-1.057 1.912-2.43 1.912-1.372 0-2.407-.675-3.397-1.935l-.788.743zM448.204 86.125c.067-.247.09-.607.09-1.08 0-2.902-2.183-4.837-4.86-4.837-2.993-.068-5.558 2.587-5.49 5.67-.068 3.082 2.542 5.714 5.625 5.647 1.732 0 3.285-.765 4.365-2.025l-.72-.743c-.968 1.148-2.183 1.71-3.623 1.71-2.452 0-4.342-1.8-4.477-4.342zm-9.045-1.012c.157-1.126.63-2.048 1.417-2.768.788-.742 1.71-1.103 2.813-1.103 2.092 0 3.825 1.508 3.735 3.87zM457.024 80.433c-.113 0-.405-.068-.698-.068-1.507 0-2.812.653-3.6 1.913v-1.846h-1.08V91.3h1.125v-6.39c0-2.182 1.823-3.487 3.69-3.487h.563v-.99zM467.351 80.433l-3.982 9.157-4.005-9.157h-1.215l4.995 11.092h.472l4.95-11.092zM471.379 91.3h1.125V80.433h-1.125zm-.428-15.053c0 .54.428.99.99.99.54 0 .99-.45.99-.99s-.45-.99-.99-.99c-.562 0-.99.45-.99.99zM475.856 85.855c-.067 3.083 2.543 5.737 5.603 5.67a5.414 5.414 0 004.41-2.228l-.81-.652c-.945 1.215-2.138 1.823-3.6 1.823-2.498 0-4.433-2.026-4.433-4.613 0-2.542 1.935-4.59 4.455-4.59 1.463 0 2.655.607 3.578 1.823l.81-.653c-1.013-1.373-2.565-2.228-4.388-2.228-3.082-.067-5.692 2.566-5.625 5.648zm2.925 9.495a5.215 5.215 0 001.508.225c1.642 0 2.7-1.057 2.7-2.43 0-1.012-.63-1.822-1.598-2.272l-.427.337c.607.518.967 1.058.967 1.8 0 1.08-.742 1.62-1.8 1.62-.427 0-.877-.045-1.35-.157zM488.051 85.855c-.067 3.083 2.543 5.737 5.603 5.67 3.082.068 5.715-2.587 5.647-5.67 0-3.127-2.52-5.647-5.625-5.647-3.082-.068-5.692 2.52-5.625 5.647zm10.08.022c0 2.566-1.98 4.59-4.477 4.59-2.498 0-4.433-2.024-4.433-4.59 0-2.61 1.935-4.612 4.455-4.612 2.475 0 4.455 2.002 4.455 4.612zM501.596 89.275c.923 1.35 2.363 2.25 4.163 2.25 1.012 0 1.867-.27 2.565-.788.697-.517 1.057-1.26 1.057-2.227 0-1.508-.99-2.318-2.812-3.128l-1.013-.45c-1.462-.63-2.047-1.035-2.047-1.957 0-1.103.945-1.71 2.205-1.71 1.057 0 2.002.472 2.835 1.395l.742-.72c-.81-1.057-2.002-1.732-3.51-1.732-.967 0-1.777.247-2.452.764-.675.518-1.013 1.193-1.013 2.07 0 1.418.968 2.16 2.678 2.903l.99.427c1.53.698 2.115.99 2.227 2.183 0 1.237-1.057 1.912-2.43 1.912-1.372 0-2.407-.675-3.397-1.935l-.788.743zM512.846 90.445c0 .63.518 1.08 1.08 1.08.63 0 1.125-.45 1.125-1.08 0-.698-.495-1.125-1.125-1.125-.607 0-1.08.472-1.08 1.125z" stroke-width=".0225"/></g></svg>