<svg width="699.375" height="101" viewBox="0 0 699.375 101" xmlns="http://www.w3.org/2000/svg"><g fill="#fff" stroke="#000"><path d="M115.035 23.8h1.17v-6.66h3.87c2.79 0 4.5-1.732 4.5-4.117 0-2.34-1.71-4.073-4.5-4.073h-5.04zm1.17-7.717v-6.075h3.825c2.137 0 3.33 1.237 3.33 3.037 0 1.8-1.193 3.038-3.33 3.038zM126.307 18.355c-.067 3.083 2.543 5.737 5.603 5.67 3.082.068 5.715-2.587 5.647-5.67 0-3.128-2.52-5.648-5.625-5.648-3.082-.067-5.692 2.52-5.625 5.648zm10.08.022c0 2.566-1.98 4.59-4.477 4.59-2.498 0-4.433-2.024-4.433-4.59 0-2.61 1.935-4.612 4.455-4.612 2.475 0 4.455 2.002 4.455 4.612zM149.865 6.925v8.123c-.833-1.44-2.52-2.34-4.388-2.34-3.105 0-5.4 2.497-5.4 5.67 0 3.127 2.363 5.647 5.4 5.647 1.89 0 3.623-.922 4.433-2.43V23.8h1.08V6.925zm0 11.453c0 3.104-2.025 4.59-4.275 4.59-2.498 0-4.343-2.026-4.343-4.613 0-2.61 1.845-4.59 4.343-4.59 2.25 0 4.275 1.485 4.275 4.612zM164.602 18.625c.068-.247.09-.607.09-1.08 0-2.902-2.182-4.837-4.86-4.837-2.992-.068-5.557 2.587-5.49 5.67-.067 3.082 2.543 5.715 5.625 5.647 1.733 0 3.285-.765 4.365-2.025l-.72-.742c-.967 1.147-2.182 1.71-3.622 1.71-2.453 0-4.343-1.8-4.478-4.343zm-9.045-1.012c.158-1.125.63-2.048 1.418-2.768.787-.742 1.71-1.103 2.812-1.103 2.093 0 3.825 1.508 3.735 3.87zM183.525 16.938c0-2.543-1.44-4.23-3.87-4.23-1.733 0-3.038.854-3.758 2.114-.562-1.327-1.732-2.114-3.42-2.114-1.44 0-2.632.584-3.352 1.642v-1.417h-1.08V23.8h1.125v-6.773c0-1.89 1.282-3.262 3.15-3.262 1.8 0 2.902 1.305 2.902 3.262V23.8h1.125v-6.953c0-1.687 1.328-3.082 3.15-3.082 1.8 0 2.88 1.305 2.88 3.262V23.8h1.148v-6.863zM186.697 18.355c-.067 3.083 2.543 5.737 5.603 5.67 3.082.068 5.715-2.587 5.647-5.67 0-3.128-2.52-5.648-5.625-5.648-3.082-.067-5.692 2.52-5.625 5.648zm10.08.022c0 2.566-1.98 4.59-4.477 4.59-2.498 0-4.433-2.024-4.433-4.59 0-2.61 1.935-4.612 4.455-4.612 2.475 0 4.455 2.002 4.455 4.612zM200.242 21.775c.923 1.35 2.363 2.25 4.163 2.25 1.012 0 1.867-.27 2.565-.787.697-.518 1.057-1.26 1.057-2.228 0-1.507-.99-2.317-2.812-3.127l-1.013-.45c-1.462-.63-2.047-1.035-2.047-1.958 0-1.102.945-1.71 2.205-1.71 1.057 0 2.002.472 2.835 1.395l.742-.72c-.81-1.057-2.002-1.732-3.51-1.732-.967 0-1.777.247-2.452.764-.675.518-1.012 1.193-1.012 2.07 0 1.418.967 2.16 2.677 2.903l.99.427c1.53.698 2.115.99 2.228 2.183 0 1.238-1.058 1.912-2.43 1.912-1.373 0-2.408-.674-3.398-1.934l-.787.742zM217.68 19.683c0 2.632 1.867 4.342 4.275 4.342 2.385 0 4.252-1.71 4.252-4.342v-6.75h-1.125v6.795c0 1.98-1.35 3.24-3.127 3.24-1.8 0-3.15-1.26-3.15-3.24v-6.796h-1.125v6.75zM235.68 22.81c-.563.113-1.08.18-1.508.18-1.462 0-2.362-.63-2.362-2.272v-6.75h3.51v-1.035h-3.51V9.85h-1.148v3.083h-1.89v1.035h1.89v6.795c0 2.25 1.283 3.262 3.33 3.262.563 0 1.125-.067 1.688-.225v-.99zM238.402 23.8h1.125V12.933h-1.125zm-.427-15.053c0 .54.427.99.99.99.54 0 .99-.45.99-.99s-.45-.99-.99-.99c-.563 0-.99.45-.99.99zM243.712 23.8h1.125V6.925h-1.125zM249.022 23.8h1.125V12.933h-1.125zm-.427-15.053c0 .54.427.99.99.99.54 0 .99-.45.99-.99s-.45-.99-.99-.99c-.563 0-.99.45-.99.99zM254.715 22.765l6.817-9.45v-.382H253.5v1.035h6.3l-6.818 9.45v.382h8.663v-1.035zM272.175 16.983c0-2.768-1.62-4.275-4.072-4.275-1.733 0-3.105.742-4.163 2.25l.787.63c.923-1.193 1.936-1.823 3.308-1.823 1.823 0 2.992 1.103 2.992 3.173v1.237h-3.78c-2.272 0-3.78 1.125-3.78 2.903 0 .922.36 1.665 1.08 2.182.72.518 1.598.765 2.656.765 1.71 0 3.105-.697 3.892-1.935v1.71h1.08zm-1.147 2.767c0 1.867-1.71 3.285-3.713 3.285-1.462 0-2.677-.698-2.677-2.025 0-1.192.945-1.867 2.722-1.867h3.668zM281.558 12.933c-.113 0-.405-.068-.698-.068-1.507 0-2.812.652-3.6 1.912v-1.844h-1.08V23.8h1.125v-6.39c0-2.183 1.823-3.488 3.69-3.488h.563v-.99zM299.783 18.625c.067-.247.09-.607.09-1.08 0-2.902-2.183-4.837-4.86-4.837-2.993-.068-5.558 2.587-5.49 5.67-.068 3.082 2.542 5.715 5.624 5.647 1.733 0 3.285-.765 4.365-2.025l-.72-.742c-.967 1.147-2.182 1.71-3.622 1.71-2.453 0-4.343-1.8-4.478-4.343zm-9.045-1.012c.157-1.125.63-2.048 1.417-2.768.788-.742 1.71-1.103 2.813-1.103 2.092 0 3.825 1.508 3.735 3.87zM302.168 21.775c.922 1.35 2.362 2.25 4.162 2.25 1.013 0 1.868-.27 2.565-.787.698-.518 1.058-1.26 1.058-2.228 0-1.507-.99-2.317-2.813-3.127l-1.012-.45c-1.463-.63-2.048-1.035-2.048-1.958 0-1.102.945-1.71 2.205-1.71 1.058 0 2.003.472 2.835 1.395l.743-.72c-.81-1.057-2.003-1.732-3.51-1.732-.968 0-1.778.247-2.453.764-.675.518-1.012 1.193-1.012 2.07 0 1.418.967 2.16 2.677 2.903l.99.427c1.53.698 2.115.99 2.228 2.183 0 1.238-1.058 1.912-2.43 1.912-1.373 0-2.408-.674-3.398-1.934l-.787.742zM312.405 21.775c.923 1.35 2.363 2.25 4.163 2.25 1.012 0 1.867-.27 2.565-.787.697-.518 1.057-1.26 1.057-2.228 0-1.507-.99-2.317-2.812-3.127l-1.013-.45c-1.462-.63-2.047-1.035-2.047-1.958 0-1.102.945-1.71 2.205-1.71 1.057 0 2.002.472 2.835 1.395l.742-.72c-.81-1.057-2.002-1.732-3.51-1.732-.967 0-1.777.247-2.452.764-.675.518-1.013 1.193-1.013 2.07 0 1.418.968 2.16 2.678 2.903l.99.427c1.53.698 2.115.99 2.227 2.183 0 1.238-1.057 1.912-2.43 1.912-1.372 0-2.407-.674-3.397-1.934l-.788.742zM331.418 16.983c0-2.768-1.62-4.275-4.073-4.275-1.732 0-3.105.742-4.162 2.25l.787.63c.923-1.193 1.935-1.823 3.308-1.823 1.822 0 2.992 1.103 2.992 3.173v1.237h-3.78c-2.272 0-3.78 1.125-3.78 2.903 0 .922.36 1.665 1.08 2.182.72.518 1.598.765 2.655.765 1.71 0 3.105-.697 3.893-1.935v1.71h1.08zm-1.148 2.767c0 1.867-1.71 3.285-3.712 3.285-1.463 0-2.678-.698-2.678-2.025 0-1.192.945-1.867 2.723-1.867h3.667zM347.168 22.81c-.563.113-1.08.18-1.508.18-1.462 0-2.362-.63-2.362-2.272v-6.75h3.51v-1.035h-3.51V9.85h-1.148v3.083h-1.89v1.035h1.89v6.795c0 2.25 1.283 3.262 3.33 3.262.563 0 1.125-.067 1.688-.225v-.99zM359.093 18.625c.067-.247.09-.607.09-1.08 0-2.902-2.183-4.837-4.86-4.837-2.993-.068-5.558 2.587-5.49 5.67-.068 3.082 2.542 5.715 5.625 5.647 1.732 0 3.285-.765 4.365-2.025l-.72-.742c-.968 1.147-2.183 1.71-3.623 1.71-2.453 0-4.343-1.8-4.478-4.343zm-9.045-1.012c.157-1.125.63-2.048 1.417-2.768.788-.742 1.71-1.103 2.813-1.103 2.092 0 3.825 1.508 3.735 3.87zM361.703 18.355c-.068 3.083 2.542 5.737 5.602 5.67a5.414 5.414 0 004.41-2.228l-.81-.652c-.945 1.215-2.137 1.823-3.6 1.823-2.497 0-4.432-2.025-4.432-4.613 0-2.542 1.935-4.59 4.455-4.59 1.462 0 2.655.607 3.577 1.823l.81-.653c-1.012-1.373-2.565-2.228-4.387-2.228-3.083-.067-5.693 2.565-5.625 5.648zM383.483 16.938c0-2.52-1.485-4.23-3.983-4.23-1.507 0-2.722.607-3.465 1.687v-1.462h-1.08V23.8h1.125v-6.795c0-.923.293-1.71.9-2.318.608-.607 1.395-.922 2.34-.922 1.868 0 3.038 1.327 3.038 3.24V23.8h1.125v-6.863zM386.678 18.355c-.068 3.083 2.542 5.737 5.602 5.67 3.083.068 5.715-2.587 5.648-5.67 0-3.128-2.52-5.648-5.625-5.648-3.083-.067-5.693 2.52-5.625 5.648zm10.08.022c0 2.566-1.98 4.59-4.478 4.59-2.497 0-4.432-2.024-4.432-4.59 0-2.61 1.935-4.612 4.455-4.612 2.475 0 4.455 2.002 4.455 4.612zM401.28 23.8h1.125V6.925h-1.125zM405.758 18.355c-.068 3.083 2.542 5.737 5.602 5.67 3.083.068 5.715-2.587 5.648-5.67 0-3.128-2.52-5.648-5.625-5.648-3.083-.067-5.693 2.52-5.625 5.648zm10.08.022c0 2.566-1.98 4.59-4.478 4.59-2.497 0-4.432-2.024-4.432-4.59 0-2.61 1.935-4.612 4.455-4.612 2.475 0 4.455 2.002 4.455 4.612zM429.495 12.933v2.16c-.81-1.463-2.565-2.385-4.455-2.385-3.037 0-5.377 2.43-5.377 5.512 0 3.083 2.34 5.535 5.377 5.535 1.868 0 3.578-.9 4.41-2.317v1.44c0 2.632-1.642 4.14-4.095 4.14-1.687 0-3.172-.72-4.275-1.823l-.697.765c1.147 1.26 2.947 2.115 4.995 2.115 3.06 0 5.197-1.98 5.197-5.242v-9.9zm-.045 5.287c0 2.992-2.025 4.478-4.252 4.478-2.52 0-4.365-1.958-4.365-4.456 0-2.497 1.845-4.455 4.365-4.455 2.182 0 4.252 1.44 4.252 4.433zM434.76 23.8h1.125V12.933h-1.125zm-.427-15.053c0 .54.427.99.99.99.54 0 .99-.45.99-.99s-.45-.99-.99-.99c-.563 0-.99.45-.99.99zM447.788 16.983c0-2.768-1.62-4.275-4.073-4.275-1.732 0-3.105.742-4.162 2.25l.787.63c.923-1.193 1.935-1.823 3.308-1.823 1.822 0 2.992 1.103 2.992 3.173v1.237h-3.78c-2.272 0-3.78 1.125-3.78 2.903 0 .922.36 1.665 1.08 2.182.72.518 1.598.765 2.655.765 1.71 0 3.105-.697 3.893-1.935v1.71h1.08zm-1.148 2.767c0 1.867-1.71 3.285-3.712 3.285-1.463 0-2.678-.698-2.678-2.025 0-1.192.945-1.867 2.723-1.867h3.667zM469.005 18.355c0-3.127-2.362-5.647-5.4-5.647-1.89 0-3.622.944-4.432 2.407v-2.183h-1.08V27.85h1.125v-6.143c.832 1.44 2.565 2.318 4.387 2.318 3.038 0 5.4-2.498 5.4-5.67zm-1.17.022c0 2.61-1.845 4.59-4.342 4.59-2.25 0-4.275-1.484-4.275-4.612 0-3.105 2.025-4.59 4.275-4.59 2.497 0 4.342 2.025 4.342 4.612zM480.075 16.983c0-2.768-1.62-4.275-4.072-4.275-1.733 0-3.105.742-4.163 2.25l.788.63c.922-1.193 1.935-1.823 3.307-1.823 1.823 0 2.993 1.103 2.993 3.173v1.237h-3.78c-2.273 0-3.78 1.125-3.78 2.903 0 .922.36 1.665 1.08 2.182.72.518 1.597.765 2.655.765 1.71 0 3.105-.697 3.892-1.935v1.71h1.08zm-1.147 2.767c0 1.867-1.71 3.285-3.713 3.285-1.462 0-2.677-.698-2.677-2.025 0-1.192.945-1.867 2.722-1.867h3.668zM489.458 12.933c-.113 0-.405-.068-.698-.068-1.507 0-2.812.652-3.6 1.912v-1.844h-1.08V23.8h1.125v-6.39c0-2.183 1.823-3.488 3.69-3.488h.563v-.99zM499.448 16.983c0-2.768-1.62-4.275-4.073-4.275-1.732 0-3.105.742-4.162 2.25l.787.63c.923-1.193 1.935-1.823 3.308-1.823 1.822 0 2.992 1.103 2.992 3.173v1.237h-3.78c-2.272 0-3.78 1.125-3.78 2.903 0 .922.36 1.665 1.08 2.182.72.518 1.598.765 2.655.765 1.71 0 3.105-.697 3.893-1.935v1.71h1.08zM498.3 19.75c0 1.867-1.71 3.285-3.712 3.285-1.463 0-2.678-.698-2.678-2.025 0-1.192.945-1.867 2.723-1.867h3.667zM515.13 12.933c-.112 0-.405-.068-.697-.068-1.508 0-2.813.652-3.6 1.912v-1.844h-1.08V23.8h1.125v-6.39c0-2.183 1.822-3.488 3.69-3.488h.562v-.99zM526.83 18.625c.068-.247.09-.607.09-1.08 0-2.902-2.182-4.837-4.86-4.837-2.992-.068-5.557 2.587-5.49 5.67-.067 3.082 2.543 5.715 5.625 5.647 1.733 0 3.285-.765 4.365-2.025l-.72-.742c-.967 1.147-2.182 1.71-3.622 1.71-2.453 0-4.343-1.8-4.478-4.343zm-9.045-1.012c.158-1.125.63-2.048 1.418-2.768.787-.742 1.71-1.103 2.812-1.103 2.093 0 3.825 1.508 3.735 3.87zM537.99 16.983c0-2.768-1.62-4.275-4.072-4.275-1.733 0-3.105.742-4.163 2.25l.788.63c.922-1.193 1.935-1.823 3.307-1.823 1.823 0 2.993 1.103 2.993 3.173v1.237h-3.78c-2.273 0-3.78 1.125-3.78 2.903 0 .922.36 1.665 1.08 2.182.72.518 1.597.765 2.655.765 1.71 0 3.105-.697 3.892-1.935v1.71h1.08zm-1.147 2.767c0 1.867-1.71 3.285-3.713 3.285-1.462 0-2.677-.698-2.677-2.025 0-1.192.945-1.867 2.722-1.867h3.668zM541.995 23.8h1.125V6.925h-1.125zM547.305 23.8h1.125V12.933h-1.125zm-.427-15.053c0 .54.427.99.99.99.54 0 .99-.45.99-.99s-.45-.99-.99-.99c-.563 0-.99.45-.99.99zM552.998 22.765l6.817-9.45v-.382h-8.032v1.035h6.3l-6.818 9.45v.382h8.662v-1.035zM570.457 16.983c0-2.768-1.62-4.275-4.072-4.275-1.732 0-3.105.742-4.162 2.25l.787.63c.922-1.193 1.935-1.823 3.307-1.823 1.823 0 2.993 1.103 2.993 3.173v1.237h-3.78c-2.272 0-3.78 1.125-3.78 2.903 0 .922.36 1.665 1.08 2.182.72.518 1.597.765 2.655.765 1.71 0 3.105-.697 3.893-1.935v1.71h1.08zm-1.147 2.767c0 1.867-1.71 3.285-3.712 3.285-1.463 0-2.678-.698-2.678-2.025 0-1.192.945-1.867 2.722-1.867h3.668zM579.84 12.933c-.112 0-.405-.068-.698-.068-1.507 0-2.812.652-3.6 1.912v-1.844h-1.08V23.8h1.125v-6.39c0-2.183 1.823-3.488 3.69-3.488h.563v-.99z" stroke-width=".0225"/></g><g fill="#fff" stroke="#000"><path d="M107.88 52.105c0-3.127-2.363-5.647-5.4-5.647-1.89 0-3.623.944-4.433 2.407v-2.183h-1.08V61.6h1.125v-6.143c.833 1.44 2.565 2.318 4.388 2.318 3.037 0 5.4-2.498 5.4-5.67zm-1.17.022c0 2.61-1.845 4.59-4.343 4.59-2.25 0-4.275-1.484-4.275-4.612 0-3.105 2.025-4.59 4.275-4.59 2.498 0 4.343 2.025 4.343 4.612zM120.66 52.375c.067-.247.09-.607.09-1.08 0-2.902-2.183-4.837-4.86-4.837-2.993-.068-5.558 2.587-5.49 5.67-.068 3.082 2.542 5.715 5.625 5.647 1.732 0 3.285-.765 4.365-2.025l-.72-.742c-.968 1.147-2.183 1.71-3.623 1.71-2.452 0-4.342-1.8-4.477-4.343zm-9.045-1.012c.157-1.126.63-2.048 1.417-2.768.788-.742 1.71-1.103 2.813-1.103 2.092 0 3.825 1.508 3.735 3.87zM123.045 55.525c.922 1.35 2.362 2.25 4.162 2.25 1.013 0 1.868-.27 2.565-.787.698-.518 1.058-1.26 1.058-2.228 0-1.507-.99-2.317-2.813-3.127l-1.012-.45c-1.463-.63-2.048-1.036-2.048-1.958 0-1.103.945-1.71 2.205-1.71 1.058 0 2.003.472 2.835 1.395l.743-.72c-.81-1.057-2.003-1.732-3.51-1.732-.968 0-1.778.247-2.453.764-.675.518-1.012 1.193-1.012 2.07 0 1.418.967 2.16 2.677 2.903l.99.427c1.53.698 2.115.99 2.228 2.183 0 1.237-1.058 1.912-2.43 1.912-1.373 0-2.408-.675-3.398-1.935l-.787.743zM143.34 46.682v2.205c-.81-1.507-2.543-2.43-4.433-2.43-3.037 0-5.4 2.52-5.4 5.648 0 3.172 2.295 5.67 5.4 5.67 1.823 0 3.555-.877 4.388-2.317V61.6h1.125V46.682zm-.045 5.423c0 3.127-2.025 4.612-4.275 4.612-2.498 0-4.343-1.98-4.343-4.59 0-2.587 1.845-4.612 4.343-4.612 2.25 0 4.275 1.485 4.275 4.59zM148.447 53.432c0 2.633 1.868 4.343 4.275 4.343 2.385 0 4.253-1.71 4.253-4.343v-6.75h-1.125v6.795c0 1.98-1.35 3.24-3.128 3.24-1.8 0-3.15-1.26-3.15-3.24v-6.794h-1.125v6.75zM161.002 57.55h1.125V46.683h-1.125zm-.427-15.053c0 .54.427.99.99.99.54 0 .99-.45.99-.99s-.45-.99-.99-.99c-.563 0-.99.45-.99.99zM165.255 55.525c.922 1.35 2.362 2.25 4.162 2.25 1.013 0 1.868-.27 2.565-.787.698-.518 1.058-1.26 1.058-2.228 0-1.507-.99-2.317-2.813-3.127l-1.012-.45c-1.463-.63-2.048-1.036-2.048-1.958 0-1.103.945-1.71 2.205-1.71 1.058 0 2.003.472 2.835 1.395l.743-.72c-.81-1.057-2.002-1.732-3.51-1.732-.967 0-1.777.247-2.453.764-.674.518-1.012 1.193-1.012 2.07 0 1.418.968 2.16 2.678 2.903l.99.427c1.53.698 2.115.99 2.227 2.183 0 1.237-1.057 1.912-2.43 1.912-1.372 0-2.407-.675-3.397-1.935l-.788.743zM184.267 50.732c0-2.767-1.62-4.275-4.072-4.275-1.732 0-3.105.743-4.162 2.25l.787.63c.922-1.192 1.935-1.822 3.307-1.822 1.823 0 2.993 1.103 2.993 3.172v1.238h-3.78c-2.272 0-3.78 1.125-3.78 2.902 0 .923.36 1.666 1.08 2.183.72.517 1.598.765 2.655.765 1.71 0 3.105-.698 3.893-1.935v1.71h1.08zM183.12 53.5c0 1.867-1.71 3.285-3.713 3.285-1.462 0-2.677-.698-2.677-2.025 0-1.193.945-1.868 2.722-1.868h3.668zM187.215 55.525c.922 1.35 2.362 2.25 4.162 2.25 1.013 0 1.868-.27 2.565-.787.698-.518 1.058-1.26 1.058-2.228 0-1.507-.99-2.317-2.813-3.127l-1.012-.45c-1.463-.63-2.048-1.036-2.048-1.958 0-1.103.945-1.71 2.205-1.71 1.058 0 2.003.472 2.835 1.395l.743-.72c-.81-1.057-2.002-1.732-3.51-1.732-.967 0-1.777.247-2.453.764-.674.518-1.012 1.193-1.012 2.07 0 1.418.968 2.16 2.678 2.903l.99.427c1.53.698 2.115.99 2.227 2.183 0 1.237-1.057 1.912-2.43 1.912-1.372 0-2.407-.675-3.397-1.935l-.788.743zM213.765 40.675v8.123c-.833-1.44-2.52-2.34-4.388-2.34-3.105 0-5.4 2.497-5.4 5.67 0 3.127 2.363 5.647 5.4 5.647 1.89 0 3.623-.922 4.433-2.43v2.205h1.08V40.675zm0 11.452c0 3.105-2.025 4.59-4.275 4.59-2.498 0-4.343-2.024-4.343-4.612 0-2.61 1.845-4.59 4.343-4.59 2.25 0 4.275 1.485 4.275 4.612zM228.502 52.375c.068-.247.09-.607.09-1.08 0-2.902-2.182-4.837-4.86-4.837-2.992-.068-5.557 2.587-5.49 5.67-.067 3.082 2.543 5.715 5.626 5.647 1.732 0 3.285-.765 4.365-2.025l-.72-.742c-.968 1.147-2.183 1.71-3.623 1.71-2.452 0-4.342-1.8-4.477-4.343zm-9.045-1.012c.158-1.126.63-2.048 1.418-2.768.787-.742 1.71-1.103 2.813-1.103 2.092 0 3.825 1.508 3.735 3.87zM248.865 53.32c0-2.002-1.17-3.51-3.172-3.982 1.102-.63 1.71-1.688 1.71-3.016 0-2.137-1.508-3.622-4.005-3.622h-5.04v14.85h5.895c2.902 0 4.612-1.8 4.612-4.23zm-5.58-9.585c1.958 0 2.902 1.103 2.902 2.655 0 1.552-1.012 2.632-2.902 2.632h-3.757v-5.264zm4.388 9.563c0 1.89-1.283 3.194-3.533 3.194h-4.612V50.08h4.612c2.25 0 3.532 1.327 3.532 3.217zM257.415 46.682c-.112 0-.405-.067-.698-.067-1.507 0-2.812.652-3.6 1.912v-1.845h-1.08V57.55h1.126v-6.39c0-2.183 1.822-3.487 3.69-3.487h.562v-.99zM267.405 50.732c0-2.767-1.62-4.275-4.072-4.275-1.733 0-3.106.743-4.163 2.25l.787.63c.923-1.192 1.935-1.822 3.308-1.822 1.823 0 2.992 1.103 2.992 3.172v1.238h-3.78c-2.272 0-3.78 1.125-3.78 2.902 0 .923.36 1.666 1.08 2.183.72.517 1.598.765 2.656.765 1.71 0 3.105-.698 3.892-1.935v1.71h1.08zm-1.147 2.768c0 1.867-1.71 3.285-3.713 3.285-1.462 0-2.677-.698-2.677-2.025 0-1.193.945-1.868 2.722-1.868h3.668zM279.938 50.688c0-2.52-1.485-4.23-3.983-4.23-1.507 0-2.722.607-3.465 1.687v-1.462h-1.08V57.55h1.125v-6.795c0-.922.292-1.71.9-2.317.607-.608 1.395-.923 2.34-.923 1.867 0 3.038 1.327 3.038 3.24v6.795h1.125v-6.862zM292.92 40.675v8.123c-.833-1.44-2.52-2.34-4.388-2.34-3.104 0-5.4 2.497-5.4 5.67 0 3.127 2.363 5.647 5.4 5.647 1.89 0 3.623-.922 4.433-2.43v2.205h1.08V40.675zm0 11.452c0 3.105-2.025 4.59-4.275 4.59-2.497 0-4.342-2.024-4.342-4.612 0-2.61 1.845-4.59 4.342-4.59 2.25 0 4.275 1.485 4.275 4.612zM304.642 57.55h8.483v-1.057h-7.313V42.7h-1.17zM315.757 57.55h1.125V46.683h-1.125zm-.427-15.053c0 .54.427.99.99.99.54 0 .99-.45.99-.99s-.45-.99-.99-.99c-.563 0-.99.45-.99.99zM322.373 43.758c0-1.643.9-2.273 2.362-2.273.337 0 .698.022 1.035.09v-.99a5.49 5.49 0 00-1.237-.135c-2.003 0-3.285 1.012-3.285 3.262v2.97h-1.575v1.036h1.575v9.832h1.125v-9.832h2.857v-1.036h-2.857v-2.924zM332.34 56.56c-.562.112-1.08.18-1.507.18-1.463 0-2.363-.63-2.363-2.273v-6.75h3.51v-1.035h-3.51V43.6h-1.147v3.082h-1.89v1.035h1.89v6.795c0 2.25 1.282 3.263 3.33 3.263.562 0 1.125-.068 1.687-.225v-.99zM335.22 61.6h.967l.81-5.738h-1.395zM358.575 52.105c0-3.127-2.362-5.647-5.4-5.647-1.89 0-3.622.944-4.432 2.407v-2.183h-1.08V61.6h1.125v-6.143c.832 1.44 2.565 2.318 4.387 2.318 3.038 0 5.4-2.498 5.4-5.67zm-1.17.022c0 2.61-1.845 4.59-4.342 4.59-2.25 0-4.275-1.484-4.275-4.612 0-3.105 2.025-4.59 4.275-4.59 2.497 0 4.342 2.025 4.342 4.612zM369.645 50.732c0-2.767-1.62-4.275-4.072-4.275-1.733 0-3.105.743-4.163 2.25l.787.63c.923-1.192 1.936-1.822 3.308-1.822 1.823 0 2.993 1.103 2.993 3.172v1.238h-3.78c-2.273 0-3.78 1.125-3.78 2.902 0 .923.36 1.666 1.08 2.183.72.517 1.597.765 2.655.765 1.71 0 3.105-.698 3.892-1.935v1.71h1.08zm-1.147 2.768c0 1.867-1.71 3.285-3.713 3.285-1.462 0-2.677-.698-2.677-2.025 0-1.193.945-1.868 2.722-1.868h3.668zM379.028 46.682c-.113 0-.405-.067-.698-.067-1.507 0-2.812.652-3.6 1.912v-1.845h-1.08V57.55h1.125v-6.39c0-2.183 1.823-3.487 3.69-3.487h.563v-.99zM389.018 50.732c0-2.767-1.62-4.275-4.073-4.275-1.732 0-3.105.743-4.162 2.25l.787.63c.923-1.192 1.935-1.822 3.308-1.822 1.822 0 2.992 1.103 2.992 3.172v1.238h-3.78c-2.272 0-3.78 1.125-3.78 2.902 0 .923.36 1.666 1.08 2.183.72.517 1.598.765 2.655.765 1.71 0 3.105-.698 3.893-1.935v1.71h1.08zM387.87 53.5c0 1.867-1.71 3.285-3.712 3.285-1.463 0-2.678-.698-2.678-2.025 0-1.193.945-1.868 2.723-1.868h3.667zM407.04 50.732c0-2.767-1.62-4.275-4.072-4.275-1.733 0-3.105.743-4.163 2.25l.788.63c.922-1.192 1.935-1.822 3.307-1.822 1.823 0 2.993 1.103 2.993 3.172v1.238h-3.78c-2.273 0-3.78 1.125-3.78 2.902 0 .923.36 1.666 1.08 2.183.72.517 1.597.765 2.655.765 1.71 0 3.105-.698 3.892-1.935v1.71h1.08zm-1.147 2.768c0 1.867-1.71 3.285-3.713 3.285-1.462 0-2.677-.698-2.677-2.025 0-1.193.945-1.868 2.722-1.868h3.668zM418.425 46.682l-3.982 9.158-4.005-9.158h-1.215l4.995 11.093h.472l4.95-11.092zM429.72 50.732c0-2.767-1.62-4.275-4.072-4.275-1.733 0-3.105.743-4.163 2.25l.788.63c.922-1.192 1.935-1.822 3.307-1.822 1.823 0 2.993 1.103 2.993 3.172v1.238h-3.78c-2.273 0-3.78 1.125-3.78 2.902 0 .923.36 1.666 1.08 2.183.72.517 1.597.765 2.655.765 1.71 0 3.105-.698 3.892-1.935v1.71h1.08zm-1.147 2.768c0 1.867-1.71 3.285-3.713 3.285-1.462 0-2.677-.698-2.677-2.025 0-1.193.945-1.868 2.722-1.868h3.668zM433.725 57.55h1.125V40.675h-1.125zM439.035 57.55h1.125V46.683h-1.125zm-.427-15.053c0 .54.427.99.99.99.54 0 .99-.45.99-.99s-.45-.99-.99-.99c-.563 0-.99.45-.99.99zM452.063 50.732c0-2.767-1.62-4.275-4.073-4.275-1.732 0-3.105.743-4.162 2.25l.787.63c.923-1.192 1.935-1.822 3.308-1.822 1.822 0 2.992 1.103 2.992 3.172v1.238h-3.78c-2.272 0-3.78 1.125-3.78 2.902 0 .923.36 1.666 1.08 2.183.72.517 1.598.765 2.655.765 1.71 0 3.105-.698 3.893-1.935v1.71h1.08zm-1.148 2.768c0 1.867-1.71 3.285-3.712 3.285-1.463 0-2.678-.698-2.678-2.025 0-1.193.945-1.868 2.723-1.868h3.667zM461.445 46.682c-.112 0-.405-.067-.697-.067-1.508 0-2.813.652-3.6 1.912v-1.845h-1.08V57.55h1.125v-6.39c0-2.183 1.822-3.487 3.69-3.487h.562v-.99zM477.96 50.732c0-2.767-1.62-4.275-4.072-4.275-1.733 0-3.105.743-4.163 2.25l.788.63c.922-1.192 1.935-1.822 3.307-1.822 1.823 0 2.993 1.103 2.993 3.172v1.238h-3.78c-2.273 0-3.78 1.125-3.78 2.902 0 .923.36 1.666 1.08 2.183.72.517 1.597.765 2.655.765 1.71 0 3.105-.698 3.892-1.935v1.71h1.08zm-1.147 2.768c0 1.867-1.71 3.285-3.713 3.285-1.462 0-2.677-.698-2.677-2.025 0-1.193.945-1.868 2.722-1.868h3.668zM499.178 52.105c0-3.127-2.363-5.647-5.4-5.647-1.89 0-3.623.944-4.433 2.407v-2.183h-1.08V61.6h1.125v-6.143c.833 1.44 2.565 2.318 4.388 2.318 3.037 0 5.4-2.498 5.4-5.67zm-1.17.022c0 2.61-1.845 4.59-4.343 4.59-2.25 0-4.275-1.484-4.275-4.612 0-3.105 2.025-4.59 4.275-4.59 2.498 0 4.343 2.025 4.343 4.612zM511.958 52.375c.067-.247.09-.607.09-1.08 0-2.902-2.183-4.837-4.86-4.837-2.993-.068-5.558 2.587-5.49 5.67-.068 3.082 2.542 5.715 5.625 5.647 1.732 0 3.285-.765 4.365-2.025l-.72-.742c-.968 1.147-2.183 1.71-3.623 1.71-2.452 0-4.342-1.8-4.477-4.343zm-9.045-1.012c.157-1.126.63-2.048 1.417-2.768.788-.742 1.71-1.103 2.813-1.103 2.092 0 3.825 1.508 3.735 3.87zM520.778 46.682c-.113 0-.405-.067-.698-.067-1.507 0-2.812.652-3.6 1.912v-1.845h-1.08V57.55h1.125v-6.39c0-2.183 1.823-3.487 3.69-3.487h.563v-.99zM522.218 52.105c-.068 3.083 2.542 5.737 5.602 5.67a5.414 5.414 0 004.41-2.228l-.81-.652c-.945 1.215-2.137 1.822-3.6 1.822-2.498 0-4.433-2.025-4.433-4.612 0-2.542 1.936-4.59 4.456-4.59 1.462 0 2.655.607 3.577 1.823l.81-.653c-1.012-1.373-2.565-2.228-4.388-2.228-3.082-.067-5.692 2.565-5.625 5.648zM544.673 52.375c.067-.247.09-.607.09-1.08 0-2.902-2.183-4.837-4.86-4.837-2.993-.068-5.558 2.587-5.49 5.67-.068 3.082 2.542 5.715 5.625 5.647 1.732 0 3.285-.765 4.365-2.025l-.72-.742c-.968 1.147-2.183 1.71-3.623 1.71-2.452 0-4.342-1.8-4.477-4.343zm-9.045-1.012c.157-1.126.63-2.048 1.417-2.768.788-.742 1.71-1.103 2.813-1.103 2.092 0 3.825 1.508 3.735 3.87zM559.028 52.105c0-3.127-2.363-5.647-5.4-5.647-1.89 0-3.623.944-4.433 2.407v-2.183h-1.08V61.6h1.125v-6.143c.833 1.44 2.565 2.318 4.388 2.318 3.037 0 5.4-2.498 5.4-5.67zm-1.17.022c0 2.61-1.845 4.59-4.343 4.59-2.25 0-4.275-1.484-4.275-4.612 0-3.105 2.025-4.59 4.275-4.59 2.498 0 4.343 2.025 4.343 4.612zM561.548 52.105c-.068 3.083 2.542 5.737 5.602 5.67a5.414 5.414 0 004.41-2.228l-.81-.652c-.945 1.215-2.137 1.822-3.6 1.822-2.497 0-4.432-2.025-4.432-4.612 0-2.542 1.935-4.59 4.455-4.59 1.462 0 2.655.607 3.577 1.823l.81-.653c-1.012-1.373-2.565-2.228-4.387-2.228-3.083-.067-5.693 2.565-5.625 5.648zm2.925 9.495a5.215 5.215 0 001.507.225c1.643 0 2.7-1.058 2.7-2.43 0-1.013-.63-1.823-1.597-2.273l-.428.338c.608.517.968 1.057.968 1.8 0 1.08-.743 1.62-1.8 1.62-.428 0-.878-.045-1.35-.158zM582.518 50.732c0-2.767-1.62-4.275-4.073-4.275-1.732 0-3.105.743-4.162 2.25l.787.63c.922-1.192 1.935-1.822 3.307-1.822 1.823 0 2.993 1.103 2.993 3.172v1.238h-3.78c-2.272 0-3.78 1.125-3.78 2.902 0 .923.36 1.666 1.08 2.183.72.517 1.598.765 2.655.765 1.71 0 3.105-.698 3.893-1.935v1.71h1.08zM581.37 53.5c0 1.867-1.71 3.285-3.712 3.285-1.463 0-2.678-.698-2.678-2.025 0-1.193.945-1.868 2.722-1.868h3.668zm-2.857-10.193c.45.45.945.675 1.462.675 1.057 0 1.62-.922 1.62-2.025 0-.225 0-.382-.022-.495h-.99v.428c0 .607-.248 1.035-.72 1.035-.338 0-.586-.158-.968-.54l-.563-.563c-.45-.45-.922-.675-1.44-.675-1.057 0-1.62.878-1.62 2.025 0 .203 0 .383.023.495h.99v-.45c0-.607.225-1.012.698-1.012.36 0 .585.157.967.54zM585.69 52.105c-.068 3.083 2.542 5.737 5.603 5.67 3.082.068 5.715-2.587 5.647-5.67 0-3.127-2.52-5.647-5.625-5.647-3.083-.068-5.692 2.52-5.625 5.647zm10.08.022c0 2.565-1.98 4.59-4.477 4.59-2.498 0-4.433-2.024-4.433-4.59 0-2.61 1.935-4.612 4.455-4.612 2.475 0 4.455 2.002 4.455 4.612z" stroke-width=".0225"/></g><g fill="#fff" stroke="#000"><path d="M149.381 74.425v8.123c-.832-1.44-2.52-2.34-4.387-2.34-3.105 0-5.4 2.497-5.4 5.67 0 3.127 2.362 5.647 5.4 5.647 1.89 0 3.622-.923 4.432-2.43V91.3h1.08V74.425zm0 11.452c0 3.106-2.025 4.59-4.275 4.59-2.497 0-4.342-2.024-4.342-4.612 0-2.61 1.845-4.59 4.342-4.59 2.25 0 4.275 1.485 4.275 4.612zM153.859 85.855c-.068 3.083 2.542 5.737 5.602 5.67 3.083.068 5.715-2.587 5.648-5.67 0-3.127-2.52-5.647-5.625-5.647-3.083-.068-5.693 2.52-5.625 5.647zm10.08.022c0 2.566-1.98 4.59-4.478 4.59-2.497 0-4.432-2.024-4.432-4.59 0-2.61 1.935-4.612 4.455-4.612 2.475 0 4.455 2.002 4.455 4.612zM185.674 85.855c0-3.127-2.363-5.647-5.4-5.647-1.89 0-3.623.945-4.433 2.407v-2.182h-1.08V95.35h1.125v-6.142c.833 1.44 2.565 2.317 4.388 2.317 3.037 0 5.4-2.498 5.4-5.67zm-1.17.022c0 2.61-1.845 4.59-4.343 4.59-2.25 0-4.275-1.484-4.275-4.612 0-3.105 2.025-4.59 4.275-4.59 2.498 0 4.343 2.025 4.343 4.612zM188.869 87.183c0 2.632 1.867 4.342 4.275 4.342 2.385 0 4.252-1.71 4.252-4.343v-6.75h-1.125v6.796c0 1.98-1.35 3.24-3.127 3.24-1.8 0-3.15-1.26-3.15-3.24v-6.795h-1.125zm3.825-8.573h.9l2.542-4.657v-.203h-1.395zM212.336 85.877c0-3.172-2.362-5.67-5.4-5.67-1.867 0-3.555.9-4.387 2.34v-8.122h-1.125V91.3h1.08v-2.183c.81 1.463 2.542 2.408 4.432 2.408 3.038 0 5.4-2.52 5.4-5.648zm-1.17-.022c0 2.587-1.845 4.612-4.342 4.612-2.25 0-4.275-1.484-4.275-4.59 0-3.127 2.025-4.612 4.275-4.612 2.497 0 4.342 1.98 4.342 4.59zM215.689 91.3h1.125V74.425h-1.125zM220.999 91.3h1.125V80.433h-1.125zm-.428-15.053c0 .54.428.99.99.99.54 0 .99-.45.99-.99s-.45-.99-.99-.99c-.562 0-.99.45-.99.99zM225.476 85.855c-.067 3.083 2.543 5.737 5.603 5.67a5.414 5.414 0 004.41-2.228l-.81-.652c-.945 1.215-2.138 1.823-3.6 1.823-2.498 0-4.433-2.026-4.433-4.613 0-2.542 1.935-4.59 4.455-4.59 1.463 0 2.655.607 3.578 1.823l.81-.653c-1.013-1.373-2.565-2.228-4.388-2.228-3.082-.067-5.692 2.566-5.625 5.648zM237.671 85.855c-.067 3.083 2.543 5.737 5.603 5.67 3.082.068 5.715-2.587 5.647-5.67 0-3.127-2.52-5.647-5.625-5.647-3.082-.068-5.692 2.52-5.625 5.647zm10.08.022c0 2.566-1.98 4.59-4.477 4.59-2.498 0-4.433-2.024-4.433-4.59 0-2.61 1.935-4.612 4.455-4.612 2.475 0 4.455 2.002 4.455 4.612zM257.516 89.275c.923 1.35 2.363 2.25 4.163 2.25 1.012 0 1.867-.27 2.565-.788.697-.517 1.057-1.26 1.057-2.227 0-1.508-.99-2.318-2.812-3.128l-1.013-.45c-1.462-.63-2.047-1.035-2.047-1.957 0-1.103.945-1.71 2.205-1.71 1.057 0 2.002.472 2.835 1.395l.742-.72c-.81-1.057-2.002-1.732-3.51-1.732-.967 0-1.777.247-2.452.764-.675.518-1.013 1.193-1.013 2.07 0 1.418.968 2.16 2.678 2.903l.99.427c1.53.698 2.115.99 2.227 2.183 0 1.237-1.057 1.912-2.43 1.912-1.372 0-2.407-.675-3.397-1.935l-.788.743zM267.979 85.855c-.068 3.083 2.542 5.737 5.602 5.67 3.083.068 5.715-2.587 5.648-5.67 0-3.127-2.52-5.647-5.625-5.647-3.083-.068-5.693 2.52-5.625 5.647zm10.08.022c0 2.566-1.98 4.59-4.478 4.59-2.497 0-4.432-2.024-4.432-4.59 0-2.61 1.935-4.612 4.455-4.612 2.475 0 4.455 2.002 4.455 4.612zM293.494 85.877c0-3.172-2.363-5.67-5.4-5.67-1.868 0-3.555.9-4.388 2.34v-8.122h-1.125V91.3h1.08v-2.183c.81 1.463 2.543 2.408 4.433 2.408 3.037 0 5.4-2.52 5.4-5.648zm-1.17-.022c0 2.587-1.845 4.612-4.343 4.612-2.25 0-4.275-1.484-4.275-4.59 0-3.127 2.025-4.612 4.275-4.612 2.498 0 4.343 1.98 4.343 4.59zM302.224 80.433c-.113 0-.405-.068-.698-.068-1.507 0-2.812.653-3.6 1.913v-1.846h-1.08V91.3h1.125v-6.39c0-2.182 1.823-3.487 3.69-3.487h.563v-.99zM313.924 86.125c.067-.247.09-.607.09-1.08 0-2.902-2.183-4.837-4.86-4.837-2.993-.068-5.558 2.587-5.49 5.67-.068 3.082 2.542 5.714 5.625 5.647 1.732 0 3.285-.765 4.365-2.025l-.72-.743c-.968 1.148-2.183 1.71-3.623 1.71-2.452 0-4.342-1.8-4.477-4.342zm-9.045-1.012c.157-1.126.63-2.048 1.417-2.768.788-.742 1.71-1.103 2.813-1.103 2.092 0 3.825 1.508 3.735 3.87zM322.834 85.855c-.068 3.083 2.542 5.737 5.602 5.67a5.414 5.414 0 004.41-2.228l-.81-.652c-.945 1.215-2.137 1.823-3.6 1.823-2.497 0-4.432-2.026-4.432-4.613 0-2.542 1.935-4.59 4.455-4.59 1.462 0 2.655.607 3.577 1.823l.81-.653c-1.012-1.373-2.565-2.228-4.387-2.228-3.083-.067-5.693 2.566-5.625 5.648zM343.804 84.483c0-2.768-1.62-4.276-4.073-4.276-1.732 0-3.105.743-4.162 2.25l.787.63c.923-1.192 1.935-1.822 3.308-1.822 1.822 0 2.992 1.102 2.992 3.172v1.238h-3.78c-2.272 0-3.78 1.125-3.78 2.902 0 .923.36 1.665 1.08 2.183.72.517 1.598.765 2.655.765 1.71 0 3.105-.698 3.893-1.935v1.71h1.08zm-1.148 2.767c0 1.867-1.71 3.285-3.712 3.285-1.463 0-2.678-.698-2.678-2.025 0-1.193.945-1.868 2.723-1.868h3.667zM363.289 84.438c0-2.543-1.44-4.23-3.87-4.23-1.733 0-3.038.854-3.758 2.114-.562-1.327-1.732-2.115-3.42-2.115-1.44 0-2.632.586-3.352 1.643v-1.417h-1.08V91.3h1.125v-6.773c0-1.89 1.282-3.262 3.15-3.262 1.8 0 2.902 1.305 2.902 3.262V91.3h1.125v-6.953c0-1.687 1.328-3.082 3.15-3.082 1.8 0 2.88 1.305 2.88 3.262V91.3h1.148v-6.863zM378.206 85.855c0-3.127-2.362-5.647-5.4-5.647-1.89 0-3.622.945-4.432 2.407v-2.182h-1.08V95.35h1.125v-6.142c.832 1.44 2.565 2.317 4.387 2.317 3.038 0 5.4-2.498 5.4-5.67zm-1.17.022c0 2.61-1.845 4.59-4.342 4.59-2.25 0-4.275-1.484-4.275-4.612 0-3.105 2.025-4.59 4.275-4.59 2.497 0 4.342 2.025 4.342 4.612zM389.276 84.483c0-2.768-1.62-4.276-4.072-4.276-1.733 0-3.105.743-4.163 2.25l.788.63c.922-1.192 1.935-1.822 3.307-1.822 1.823 0 2.993 1.102 2.993 3.172v1.238h-3.78c-2.273 0-3.78 1.125-3.78 2.902 0 .923.36 1.665 1.08 2.183.72.517 1.597.765 2.655.765 1.71 0 3.105-.698 3.892-1.935v1.71h1.08zm-1.147 2.767c0 1.867-1.71 3.285-3.713 3.285-1.462 0-2.677-.698-2.677-2.025 0-1.193.945-1.868 2.722-1.868h3.668zM401.809 84.438c0-2.52-1.485-4.23-3.983-4.23-1.507 0-2.722.607-3.465 1.687v-1.462h-1.08V91.3h1.125v-6.795c0-.923.293-1.71.9-2.318.608-.607 1.395-.922 2.34-.922 1.868 0 3.038 1.327 3.038 3.24V91.3h1.125v-6.863zM414.364 84.438c0-2.52-1.508-4.23-3.96-4.23-1.508 0-2.7.63-3.443 1.71v-7.493h-1.125V91.3h1.125v-6.773c0-1.89 1.35-3.262 3.24-3.262 1.868 0 3.038 1.305 3.038 3.262V91.3h1.125v-6.863zM426.109 84.483c0-2.768-1.62-4.276-4.073-4.276-1.732 0-3.105.743-4.162 2.25l.787.63c.923-1.192 1.935-1.822 3.308-1.822 1.822 0 2.992 1.102 2.992 3.172v1.238h-3.78c-2.272 0-3.78 1.125-3.78 2.902 0 .923.36 1.665 1.08 2.183.72.517 1.598.765 2.655.765 1.71 0 3.105-.698 3.893-1.935v1.71h1.08zm-1.148 2.767c0 1.867-1.71 3.285-3.712 3.285-1.463 0-2.678-.698-2.678-2.025 0-1.193.945-1.868 2.723-1.868h3.667zM429.056 89.275c.923 1.35 2.363 2.25 4.163 2.25 1.012 0 1.867-.27 2.565-.788.697-.517 1.057-1.26 1.057-2.227 0-1.508-.99-2.318-2.812-3.128l-1.013-.45c-1.462-.63-2.047-1.035-2.047-1.957 0-1.103.945-1.71 2.205-1.71 1.057 0 2.002.472 2.835 1.395l.742-.72c-.81-1.057-2.002-1.732-3.51-1.732-.967 0-1.777.247-2.452.764-.675.518-1.013 1.193-1.013 2.07 0 1.418.968 2.16 2.678 2.903l.99.427c1.53.698 2.115.99 2.227 2.183 0 1.237-1.057 1.912-2.43 1.912-1.372 0-2.407-.675-3.397-1.935l-.788.743zM445.819 85.855c-.068 3.083 2.542 5.737 5.602 5.67a5.414 5.414 0 004.41-2.228l-.81-.652c-.945 1.215-2.137 1.823-3.6 1.823-2.497 0-4.432-2.026-4.432-4.613 0-2.542 1.935-4.59 4.455-4.59 1.462 0 2.655.607 3.577 1.823l.81-.653c-1.012-1.373-2.565-2.228-4.387-2.228-3.083-.067-5.693 2.566-5.625 5.648zM458.014 85.855c-.068 3.083 2.542 5.737 5.602 5.67 3.083.068 5.715-2.587 5.648-5.67 0-3.127-2.52-5.647-5.625-5.647-3.083-.068-5.693 2.52-5.625 5.647zm10.08.022c0 2.566-1.98 4.59-4.478 4.59-2.497 0-4.432-2.024-4.432-4.59 0-2.61 1.935-4.612 4.455-4.612 2.475 0 4.455 2.002 4.455 4.612zM481.144 84.438c0-2.52-1.485-4.23-3.983-4.23-1.507 0-2.722.607-3.465 1.687v-1.462h-1.08V91.3h1.125v-6.795c0-.923.293-1.71.9-2.318.608-.607 1.395-.922 2.34-.922 1.868 0 3.038 1.327 3.038 3.24V91.3h1.125v-6.863zM484.339 85.855c-.068 3.083 2.542 5.737 5.602 5.67a5.414 5.414 0 004.41-2.228l-.81-.652c-.945 1.215-2.137 1.823-3.6 1.823-2.497 0-4.432-2.026-4.432-4.613 0-2.542 1.935-4.59 4.455-4.59 1.462 0 2.655.607 3.577 1.823l.81-.653c-1.012-1.373-2.565-2.228-4.387-2.228-3.083-.067-5.693 2.566-5.625 5.648zM497.591 91.3h1.125V74.425h-1.125zM502.744 87.183c0 2.632 1.867 4.342 4.275 4.342 2.385 0 4.252-1.71 4.252-4.343v-6.75h-1.125v6.796c0 1.98-1.35 3.24-3.127 3.24-1.8 0-3.15-1.26-3.15-3.24v-6.795h-1.125v6.75zM515.299 91.3h1.125V80.433h-1.125zm.09-12.69h.9l1.867-4.657v-.203h-1.395zM529.564 74.425v8.123c-.833-1.44-2.52-2.34-4.388-2.34-3.105 0-5.4 2.497-5.4 5.67 0 3.127 2.363 5.647 5.4 5.647 1.89 0 3.623-.923 4.433-2.43V91.3h1.08V74.425zm0 11.452c0 3.106-2.025 4.59-4.275 4.59-2.498 0-4.343-2.024-4.343-4.612 0-2.61 1.845-4.59 4.343-4.59 2.25 0 4.275 1.485 4.275 4.612zM542.591 84.483c0-2.768-1.62-4.276-4.072-4.276-1.733 0-3.105.743-4.163 2.25l.788.63c.922-1.192 1.935-1.822 3.307-1.822 1.823 0 2.993 1.102 2.993 3.172v1.238h-3.78c-2.273 0-3.78 1.125-3.78 2.902 0 .923.36 1.665 1.08 2.183.72.517 1.597.765 2.655.765 1.71 0 3.105-.698 3.892-1.935v1.71h1.08zm-1.147 2.767c0 1.867-1.71 3.285-3.713 3.285-1.462 0-2.677-.698-2.677-2.025 0-1.193.945-1.868 2.722-1.868h3.668zM545.539 89.275c.922 1.35 2.362 2.25 4.162 2.25 1.013 0 1.868-.27 2.565-.788.698-.517 1.058-1.26 1.058-2.227 0-1.508-.99-2.318-2.813-3.128l-1.012-.45c-1.463-.63-2.048-1.035-2.048-1.957 0-1.103.945-1.71 2.205-1.71 1.058 0 2.003.472 2.835 1.395l.743-.72c-.81-1.057-2.003-1.732-3.51-1.732-.968 0-1.778.247-2.453.764-.675.518-1.012 1.193-1.012 2.07 0 1.418.967 2.16 2.677 2.903l.99.427c1.53.698 2.115.99 2.228 2.183 0 1.237-1.058 1.912-2.43 1.912-1.373 0-2.408-.675-3.398-1.935l-.787.743zM556.789 90.445c0 .63.517 1.08 1.08 1.08.63 0 1.125-.45 1.125-1.08 0-.698-.495-1.125-1.125-1.125-.608 0-1.08.472-1.08 1.125z" stroke-width=".0225"/></g></svg>