<svg width="448.994" height="198" viewBox="0 0 448.994 198" xmlns="http://www.w3.org/2000/svg"><g fill="#fff" stroke="#000"><path d="M1.391 19.108c-.105 4.908 4.016 9.03 8.873 8.925 4.804.104 9.004-4.017 8.899-8.926.105-4.934-4.095-9.003-8.9-8.924-4.855-.08-8.977 3.99-8.872 8.925zm16.328-.027c.078 4.227-3.308 7.744-7.429 7.665-4.174.053-7.534-3.386-7.455-7.665-.079-4.226 3.281-7.717 7.455-7.638 4.121-.08 7.507 3.412 7.429 7.638zM21.761 25.407c1.077 1.575 2.757 2.625 4.857 2.625 1.18 0 2.178-.315 2.992-.918.814-.604 1.234-1.47 1.234-2.599 0-1.759-1.155-2.704-3.282-3.649l-1.18-.525c-1.707-.735-2.39-1.207-2.39-2.283 0-1.287 1.103-1.995 2.573-1.995 1.234 0 2.336.55 3.307 1.627l.867-.84c-.945-1.234-2.337-2.021-4.095-2.021-1.129 0-2.074.289-2.861.892-.788.604-1.182 1.392-1.182 2.415 0 1.654 1.129 2.52 3.124 3.387l1.155.498c1.785.814 2.468 1.155 2.599 2.547 0 1.443-1.234 2.23-2.835 2.23s-2.809-.787-3.964-2.257l-.919.867zM42.42 27.77h1.365V10.445H42.42zM58.59 19.764c0-2.94-1.732-4.935-4.646-4.935-1.759 0-3.177.709-4.043 1.969V15.09h-1.26V27.77h1.313v-7.927c0-1.077.341-1.995 1.05-2.704.709-.709 1.627-1.076 2.73-1.076 2.178 0 3.543 1.548 3.543 3.78v7.927h1.313v-8.006zM69.641 26.615c-.656.131-1.26.21-1.759.21-1.706 0-2.756-.735-2.756-2.651v-7.875h4.095V15.09h-4.095v-3.596h-1.339v3.596h-2.204V16.3h2.205v7.927c0 2.625 1.496 3.806 3.885 3.806.656 0 1.312-.078 1.968-.262v-1.155zM83.554 21.733c.079-.29.105-.71.105-1.26 0-3.387-2.546-5.644-5.67-5.644-3.491-.079-6.484 3.018-6.405 6.615-.079 3.596 2.966 6.667 6.562 6.588 2.022 0 3.833-.892 5.093-2.362l-.84-.866c-1.129 1.338-2.546 1.995-4.226 1.995-2.862 0-5.067-2.1-5.224-5.067zM73 20.55c.184-1.312.735-2.388 1.654-3.228.919-.867 1.995-1.287 3.281-1.287 2.442 0 4.463 1.759 4.358 4.515zM93.844 15.091c-.131 0-.473-.078-.814-.078-1.759 0-3.281.76-4.2 2.23v-2.152h-1.26V27.77h1.313v-7.455c0-2.546 2.126-4.069 4.305-4.069h.656v-1.155zM105.499 19.816c0-3.228-1.89-4.987-4.751-4.987-2.022 0-3.623.866-4.857 2.625l.919.735c1.076-1.392 2.257-2.127 3.859-2.127 2.126 0 3.491 1.287 3.491 3.702v1.444h-4.41c-2.651 0-4.41 1.312-4.41 3.386 0 1.076.42 1.942 1.26 2.546.84.604 1.864.893 3.098.893 1.995 0 3.622-.814 4.54-2.258v1.995h1.26zm-1.339 3.229c0 2.179-1.995 3.833-4.331 3.833-1.706 0-3.124-.814-3.124-2.363 0-1.391 1.103-2.179 3.176-2.179h4.279zM109.2 21.418c-.079 3.596 2.966 6.693 6.536 6.615a6.316 6.316 0 005.145-2.6l-.945-.76c-1.102 1.417-2.494 2.126-4.2 2.126-2.914 0-5.171-2.363-5.171-5.382 0-2.966 2.257-5.355 5.197-5.355 1.707 0 3.098.71 4.174 2.127l.945-.762c-1.181-1.6-2.992-2.598-5.119-2.598-3.596-.079-6.64 2.992-6.562 6.588zM131.014 26.615c-.657.131-1.26.21-1.759.21-1.706 0-2.756-.735-2.756-2.651v-7.875h4.095V15.09h-4.095v-3.596h-1.339v3.596h-2.205V16.3h2.205v7.927c0 2.625 1.496 3.806 3.885 3.806.656 0 1.313-.078 1.969-.262v-1.155zM134.19 27.77h1.313V15.091h-1.313zm-.499-17.561c0 .63.499 1.155 1.155 1.155.63 0 1.155-.525 1.155-1.155s-.525-1.155-1.155-1.155c-.656 0-1.155.525-1.155 1.155zM149.52 15.091l-4.646 10.684-4.673-10.684h-1.417l5.827 12.941h.551l5.775-12.94zM164.692 21.733c.08-.29.105-.71.105-1.26 0-3.387-2.546-5.644-5.67-5.644-3.49-.079-6.483 3.018-6.405 6.615-.078 3.596 2.967 6.667 6.563 6.588 2.021 0 3.833-.892 5.093-2.362l-.84-.866c-1.13 1.338-2.547 1.995-4.227 1.995-2.861 0-5.066-2.1-5.224-5.067zM154.14 20.55c.184-1.312.735-2.388 1.654-3.228.918-.867 1.995-1.287 3.281-1.287 2.441 0 4.462 1.759 4.357 4.515zM187.267 27.77h1.444l-7.402-17.587h-.552L173.33 27.77h1.417l1.706-4.121h9.11zm-6.247-15.146l4.016 9.791h-8.059zM202.282 8.082v9.477c-.97-1.68-2.94-2.73-5.118-2.73-3.623 0-6.3 2.913-6.3 6.615 0 3.648 2.756 6.588 6.3 6.588 2.205 0 4.226-1.076 5.171-2.835v2.573h1.26V8.082zm0 13.362c0 3.622-2.362 5.355-4.987 5.355-2.914 0-5.066-2.363-5.066-5.381 0-3.045 2.152-5.355 5.066-5.355 2.625 0 4.987 1.732 4.987 5.38zM207.244 25.407c1.076 1.575 2.756 2.625 4.856 2.625 1.181 0 2.179-.315 2.992-.918.814-.604 1.234-1.47 1.234-2.599 0-1.759-1.155-2.704-3.281-3.649l-1.181-.525c-1.707-.735-2.389-1.207-2.389-2.283 0-1.287 1.103-1.995 2.572-1.995 1.234 0 2.337.55 3.308 1.627l.866-.84c-.945-1.234-2.336-2.021-4.095-2.021-1.129 0-2.074.289-2.861.892-.787.604-1.181 1.392-1.181 2.415 0 1.654 1.128 2.52 3.123 3.387l1.155.498c1.785.814 2.468 1.155 2.6 2.547 0 1.443-1.235 2.23-2.836 2.23-1.601 0-2.809-.787-3.964-2.257l-.918.867zM234.124 26.615c-.657.131-1.26.21-1.759.21-1.706 0-2.756-.735-2.756-2.651v-7.875h4.095V15.09h-4.095v-3.596h-1.339v3.596h-2.205V16.3h2.205v7.927c0 2.625 1.496 3.806 3.885 3.806.656 0 1.312-.078 1.969-.262v-1.155zM246.304 19.816c0-3.228-1.89-4.987-4.752-4.987-2.02 0-3.622.866-4.856 2.625l.919.735c1.076-1.392 2.257-2.127 3.859-2.127 2.126 0 3.491 1.287 3.491 3.702v1.444h-4.41c-2.651 0-4.41 1.312-4.41 3.386 0 1.076.42 1.942 1.26 2.546.84.604 1.864.893 3.097.893 1.995 0 3.623-.814 4.542-2.258v1.995h1.26zm-1.339 3.229c0 2.179-1.995 3.833-4.331 3.833-1.707 0-3.124-.814-3.124-2.363 0-1.391 1.102-2.179 3.176-2.179h4.279zM269.036 19.764c0-2.966-1.68-4.935-4.515-4.935-2.021 0-3.544.997-4.384 2.467-.656-1.548-2.02-2.467-3.99-2.467-1.68 0-3.07.682-3.91 1.916v-1.654h-1.26V27.77h1.312v-7.901c0-2.205 1.496-3.806 3.675-3.806 2.1 0 3.386 1.522 3.386 3.806v7.901h1.313v-8.111c0-1.969 1.548-3.596 3.675-3.596 2.1 0 3.36 1.522 3.36 3.806v7.901h1.338v-8.006zM286.44 21.444c0-3.701-2.756-6.615-6.3-6.615-2.179 0-4.147 1.05-5.119 2.73V8.083h-1.312V27.77h1.26v-2.546c.945 1.706 2.966 2.809 5.171 2.809 3.544 0 6.3-2.94 6.3-6.59zm-1.365-.026c0 3.018-2.152 5.38-5.066 5.38-2.625 0-4.988-1.732-4.988-5.354 0-3.649 2.363-5.382 4.988-5.382 2.913 0 5.066 2.31 5.066 5.355zM301.35 21.733c.079-.29.105-.71.105-1.26 0-3.387-2.546-5.644-5.67-5.644-3.491-.079-6.484 3.018-6.405 6.615-.079 3.596 2.966 6.667 6.563 6.588 2.02 0 3.832-.892 5.092-2.362l-.84-.866c-1.129 1.338-2.546 1.995-4.226 1.995-2.861 0-5.066-2.1-5.224-5.067zm-10.553-1.182c.184-1.312.735-2.388 1.654-3.228.919-.867 1.995-1.287 3.281-1.287 2.442 0 4.463 1.759 4.358 4.515zm4.305-7.586h1.05l2.967-5.434v-.236h-1.628zM323.426 19.764c0-2.966-1.68-4.935-4.515-4.935-2.021 0-3.544.997-4.384 2.467-.656-1.548-2.02-2.467-3.99-2.467-1.68 0-3.07.682-3.91 1.916v-1.654h-1.26V27.77h1.312v-7.901c0-2.205 1.496-3.806 3.675-3.806 2.1 0 3.386 1.522 3.386 3.806v7.901h1.313v-8.111c0-1.969 1.548-3.596 3.675-3.596 2.1 0 3.36 1.522 3.36 3.806v7.901h1.338v-8.006zM348.18 21.418c0-3.65-2.756-6.59-6.3-6.59-2.205 0-4.226 1.103-5.171 2.81V15.09h-1.26v17.404h1.312v-7.166c.971 1.68 2.993 2.703 5.119 2.703 3.544 0 6.3-2.913 6.3-6.615zm-1.365.026c0 3.045-2.152 5.355-5.066 5.355-2.625 0-4.988-1.733-4.988-5.381 0-3.623 2.363-5.355 4.988-5.355 2.913 0 5.066 2.362 5.066 5.38zM351.12 21.418c-.079 3.596 2.966 6.693 6.536 6.615 3.596.078 6.668-3.02 6.589-6.616 0-3.648-2.94-6.588-6.563-6.588-3.596-.079-6.64 2.94-6.562 6.588zm11.76.026c0 2.992-2.31 5.355-5.224 5.355s-5.171-2.363-5.171-5.355c0-3.045 2.257-5.381 5.197-5.381 2.888 0 5.198 2.336 5.198 5.38zM378.604 8.082v9.477c-.971-1.68-2.94-2.73-5.119-2.73-3.623 0-6.3 2.913-6.3 6.615 0 3.648 2.756 6.588 6.3 6.588 2.205 0 4.226-1.076 5.171-2.835v2.573h1.26V8.082zm0 13.362c0 3.622-2.363 5.355-4.988 5.355-2.914 0-5.066-2.363-5.066-5.381 0-3.045 2.152-5.355 5.066-5.355 2.625 0 4.988 1.732 4.988 5.38zM395.797 21.733c.08-.29.105-.71.105-1.26 0-3.387-2.546-5.644-5.67-5.644-3.49-.079-6.483 3.018-6.405 6.615-.078 3.596 2.967 6.667 6.563 6.588 2.021 0 3.833-.892 5.093-2.362l-.84-.866c-1.13 1.338-2.547 1.995-4.227 1.995-2.861 0-5.066-2.1-5.224-5.067zm-10.552-1.182c.184-1.312.735-2.388 1.654-3.228.918-.867 1.995-1.287 3.281-1.287 2.441 0 4.462 1.759 4.357 4.515zM417.874 19.764c0-2.966-1.68-4.935-4.515-4.935-2.021 0-3.544.997-4.384 2.467-.656-1.548-2.021-2.467-3.99-2.467-1.68 0-3.071.682-3.911 1.916v-1.654h-1.26V27.77h1.312v-7.901c0-2.205 1.496-3.806 3.675-3.806 2.1 0 3.386 1.522 3.386 3.806v7.901h1.313v-8.111c0-1.969 1.549-3.596 3.675-3.596 2.1 0 3.36 1.522 3.36 3.806v7.901h1.339v-8.006z" stroke-width=".02625"/></g><g fill="#fff" stroke="#000"><path d="M15.172 60.788c0-3.65-2.756-6.59-6.3-6.59-2.205 0-4.226 1.103-5.17 2.81V54.46h-1.26v17.404h1.312v-7.166c.971 1.68 2.992 2.704 5.118 2.704 3.544 0 6.3-2.914 6.3-6.616zm-1.365.026c0 3.045-2.152 5.355-5.066 5.355-2.625 0-4.987-1.733-4.987-5.381 0-3.623 2.362-5.355 4.987-5.355 2.914 0 5.066 2.362 5.066 5.38zM25.357 54.461c-.13 0-.472-.078-.813-.078-1.759 0-3.282.76-4.2 2.23v-2.152h-1.26V67.14h1.312v-7.455c0-2.546 2.126-4.069 4.305-4.069h.656v-1.155zM27.037 60.788c-.078 3.596 2.967 6.693 6.537 6.615 3.596.078 6.667-3.02 6.588-6.616 0-3.648-2.94-6.588-6.562-6.588-3.596-.079-6.641 2.94-6.563 6.589zm11.76.026c0 2.992-2.31 5.355-5.223 5.355-2.914 0-5.172-2.363-5.172-5.355 0-3.045 2.258-5.381 5.198-5.381 2.887 0 5.197 2.336 5.197 5.38zM56.805 60.788c0-3.65-2.756-6.59-6.3-6.59-2.205 0-4.226 1.103-5.171 2.81V54.46h-1.26v17.404h1.312v-7.166c.971 1.68 2.993 2.704 5.119 2.704 3.544 0 6.3-2.914 6.3-6.616zm-1.365.026c0 3.045-2.153 5.355-5.066 5.355-2.625 0-4.988-1.733-4.988-5.381 0-3.623 2.363-5.355 4.988-5.355 2.913 0 5.066 2.362 5.066 5.38zM59.745 60.788c-.079 3.596 2.966 6.693 6.536 6.615 3.596.078 6.668-3.02 6.589-6.616 0-3.648-2.94-6.588-6.563-6.588-3.596-.079-6.64 2.94-6.562 6.589zm11.76.026c0 2.992-2.31 5.355-5.224 5.355s-5.171-2.363-5.171-5.355c0-3.045 2.257-5.381 5.197-5.381 2.888 0 5.198 2.336 5.198 5.38zM83.055 54.461c-.131 0-.473-.078-.814-.078-1.759 0-3.281.76-4.2 2.23v-2.152h-1.26V67.14h1.313v-7.455c0-2.546 2.126-4.069 4.305-4.069h.656v-1.155zM84.735 60.788c-.079 3.596 2.966 6.693 6.536 6.615a6.316 6.316 0 005.145-2.6l-.945-.76c-1.102 1.417-2.494 2.126-4.2 2.126-2.914 0-5.171-2.363-5.171-5.381 0-2.967 2.257-5.355 5.197-5.355 1.707 0 3.098.708 4.174 2.126l.945-.761c-1.181-1.602-2.992-2.6-5.119-2.6-3.596-.078-6.64 2.993-6.562 6.59zM100.196 67.14h1.313V54.461h-1.313zm-.499-17.561c0 .63.5 1.155 1.155 1.155.63 0 1.155-.525 1.155-1.155s-.525-1.155-1.155-1.155c-.656 0-1.155.525-1.155 1.155zM105.42 60.788c-.079 3.596 2.966 6.693 6.536 6.615 3.596.078 6.668-3.02 6.589-6.616 0-3.648-2.94-6.588-6.563-6.588-3.596-.079-6.64 2.94-6.562 6.589zm11.76.026c0 2.992-2.31 5.355-5.224 5.355s-5.171-2.363-5.171-5.355c0-3.045 2.257-5.381 5.197-5.381 2.888 0 5.198 2.336 5.198 5.38zM132.405 59.134c0-2.94-1.733-4.935-4.646-4.935-1.759 0-3.177.708-4.043 1.968v-1.706h-1.26V67.14h1.313v-7.927c0-1.077.341-1.996 1.05-2.704.708-.709 1.627-1.077 2.73-1.077 2.178 0 3.543 1.55 3.543 3.78v7.928h1.313v-8.006zM146.107 59.186c0-3.228-1.89-4.987-4.75-4.987-2.022 0-3.623.866-4.857 2.625l.919.735c1.076-1.391 2.257-2.126 3.858-2.126 2.127 0 3.492 1.286 3.492 3.7v1.445h-4.41c-2.652 0-4.41 1.312-4.41 3.386 0 1.076.42 1.942 1.26 2.546.84.604 1.863.892 3.097.892 1.995 0 3.623-.813 4.541-2.257v1.995h1.26zm-1.338 3.229c0 2.179-1.995 3.833-4.332 3.833-1.706 0-3.123-.814-3.123-2.363 0-1.391 1.102-2.179 3.176-2.179h4.279zM157.054 54.461c-.132 0-.473-.078-.814-.078-1.759 0-3.281.76-4.2 2.23v-2.152h-1.26V67.14h1.313v-7.455c0-2.546 2.126-4.069 4.305-4.069h.656v-1.155zM178.316 61.102c.079-.288.105-.708.105-1.26 0-3.386-2.546-5.643-5.67-5.643-3.491-.079-6.484 3.019-6.405 6.615-.079 3.596 2.966 6.667 6.563 6.589 2.021 0 3.832-.893 5.092-2.363l-.84-.866c-1.129 1.339-2.546 1.995-4.226 1.995-2.861 0-5.066-2.1-5.224-5.066zm-10.552-1.18c.183-1.313.735-2.39 1.653-3.23.92-.866 1.995-1.286 3.282-1.286 2.441 0 4.462 1.759 4.357 4.515zM191.546 67.14l-4.856-6.615 4.462-6.064h-1.575l-3.675 5.093-3.622-5.093h-1.575l4.41 6.012-4.804 6.667h1.575l4.043-5.67 4.042 5.67zM207.401 60.788c0-3.65-2.756-6.59-6.3-6.59-2.205 0-4.226 1.103-5.171 2.81V54.46h-1.26v17.404h1.312v-7.166c.972 1.68 2.993 2.704 5.12 2.704 3.543 0 6.3-2.914 6.3-6.616zm-1.365.026c0 3.045-2.152 5.355-5.066 5.355-2.625 0-4.988-1.733-4.988-5.381 0-3.623 2.363-5.355 4.988-5.355 2.914 0 5.066 2.362 5.066 5.38zM222.311 61.102c.079-.288.105-.708.105-1.26 0-3.386-2.546-5.643-5.67-5.643-3.491-.079-6.484 3.019-6.405 6.615-.079 3.596 2.966 6.667 6.563 6.589 2.021 0 3.832-.893 5.092-2.363l-.84-.866c-1.129 1.339-2.546 1.995-4.226 1.995-2.861 0-5.066-2.1-5.224-5.066zm-10.552-1.18c.183-1.313.735-2.39 1.653-3.23.92-.866 1.995-1.286 3.282-1.286 2.441 0 4.462 1.759 4.357 4.515zM232.601 54.461c-.131 0-.472-.078-.814-.078-1.758 0-3.28.76-4.2 2.23v-2.152h-1.26V67.14h1.313v-7.455c0-2.546 2.126-4.069 4.305-4.069h.656v-1.155zM235.515 67.14h1.312V54.461h-1.312zm-.499-17.561c0 .63.499 1.155 1.155 1.155.63 0 1.155-.525 1.155-1.155s-.525-1.155-1.155-1.155c-.656 0-1.155.525-1.155 1.155zM252.709 61.102c.078-.288.105-.708.105-1.26 0-3.386-2.547-5.643-5.67-5.643-3.492-.079-6.484 3.019-6.405 6.615-.079 3.596 2.966 6.667 6.562 6.589 2.021 0 3.833-.893 5.093-2.363l-.84-.866c-1.129 1.339-2.547 1.995-4.227 1.995-2.86 0-5.066-2.1-5.223-5.066zm-10.553-1.18c.184-1.313.735-2.39 1.654-3.23.919-.866 1.995-1.286 3.281-1.286 2.441 0 4.463 1.759 4.358 4.515zm8.768-7.587l-3.544-5.67h-.788l-3.57 5.67h1.103l2.861-3.99 2.861 3.99zM266.674 59.134c0-2.94-1.733-4.935-4.647-4.935-1.758 0-3.176.708-4.042 1.968v-1.706h-1.26V67.14h1.312v-7.927c0-1.077.342-1.996 1.05-2.704.71-.709 1.628-1.077 2.73-1.077 2.18 0 3.544 1.55 3.544 3.78v7.928h1.313v-8.006zM270.401 60.788c-.079 3.596 2.966 6.693 6.536 6.615a6.316 6.316 0 005.145-2.6l-.945-.76c-1.102 1.417-2.493 2.126-4.2 2.126-2.913 0-5.17-2.363-5.17-5.381 0-2.967 2.257-5.355 5.197-5.355 1.706 0 3.097.708 4.173 2.126l.945-.761c-1.18-1.602-2.992-2.6-5.118-2.6-3.597-.078-6.642 2.993-6.563 6.59zM285.862 67.14h1.313V54.461h-1.313zm-.498-17.561c0 .63.499 1.155 1.155 1.155.63 0 1.155-.525 1.155-1.155s-.525-1.155-1.155-1.155c-.657 0-1.155.525-1.155 1.155zM301.061 59.186c0-3.228-1.89-4.987-4.751-4.987-2.021 0-3.623.866-4.856 2.625l.918.735c1.077-1.391 2.258-2.126 3.86-2.126 2.125 0 3.49 1.286 3.49 3.7v1.445h-4.41c-2.65 0-4.41 1.312-4.41 3.386 0 1.076.42 1.942 1.26 2.546.84.604 1.864.892 3.098.892 1.995 0 3.622-.813 4.541-2.257v1.995h1.26zm-1.339 3.229c0 2.179-1.995 3.833-4.33 3.833-1.707 0-3.125-.814-3.125-2.363 0-1.391 1.103-2.179 3.177-2.179h4.278zM304.5 64.778c1.076 1.574 2.756 2.624 4.856 2.624 1.181 0 2.179-.314 2.993-.918.813-.604 1.233-1.47 1.233-2.599 0-1.759-1.155-2.704-3.28-3.649l-1.182-.525c-1.706-.735-2.389-1.207-2.389-2.283 0-1.287 1.103-1.995 2.573-1.995 1.233 0 2.336.55 3.307 1.627l.866-.84c-.945-1.234-2.336-2.021-4.095-2.021-1.128 0-2.073.288-2.86.892-.788.604-1.182 1.391-1.182 2.415 0 1.654 1.129 2.52 3.124 3.386l1.155.5c1.785.813 2.467 1.154 2.598 2.545 0 1.444-1.233 2.232-2.835 2.232-1.6 0-2.808-.788-3.963-2.258l-.919.866zM335.475 47.453v9.476c-.971-1.68-2.94-2.73-5.119-2.73-3.622 0-6.3 2.914-6.3 6.615 0 3.649 2.756 6.589 6.3 6.589 2.205 0 4.226-1.077 5.171-2.836v2.573h1.26V47.453zm0 13.36c0 3.623-2.363 5.356-4.988 5.356-2.913 0-5.066-2.363-5.066-5.381 0-3.045 2.153-5.355 5.066-5.355 2.625 0 4.988 1.732 4.988 5.38zM352.669 61.102c.078-.288.105-.708.105-1.26 0-3.386-2.547-5.643-5.67-5.643-3.492-.079-6.484 3.019-6.405 6.615-.079 3.596 2.966 6.667 6.562 6.589 2.021 0 3.833-.893 5.093-2.363l-.84-.866c-1.129 1.339-2.547 1.995-4.227 1.995-2.86 0-5.066-2.1-5.223-5.066zm-10.553-1.18c.184-1.313.735-2.39 1.654-3.23.919-.866 1.995-1.286 3.281-1.286 2.441 0 4.463 1.759 4.358 4.515z" stroke-width=".02625"/></g><g fill="#fff" stroke="#000"><path d="M13.44 100.472c.079-.288.105-.708.105-1.26 0-3.386-2.546-5.643-5.67-5.643-3.491-.079-6.484 3.018-6.405 6.615-.079 3.596 2.966 6.667 6.563 6.588 2.02 0 3.832-.892 5.092-2.362l-.84-.866c-1.129 1.339-2.546 1.995-4.226 1.995-2.861 0-5.066-2.1-5.224-5.066zm-10.553-1.18c.184-1.313.735-2.39 1.654-3.23.919-.866 1.995-1.286 3.281-1.286 2.442 0 4.463 1.759 4.358 4.515zM27.405 98.504c0-2.94-1.733-4.935-4.646-4.935-1.759 0-3.177.708-4.043 1.968v-1.706h-1.26v12.679h1.313v-7.928c0-1.076.341-1.994 1.05-2.703.708-.709 1.627-1.077 2.73-1.077 2.178 0 3.543 1.55 3.543 3.78v7.928h1.313v-8.006zM38.456 105.355c-.656.131-1.26.21-1.759.21-1.706 0-2.756-.735-2.756-2.651v-7.875h4.095V93.83h-4.095v-3.596h-1.339v3.596h-2.204v1.208h2.205v7.927c0 2.625 1.496 3.806 3.884 3.806.657 0 1.313-.078 1.97-.262v-1.155zM47.906 93.831c-.131 0-.472-.079-.813-.079-1.76 0-3.282.762-4.2 2.232V93.83h-1.26v12.679h1.312v-7.455c0-2.546 2.126-4.069 4.305-4.069h.656v-1.155zM61.556 100.472c.079-.288.105-.708.105-1.26 0-3.386-2.546-5.643-5.67-5.643-3.491-.079-6.484 3.018-6.405 6.615-.079 3.596 2.966 6.667 6.563 6.588 2.021 0 3.832-.892 5.092-2.362l-.84-.866c-1.129 1.339-2.546 1.995-4.226 1.995-2.861 0-5.066-2.1-5.224-5.066zm-10.552-1.18c.183-1.313.735-2.39 1.653-3.23.92-.866 1.995-1.286 3.282-1.286 2.441 0 4.462 1.759 4.357 4.515zM71.925 105.355c-.656.131-1.26.21-1.759.21-1.706 0-2.756-.735-2.756-2.651v-7.875h4.095V93.83H67.41v-3.596h-1.339v3.596h-2.205v1.208h2.205v7.927c0 2.625 1.496 3.806 3.885 3.806.656 0 1.313-.078 1.969-.262v-1.155zM85.837 100.472c.08-.288.105-.708.105-1.26 0-3.386-2.546-5.643-5.67-5.643-3.49-.079-6.483 3.018-6.405 6.615-.078 3.596 2.967 6.667 6.563 6.588 2.021 0 3.832-.892 5.092-2.362l-.84-.866c-1.128 1.339-2.546 1.995-4.226 1.995-2.861 0-5.066-2.1-5.224-5.066zm-10.552-1.18c.184-1.313.735-2.39 1.654-3.23.919-.866 1.995-1.286 3.281-1.286 2.441 0 4.462 1.759 4.357 4.515zM99.802 98.504c0-2.94-1.732-4.935-4.646-4.935-1.759 0-3.176.708-4.042 1.968v-1.706h-1.26v12.679h1.312v-7.928c0-1.076.341-1.994 1.05-2.703.709-.709 1.628-1.077 2.73-1.077 2.179 0 3.544 1.55 3.544 3.78v7.928h1.313v-8.006zM104.501 106.51h1.313V93.831H104.5zm-.499-17.561c0 .63.5 1.155 1.155 1.155.63 0 1.155-.525 1.155-1.155s-.525-1.155-1.155-1.155c-.656 0-1.155.525-1.155 1.155zM128.756 98.504c0-2.967-1.68-4.935-4.515-4.935-2.021 0-3.544.997-4.384 2.467-.656-1.549-2.02-2.467-3.99-2.467-1.68 0-3.07.682-3.91 1.916v-1.654h-1.26v12.679h1.312v-7.901c0-2.205 1.496-3.807 3.675-3.807 2.1 0 3.386 1.523 3.386 3.807v7.901h1.312v-8.111c0-1.969 1.55-3.597 3.675-3.597 2.1 0 3.36 1.523 3.36 3.807v7.901h1.34v-8.006zM144.427 100.472c.08-.288.105-.708.105-1.26 0-3.386-2.546-5.643-5.67-5.643-3.49-.079-6.483 3.018-6.405 6.615-.078 3.596 2.967 6.667 6.563 6.588 2.021 0 3.832-.892 5.092-2.362l-.84-.866c-1.128 1.339-2.546 1.995-4.226 1.995-2.861 0-5.066-2.1-5.224-5.066zm-10.552-1.18c.184-1.313.735-2.39 1.654-3.23.918-.866 1.995-1.286 3.281-1.286 2.441 0 4.462 1.759 4.357 4.515zM158.392 98.504c0-2.94-1.732-4.935-4.646-4.935-1.759 0-3.176.708-4.042 1.968v-1.706h-1.26v12.679h1.312v-7.928c0-1.076.341-1.994 1.05-2.703.709-.709 1.628-1.077 2.73-1.077 2.179 0 3.544 1.55 3.544 3.78v7.928h1.312v-8.006zM169.444 105.355c-.657.131-1.26.21-1.759.21-1.706 0-2.756-.735-2.756-2.651v-7.875h4.095V93.83h-4.095v-3.596h-1.339v3.596h-2.205v1.208h2.205v7.927c0 2.625 1.496 3.806 3.885 3.806.656 0 1.312-.078 1.969-.262v-1.155zM171.386 100.157c-.079 3.597 2.966 6.694 6.536 6.615 3.597.08 6.668-3.018 6.59-6.615 0-3.648-2.94-6.588-6.563-6.588-3.597-.079-6.642 2.94-6.563 6.588zm11.76.027c0 2.992-2.31 5.355-5.224 5.355-2.913 0-5.17-2.363-5.17-5.355 0-3.045 2.257-5.382 5.197-5.382 2.887 0 5.197 2.337 5.197 5.382zM188.344 111.235h1.129l.944-6.694h-1.627zM213.36 93.831v2.573c-.945-1.759-2.966-2.835-5.171-2.835-3.544 0-6.3 2.94-6.3 6.589 0 3.7 2.677 6.615 6.3 6.615 2.126 0 4.147-1.024 5.119-2.704v7.166h1.312V93.831zm-.053 6.326c0 3.65-2.362 5.382-4.987 5.382-2.914 0-5.066-2.31-5.066-5.355 0-3.019 2.152-5.382 5.066-5.382 2.625 0 4.987 1.733 4.987 5.355zM219.319 101.706c0 3.071 2.178 5.066 4.987 5.066 2.783 0 4.961-1.995 4.961-5.066v-7.875h-1.312v7.928c0 2.31-1.575 3.78-3.649 3.78-2.1 0-3.675-1.47-3.675-3.78V93.83h-1.312v7.875zM244.965 100.472c.079-.288.105-.708.105-1.26 0-3.386-2.546-5.643-5.67-5.643-3.491-.079-6.484 3.018-6.405 6.615-.079 3.596 2.966 6.667 6.562 6.588 2.022 0 3.833-.892 5.093-2.362l-.84-.866c-1.129 1.339-2.546 1.995-4.226 1.995-2.862 0-5.067-2.1-5.224-5.066zm-10.553-1.18c.184-1.313.735-2.39 1.654-3.23.919-.866 1.995-1.286 3.281-1.286 2.442 0 4.463 1.759 4.358 4.515zM269.062 100.157c0-3.648-2.756-6.588-6.3-6.588-2.205 0-4.226 1.102-5.17 2.808v-2.546h-1.26v17.404h1.312v-7.166c.971 1.68 2.992 2.703 5.118 2.703 3.544 0 6.3-2.913 6.3-6.615zm-1.365.027c0 3.045-2.152 5.355-5.066 5.355-2.625 0-4.987-1.733-4.987-5.382 0-3.622 2.362-5.354 4.987-5.354 2.914 0 5.066 2.362 5.066 5.38zM279.247 93.831c-.13 0-.472-.079-.813-.079-1.759 0-3.282.762-4.2 2.232V93.83h-1.26v12.679h1.312v-7.455c0-2.546 2.126-4.069 4.305-4.069h.656v-1.155zM280.928 100.157c-.08 3.597 2.966 6.694 6.536 6.615 3.596.08 6.667-3.018 6.589-6.615 0-3.648-2.94-6.588-6.563-6.588-3.596-.079-6.641 2.94-6.563 6.588zm11.76.027c0 2.992-2.31 5.355-5.224 5.355s-5.171-2.363-5.171-5.355c0-3.045 2.257-5.382 5.197-5.382 2.887 0 5.197 2.337 5.197 5.382zM316.024 98.504c0-2.967-1.68-4.935-4.515-4.935-2.022 0-3.544.997-4.384 2.467-.656-1.549-2.021-2.467-3.99-2.467-1.68 0-3.071.682-3.911 1.916v-1.654h-1.26v12.679h1.312v-7.901c0-2.205 1.496-3.807 3.675-3.807 2.1 0 3.386 1.523 3.386 3.807v7.901h1.313v-8.111c0-1.969 1.549-3.597 3.675-3.597 2.1 0 3.36 1.523 3.36 3.807v7.901h1.339v-8.006zM319.725 100.157c-.079 3.597 2.966 6.694 6.536 6.615 3.596.08 6.668-3.018 6.589-6.615 0-3.648-2.94-6.588-6.563-6.588-3.596-.079-6.64 2.94-6.562 6.588zm11.76.027c0 2.992-2.31 5.355-5.224 5.355s-5.171-2.363-5.171-5.355c0-3.045 2.258-5.382 5.198-5.382 2.887 0 5.197 2.337 5.197 5.382zM345.371 93.831l-4.646 10.684-4.672-10.684h-1.418l5.827 12.941h.552l5.775-12.94zM358.549 98.556c0-3.229-1.89-4.987-4.751-4.987-2.022 0-3.623.866-4.857 2.625l.919.735c1.076-1.392 2.257-2.127 3.859-2.127 2.126 0 3.491 1.287 3.491 3.702v1.443h-4.41c-2.651 0-4.41 1.313-4.41 3.387 0 1.076.42 1.942 1.26 2.546.84.604 1.864.892 3.097.892 1.995 0 3.623-.813 4.542-2.257v1.995h1.26zm-1.339 3.229c0 2.179-1.995 3.833-4.331 3.833-1.707 0-3.124-.814-3.124-2.363 0-1.391 1.103-2.179 3.176-2.179h4.279zM381.281 98.504c0-2.967-1.68-4.935-4.515-4.935-2.021 0-3.544.997-4.384 2.467-.656-1.549-2.02-2.467-3.99-2.467-1.68 0-3.07.682-3.91 1.916v-1.654h-1.26v12.679h1.312v-7.901c0-2.205 1.496-3.807 3.675-3.807 2.1 0 3.386 1.523 3.386 3.807v7.901h1.313v-8.111c0-1.969 1.548-3.597 3.675-3.597 2.1 0 3.36 1.523 3.36 3.807v7.901h1.338v-8.006z" stroke-width=".02625"/></g><g fill="#fff" stroke="#000"><path d="M15.172 139.528c0-3.65-2.756-6.59-6.3-6.59-2.205 0-4.226 1.103-5.17 2.81V133.2h-1.26v17.404h1.312v-7.166c.971 1.68 2.992 2.704 5.118 2.704 3.544 0 6.3-2.914 6.3-6.615zm-1.365.026c0 3.045-2.152 5.355-5.066 5.355-2.625 0-4.987-1.733-4.987-5.381 0-3.623 2.362-5.355 4.987-5.355 2.914 0 5.066 2.362 5.066 5.38zM25.357 133.201c-.13 0-.472-.079-.813-.079-1.759 0-3.282.762-4.2 2.232V133.2h-1.26v12.679h1.312v-7.455c0-2.546 2.126-4.069 4.305-4.069h.656v-1.155zM27.037 139.528c-.078 3.596 2.967 6.693 6.537 6.615 3.596.078 6.667-3.02 6.588-6.615 0-3.65-2.94-6.59-6.562-6.59-3.596-.078-6.641 2.94-6.563 6.59zm11.76.026c0 2.992-2.31 5.355-5.223 5.355-2.914 0-5.172-2.363-5.172-5.355 0-3.045 2.258-5.381 5.198-5.381 2.887 0 5.197 2.336 5.197 5.38zM54.521 126.192v9.477c-.971-1.68-2.94-2.73-5.119-2.73-3.622 0-6.3 2.914-6.3 6.615 0 3.649 2.757 6.589 6.3 6.589 2.205 0 4.227-1.077 5.172-2.835v2.572h1.26v-19.688zm0 13.362c0 3.622-2.362 5.355-4.987 5.355-2.914 0-5.067-2.363-5.067-5.381 0-3.045 2.153-5.355 5.067-5.355 2.625 0 4.987 1.732 4.987 5.38zM60.532 141.076c0 3.071 2.18 5.066 4.988 5.066 2.782 0 4.961-1.995 4.961-5.066v-7.875H69.17v7.928c0 2.31-1.575 3.78-3.649 3.78-2.1 0-3.675-1.47-3.675-3.78V133.2h-1.313v7.875zM81.532 144.725c-.656.131-1.26.21-1.758.21-1.707 0-2.757-.735-2.757-2.651v-7.875h4.096V133.2h-4.096v-3.596H75.68v3.596h-2.205v1.208h2.205v7.927c0 2.625 1.496 3.806 3.885 3.806.656 0 1.312-.078 1.969-.262v-1.155zM83.475 139.528c-.079 3.596 2.966 6.693 6.536 6.615 3.596.078 6.668-3.02 6.589-6.615 0-3.65-2.94-6.59-6.563-6.59-3.596-.078-6.64 2.94-6.562 6.59zm11.76.026c0 2.992-2.31 5.355-5.224 5.355-2.913 0-5.171-2.363-5.171-5.355 0-3.045 2.257-5.381 5.197-5.381 2.888 0 5.198 2.336 5.198 5.38zM99.277 143.517c1.077 1.575 2.757 2.625 4.857 2.625 1.181 0 2.178-.315 2.992-.918.814-.604 1.234-1.47 1.234-2.599 0-1.759-1.155-2.704-3.281-3.649l-1.181-.525c-1.707-.735-2.39-1.207-2.39-2.284 0-1.286 1.103-1.995 2.573-1.995 1.234 0 2.336.552 3.308 1.628l.866-.84c-.945-1.234-2.336-2.021-4.095-2.021-1.129 0-2.074.288-2.861.892-.788.604-1.182 1.391-1.182 2.415 0 1.654 1.13 2.52 3.124 3.386l1.155.5c1.785.813 2.468 1.154 2.599 2.545 0 1.444-1.234 2.232-2.835 2.232s-2.809-.788-3.964-2.258l-.919.866zM118.834 139.528c-.079 3.596 2.966 6.693 6.536 6.615 3.596.078 6.667-3.02 6.589-6.615 0-3.65-2.94-6.59-6.563-6.59-3.596-.078-6.641 2.94-6.562 6.59zm11.76.026c0 2.992-2.31 5.355-5.224 5.355s-5.171-2.363-5.171-5.355c0-3.045 2.257-5.381 5.197-5.381 2.888 0 5.198 2.336 5.198 5.38zM135.686 141.076c0 3.071 2.179 5.066 4.988 5.066 2.782 0 4.961-1.995 4.961-5.066v-7.875h-1.313v7.928c0 2.31-1.575 3.78-3.648 3.78-2.1 0-3.675-1.47-3.675-3.78V133.2h-1.313v7.875zM156.45 143.517c1.076 1.575 2.756 2.625 4.856 2.625 1.181 0 2.179-.315 2.993-.918.813-.604 1.233-1.47 1.233-2.599 0-1.759-1.155-2.704-3.28-3.649l-1.182-.525c-1.706-.735-2.389-1.207-2.389-2.284 0-1.286 1.103-1.995 2.573-1.995 1.233 0 2.336.552 3.307 1.628l.866-.84c-.945-1.234-2.336-2.021-4.095-2.021-1.128 0-2.073.288-2.86.892-.788.604-1.182 1.391-1.182 2.415 0 1.654 1.129 2.52 3.124 3.386l1.155.5c1.785.813 2.467 1.154 2.598 2.545 0 1.444-1.233 2.232-2.835 2.232-1.6 0-2.808-.788-3.963-2.258l-.919.866zM180.626 139.843c.079-.29.105-.71.105-1.26 0-3.387-2.546-5.644-5.67-5.644-3.491-.079-6.484 3.019-6.405 6.615-.079 3.596 2.966 6.667 6.563 6.589 2.021 0 3.832-.893 5.092-2.363l-.84-.866c-1.129 1.339-2.546 1.995-4.226 1.995-2.861 0-5.066-2.1-5.224-5.066zm-10.552-1.182c.183-1.312.735-2.389 1.653-3.229.92-.866 1.995-1.286 3.282-1.286 2.441 0 4.462 1.759 4.357 4.515zM190.916 133.201c-.131 0-.472-.079-.814-.079-1.758 0-3.28.762-4.2 2.232V133.2h-1.26v12.679h1.313v-7.455c0-2.546 2.126-4.069 4.305-4.069h.656v-1.155zM202.965 133.201l-4.646 10.684-4.673-10.684h-1.417l5.827 12.941h.551l5.775-12.94zM207.664 145.88h1.312v-12.679h-1.312zm-.499-17.561c0 .63.499 1.155 1.155 1.155.63 0 1.155-.525 1.155-1.155s-.525-1.155-1.155-1.155c-.656 0-1.155.525-1.155 1.155zM212.887 139.528c-.078 3.596 2.967 6.693 6.537 6.615a6.316 6.316 0 005.145-2.6l-.945-.76c-1.103 1.417-2.494 2.126-4.2 2.126-2.914 0-5.172-2.363-5.172-5.381 0-2.967 2.258-5.355 5.198-5.355 1.706 0 3.097.708 4.174 2.126l.945-.761c-1.181-1.602-2.993-2.6-5.119-2.6-3.596-.078-6.641 2.993-6.563 6.59zm3.413 11.077a6.084 6.084 0 001.759.263c1.916 0 3.15-1.234 3.15-2.836 0-1.18-.735-2.126-1.864-2.65l-.499.393c.709.604 1.129 1.234 1.129 2.1 0 1.26-.866 1.89-2.1 1.89a6.76 6.76 0 01-1.575-.184zM227.115 139.528c-.079 3.596 2.966 6.693 6.536 6.615 3.596.078 6.668-3.02 6.589-6.615 0-3.65-2.94-6.59-6.563-6.59-3.596-.078-6.64 2.94-6.562 6.59zm11.76.026c0 2.992-2.31 5.355-5.224 5.355s-5.171-2.363-5.171-5.355c0-3.045 2.257-5.381 5.197-5.381 2.888 0 5.198 2.336 5.198 5.38zM242.917 143.517c1.077 1.575 2.757 2.625 4.857 2.625 1.181 0 2.178-.315 2.992-.918.814-.604 1.234-1.47 1.234-2.599 0-1.759-1.155-2.704-3.281-3.649l-1.182-.525c-1.706-.735-2.388-1.207-2.388-2.284 0-1.286 1.102-1.995 2.572-1.995 1.234 0 2.336.552 3.308 1.628l.866-.84c-.945-1.234-2.336-2.021-4.095-2.021-1.129 0-2.074.288-2.861.892-.788.604-1.182 1.391-1.182 2.415 0 1.654 1.13 2.52 3.124 3.386l1.155.5c1.785.813 2.468 1.154 2.599 2.545 0 1.444-1.234 2.232-2.835 2.232s-2.809-.788-3.964-2.258l-.919.866zM256.042 144.882c0 .735.604 1.26 1.26 1.26.735 0 1.313-.525 1.313-1.26 0-.813-.578-1.312-1.313-1.312-.708 0-1.26.551-1.26 1.313z" stroke-width=".02625"/></g></svg>