<svg width="699.375" height="101" viewBox="0 0 699.375 101" xmlns="http://www.w3.org/2000/svg"><g fill="#fff" stroke="#000"><path d="M48.593 23.8h1.17v-6.66h3.87c2.79 0 4.5-1.732 4.5-4.117 0-2.34-1.71-4.073-4.5-4.073h-5.04zm1.17-7.717v-6.075h3.825c2.137 0 3.33 1.237 3.33 3.037 0 1.8-1.193 3.038-3.33 3.038zM59.865 18.355c-.067 3.083 2.543 5.737 5.603 5.67 3.082.068 5.715-2.587 5.647-5.67 0-3.128-2.52-5.648-5.625-5.648-3.082-.067-5.692 2.52-5.625 5.648zm10.08.022c0 2.566-1.98 4.59-4.477 4.59-2.498 0-4.433-2.024-4.433-4.59 0-2.61 1.935-4.612 4.455-4.612 2.475 0 4.455 2.002 4.455 4.612zM83.423 6.925v8.123c-.833-1.44-2.52-2.34-4.388-2.34-3.105 0-5.4 2.497-5.4 5.67 0 3.127 2.363 5.647 5.4 5.647 1.89 0 3.623-.922 4.433-2.43V23.8h1.08V6.925zm0 11.453c0 3.104-2.025 4.59-4.275 4.59-2.498 0-4.343-2.026-4.343-4.613 0-2.61 1.845-4.59 4.343-4.59 2.25 0 4.275 1.485 4.275 4.612zM98.16 18.625c.068-.247.09-.607.09-1.08 0-2.902-2.182-4.837-4.86-4.837-2.992-.068-5.557 2.587-5.49 5.67-.067 3.082 2.543 5.715 5.625 5.647 1.733 0 3.285-.765 4.365-2.025l-.72-.742c-.967 1.147-2.182 1.71-3.622 1.71-2.453 0-4.343-1.8-4.478-4.343zm-9.045-1.012c.158-1.125.63-2.048 1.418-2.768.787-.742 1.71-1.103 2.812-1.103 2.093 0 3.825 1.508 3.735 3.87zM117.083 16.938c0-2.543-1.44-4.23-3.87-4.23-1.733 0-3.038.854-3.758 2.114-.562-1.327-1.732-2.114-3.42-2.114-1.44 0-2.632.584-3.352 1.642v-1.417h-1.08V23.8h1.125v-6.773c0-1.89 1.282-3.262 3.15-3.262 1.8 0 2.902 1.305 2.902 3.262V23.8h1.125v-6.953c0-1.687 1.328-3.082 3.15-3.082 1.8 0 2.88 1.305 2.88 3.262V23.8h1.148v-6.863zM120.255 18.355c-.067 3.083 2.543 5.737 5.603 5.67 3.082.068 5.715-2.587 5.647-5.67 0-3.128-2.52-5.648-5.625-5.648-3.082-.067-5.692 2.52-5.625 5.648zm10.08.022c0 2.566-1.98 4.59-4.477 4.59-2.498 0-4.433-2.024-4.433-4.59 0-2.61 1.935-4.612 4.455-4.612 2.475 0 4.455 2.002 4.455 4.612zM133.8 21.775c.923 1.35 2.363 2.25 4.163 2.25 1.012 0 1.867-.27 2.565-.787.697-.518 1.057-1.26 1.057-2.228 0-1.507-.99-2.317-2.812-3.127l-1.013-.45c-1.462-.63-2.047-1.035-2.047-1.958 0-1.102.945-1.71 2.205-1.71 1.057 0 2.002.472 2.835 1.395l.742-.72c-.81-1.057-2.002-1.732-3.51-1.732-.967 0-1.777.247-2.452.764-.675.518-1.013 1.193-1.013 2.07 0 1.418.968 2.16 2.678 2.903l.99.427c1.53.698 2.115.99 2.227 2.183 0 1.238-1.057 1.912-2.43 1.912-1.372 0-2.407-.674-3.397-1.934l-.788.742zM157.538 19.683c0 2.632 1.867 4.342 4.275 4.342 2.385 0 4.252-1.71 4.252-4.342v-6.75h-1.125v6.795c0 1.98-1.35 3.24-3.127 3.24-1.8 0-3.15-1.26-3.15-3.24v-6.796h-1.125v6.75zM169.035 21.775c.923 1.35 2.363 2.25 4.163 2.25 1.012 0 1.867-.27 2.565-.787.697-.518 1.057-1.26 1.057-2.228 0-1.507-.99-2.317-2.812-3.127l-1.013-.45c-1.462-.63-2.047-1.035-2.047-1.958 0-1.102.945-1.71 2.205-1.71 1.057 0 2.002.472 2.835 1.395l.742-.72c-.81-1.057-2.002-1.732-3.51-1.732-.967 0-1.777.247-2.452.764-.675.518-1.013 1.193-1.013 2.07 0 1.418.968 2.16 2.678 2.903l.99.427c1.53.698 2.115.99 2.227 2.183 0 1.238-1.057 1.912-2.43 1.912-1.372 0-2.407-.674-3.397-1.934l-.788.742zM188.048 16.983c0-2.768-1.62-4.275-4.073-4.275-1.732 0-3.105.742-4.162 2.25l.787.63c.923-1.193 1.935-1.823 3.308-1.823 1.822 0 2.992 1.103 2.992 3.173v1.237h-3.78c-2.272 0-3.78 1.125-3.78 2.903 0 .922.36 1.665 1.08 2.182.72.518 1.598.765 2.655.765 1.71 0 3.105-.697 3.893-1.935v1.71h1.08zM186.9 19.75c0 1.867-1.71 3.285-3.712 3.285-1.463 0-2.678-.698-2.678-2.025 0-1.192.945-1.867 2.723-1.867h3.667zM197.43 12.933c-.112 0-.405-.068-.697-.068-1.508 0-2.813.652-3.6 1.912v-1.844h-1.08V23.8h1.125v-6.39c0-2.183 1.822-3.488 3.69-3.488h.562v-.99zM205.395 18.355c-.067 3.083 2.543 5.737 5.603 5.67 3.082.068 5.715-2.587 5.647-5.67 0-3.128-2.52-5.648-5.625-5.648-3.082-.067-5.692 2.52-5.625 5.648zm10.08.022c0 2.566-1.98 4.59-4.477 4.59-2.498 0-4.433-2.024-4.433-4.59 0-2.61 1.935-4.612 4.455-4.612 2.475 0 4.455 2.002 4.455 4.612zM218.94 21.775c.923 1.35 2.363 2.25 4.163 2.25 1.012 0 1.867-.27 2.565-.787.697-.518 1.057-1.26 1.057-2.228 0-1.507-.99-2.317-2.812-3.127l-1.013-.45c-1.462-.63-2.047-1.035-2.047-1.958 0-1.102.945-1.71 2.205-1.71 1.057 0 2.002.472 2.835 1.395l.742-.72c-.81-1.057-2.002-1.732-3.51-1.732-.967 0-1.777.247-2.452.764-.675.518-1.013 1.193-1.013 2.07 0 1.418.968 2.16 2.678 2.903l.99.427c1.53.698 2.115.99 2.227 2.183 0 1.238-1.057 1.912-2.43 1.912-1.372 0-2.407-.674-3.397-1.934l-.788.742zM242.948 23.8h1.17V8.95h-1.17zM256.808 16.938c0-2.52-1.485-4.23-3.983-4.23-1.507 0-2.722.607-3.465 1.687v-1.462h-1.08V23.8h1.125v-6.795c0-.923.293-1.71.9-2.318.608-.607 1.395-.922 2.34-.922 1.868 0 3.038 1.327 3.038 3.24V23.8h1.125v-6.863zM266.28 22.81c-.562.113-1.08.18-1.507.18-1.463 0-2.363-.63-2.363-2.272v-6.75h3.51v-1.035h-3.51V9.85h-1.147v3.083h-1.89v1.035h1.89v6.795c0 2.25 1.282 3.262 3.33 3.262.562 0 1.125-.067 1.687-.225v-.99zM278.205 18.625c.068-.247.09-.607.09-1.08 0-2.902-2.182-4.837-4.86-4.837-2.992-.068-5.557 2.587-5.49 5.67-.067 3.082 2.543 5.715 5.625 5.647 1.733 0 3.285-.765 4.365-2.025l-.72-.742c-.967 1.147-2.182 1.71-3.622 1.71-2.453 0-4.343-1.8-4.478-4.343zm-9.045-1.012c.158-1.125.63-2.048 1.418-2.768.787-.742 1.71-1.103 2.812-1.103 2.093 0 3.825 1.508 3.735 3.87zM287.025 12.933c-.112 0-.405-.068-.697-.068-1.508 0-2.813.652-3.6 1.912v-1.844h-1.08V23.8h1.125v-6.39c0-2.183 1.822-3.488 3.69-3.488h.562v-.99zM297.015 16.983c0-2.768-1.62-4.275-4.072-4.275-1.733 0-3.105.742-4.163 2.25l.788.63c.922-1.193 1.935-1.823 3.307-1.823 1.823 0 2.993 1.103 2.993 3.173v1.237h-3.78c-2.273 0-3.78 1.125-3.78 2.903 0 .922.36 1.665 1.08 2.182.72.518 1.597.765 2.655.765 1.71 0 3.105-.697 3.892-1.935v1.71h1.08zm-1.147 2.767c0 1.867-1.71 3.285-3.713 3.285-1.462 0-2.677-.698-2.677-2.025 0-1.192.945-1.867 2.722-1.867h3.668zM300.188 18.355c-.068 3.083 2.542 5.737 5.602 5.67a5.414 5.414 0 004.41-2.228l-.81-.652c-.945 1.215-2.137 1.823-3.6 1.823-2.497 0-4.432-2.025-4.432-4.613 0-2.542 1.935-4.59 4.455-4.59 1.462 0 2.655.607 3.577 1.823l.81-.653c-1.012-1.373-2.565-2.228-4.387-2.228-3.083-.067-5.693 2.565-5.625 5.648zM318.885 22.81c-.562.113-1.08.18-1.507.18-1.463 0-2.363-.63-2.363-2.272v-6.75h3.51v-1.035h-3.51V9.85h-1.147v3.083h-1.89v1.035h1.89v6.795c0 2.25 1.282 3.262 3.33 3.262.562 0 1.125-.067 1.687-.225v-.99zM321.608 23.8h1.125V12.933h-1.125zm-.428-15.053c0 .54.428.99.99.99.54 0 .99-.45.99-.99s-.45-.99-.99-.99c-.562 0-.99.45-.99.99zM334.748 12.933l-3.983 9.157-4.005-9.157h-1.215l4.995 11.092h.473l4.95-11.092zM347.753 18.625c.067-.247.09-.607.09-1.08 0-2.902-2.183-4.837-4.86-4.837-2.993-.068-5.558 2.587-5.49 5.67-.068 3.082 2.542 5.715 5.625 5.647 1.732 0 3.285-.765 4.365-2.025l-.72-.742c-.968 1.147-2.183 1.71-3.623 1.71-2.452 0-4.342-1.8-4.477-4.343zm-9.045-1.012c.157-1.125.63-2.048 1.417-2.768.788-.742 1.71-1.103 2.813-1.103 2.092 0 3.825 1.508 3.735 3.87zM367.103 23.8h1.237l-6.345-15.075h-.472L355.155 23.8h1.215l1.463-3.532h7.807zm-5.355-12.982l3.442 8.392h-6.907zM379.973 6.925v8.123c-.833-1.44-2.52-2.34-4.388-2.34-3.105 0-5.4 2.497-5.4 5.67 0 3.127 2.363 5.647 5.4 5.647 1.89 0 3.623-.922 4.433-2.43V23.8h1.08V6.925zm0 11.453c0 3.104-2.025 4.59-4.275 4.59-2.498 0-4.343-2.026-4.343-4.613 0-2.61 1.845-4.59 4.343-4.59 2.25 0 4.275 1.485 4.275 4.612zM384.225 21.775c.923 1.35 2.363 2.25 4.163 2.25 1.012 0 1.867-.27 2.565-.787.697-.518 1.057-1.26 1.057-2.228 0-1.507-.99-2.317-2.812-3.127l-1.013-.45c-1.462-.63-2.047-1.035-2.047-1.958 0-1.102.945-1.71 2.205-1.71 1.057 0 2.002.472 2.835 1.395l.742-.72c-.81-1.057-2.002-1.732-3.51-1.732-.967 0-1.777.247-2.452.764-.675.518-1.013 1.193-1.013 2.07 0 1.418.968 2.16 2.678 2.903l.99.427c1.53.698 2.115.99 2.227 2.183 0 1.238-1.057 1.912-2.43 1.912-1.372 0-2.407-.674-3.397-1.934l-.788.742zM400.988 18.355c-.068 3.083 2.542 5.737 5.602 5.67a5.414 5.414 0 004.41-2.228l-.81-.652c-.945 1.215-2.137 1.823-3.6 1.823-2.497 0-4.432-2.025-4.432-4.613 0-2.542 1.935-4.59 4.455-4.59 1.462 0 2.655.607 3.577 1.823l.81-.653c-1.012-1.373-2.565-2.228-4.387-2.228-3.083-.067-5.693 2.565-5.625 5.648zM413.183 18.355c-.068 3.083 2.542 5.737 5.602 5.67 3.083.068 5.715-2.587 5.648-5.67 0-3.128-2.52-5.648-5.625-5.648-3.083-.067-5.693 2.52-5.625 5.648zm10.08.022c0 2.566-1.98 4.59-4.478 4.59-2.497 0-4.432-2.024-4.432-4.59 0-2.61 1.935-4.612 4.455-4.612 2.475 0 4.455 2.002 4.455 4.612zM443.265 16.938c0-2.543-1.44-4.23-3.87-4.23-1.732 0-3.037.854-3.757 2.114-.563-1.327-1.733-2.114-3.42-2.114-1.44 0-2.633.584-3.353 1.642v-1.417h-1.08V23.8h1.125v-6.773c0-1.89 1.283-3.262 3.15-3.262 1.8 0 2.903 1.305 2.903 3.262V23.8h1.125v-6.953c0-1.687 1.327-3.082 3.15-3.082 1.8 0 2.88 1.305 2.88 3.262V23.8h1.147v-6.863zM446.438 18.355c-.068 3.083 2.542 5.737 5.602 5.67 3.083.068 5.715-2.587 5.648-5.67 0-3.128-2.52-5.648-5.625-5.648-3.083-.067-5.693 2.52-5.625 5.648zm10.08.022c0 2.566-1.98 4.59-4.478 4.59-2.497 0-4.432-2.024-4.432-4.59 0-2.61 1.935-4.612 4.455-4.612 2.475 0 4.455 2.002 4.455 4.612zM467.183 19.683c0 2.632 1.867 4.342 4.275 4.342 2.385 0 4.252-1.71 4.252-4.342v-6.75h-1.125v6.795c0 1.98-1.35 3.24-3.127 3.24-1.8 0-3.15-1.26-3.15-3.24v-6.796h-1.125v6.75zM495.218 16.938c0-2.543-1.44-4.23-3.87-4.23-1.733 0-3.038.854-3.758 2.114-.562-1.327-1.732-2.114-3.42-2.114-1.44 0-2.632.584-3.352 1.642v-1.417h-1.08V23.8h1.125v-6.773c0-1.89 1.282-3.262 3.15-3.262 1.8 0 2.902 1.305 2.902 3.262V23.8h1.125v-6.953c0-1.687 1.328-3.082 3.15-3.082 1.8 0 2.88 1.305 2.88 3.262V23.8h1.148v-6.863zM506.94 16.983c0-2.768-1.62-4.275-4.072-4.275-1.733 0-3.105.742-4.163 2.25l.788.63c.922-1.193 1.935-1.823 3.307-1.823 1.823 0 2.993 1.103 2.993 3.173v1.237h-3.78c-2.273 0-3.78 1.125-3.78 2.903 0 .922.36 1.665 1.08 2.182.72.518 1.597.765 2.655.765 1.71 0 3.105-.697 3.892-1.935v1.71h1.08zm-1.147 2.767c0 1.867-1.71 3.285-3.713 3.285-1.462 0-2.677-.698-2.677-2.025 0-1.192.945-1.867 2.722-1.867h3.668zM524.4 12.933l-3.982 9.157-4.005-9.157h-1.215l4.995 11.092h.472l4.95-11.092zM528.428 23.8h1.125V12.933h-1.125zM528 8.747c0 .54.428.99.99.99.54 0 .99-.45.99-.99s-.45-.99-.99-.99c-.562 0-.99.45-.99.99zM539.183 22.81c-.563.113-1.08.18-1.508.18-1.462 0-2.362-.63-2.362-2.272v-6.75h3.51v-1.035h-3.51V9.85h-1.148v3.083h-1.89v1.035h1.89v6.795c0 2.25 1.283 3.262 3.33 3.262.563 0 1.125-.067 1.688-.225v-.99zM547.283 12.933c-.113 0-.405-.068-.698-.068-1.507 0-2.812.652-3.6 1.912v-1.844h-1.08V23.8h1.125v-6.39c0-2.183 1.823-3.488 3.69-3.488h.563v-.99zM549.78 23.8h1.125V12.933h-1.125zm-.427-15.053c0 .54.427.99.99.99.54 0 .99-.45.99-.99s-.45-.99-.99-.99c-.563 0-.99.45-.99.99zM563.618 16.938c0-2.52-1.485-4.23-3.983-4.23-1.507 0-2.722.607-3.465 1.687v-1.462h-1.08V23.8h1.125v-6.795c0-.923.292-1.71.9-2.318.607-.607 1.395-.922 2.34-.922 1.867 0 3.038 1.327 3.038 3.24V23.8h1.125v-6.863zM577.072 18.625c.068-.247.09-.607.09-1.08 0-2.902-2.182-4.837-4.86-4.837-2.992-.068-5.557 2.587-5.49 5.67-.067 3.082 2.543 5.715 5.625 5.647 1.733 0 3.285-.765 4.365-2.025l-.72-.742c-.967 1.147-2.182 1.71-3.622 1.71-2.453 0-4.343-1.8-4.478-4.343zm-9.045-1.012c.158-1.125.63-2.048 1.418-2.768.787-.742 1.71-1.103 2.813-1.103 2.092 0 3.825 1.508 3.735 3.87zM593.97 12.933l-3.982 9.157-4.005-9.157h-1.215l4.995 11.092h.472l4.95-11.092zM597.997 23.8h1.125V12.933h-1.125zm-.427-15.053c0 .54.427.99.99.99.54 0 .99-.45.99-.99s-.45-.99-.99-.99c-.563 0-.99.45-.99.99zM608.685 12.933c-.112 0-.405-.068-.698-.068-1.507 0-2.812.652-3.6 1.912v-1.844h-1.08V23.8h1.125v-6.39c0-2.183 1.823-3.488 3.69-3.488h.563v-.99zM616.627 22.81c-.562.113-1.08.18-1.507.18-1.463 0-2.363-.63-2.363-2.272v-6.75h3.51v-1.035h-3.51V9.85h-1.147v3.083h-1.89v1.035h1.89v6.795c0 2.25 1.282 3.262 3.33 3.262.562 0 1.125-.067 1.687-.225v-.99zM619.192 19.683c0 2.632 1.868 4.342 4.275 4.342 2.385 0 4.253-1.71 4.253-4.342v-6.75h-1.125v6.795c0 1.98-1.35 3.24-3.128 3.24-1.8 0-3.15-1.26-3.15-3.24v-6.796h-1.125v6.75zM639.465 16.983c0-2.768-1.62-4.275-4.073-4.275-1.732 0-3.105.742-4.162 2.25l.787.63c.923-1.193 1.935-1.823 3.308-1.823 1.822 0 2.992 1.103 2.992 3.173v1.237h-3.78c-2.272 0-3.78 1.125-3.78 2.903 0 .922.36 1.665 1.08 2.182.72.518 1.598.765 2.655.765 1.71 0 3.105-.697 3.893-1.935v1.71h1.08zm-1.148 2.767c0 1.867-1.71 3.285-3.712 3.285-1.463 0-2.678-.698-2.678-2.025 0-1.192.945-1.867 2.723-1.867h3.667zM643.47 23.8h1.125V6.925h-1.125z" stroke-width=".0225"/></g><g fill="#fff" stroke="#000"><path d="M48.728 52.105c0-3.127-2.363-5.647-5.4-5.647-1.89 0-3.623.944-4.433 2.407v-2.183h-1.08V61.6h1.125v-6.143c.833 1.44 2.565 2.318 4.388 2.318 3.037 0 5.4-2.498 5.4-5.67zm-1.17.022c0 2.61-1.845 4.59-4.343 4.59-2.25 0-4.275-1.484-4.275-4.612 0-3.105 2.025-4.59 4.275-4.59 2.498 0 4.343 2.025 4.343 4.612zM59.798 50.732c0-2.767-1.62-4.275-4.073-4.275-1.732 0-3.105.743-4.162 2.25l.787.63c.923-1.192 1.935-1.822 3.308-1.822 1.822 0 2.992 1.103 2.992 3.172v1.238h-3.78c-2.272 0-3.78 1.125-3.78 2.902 0 .923.36 1.666 1.08 2.183.72.517 1.598.765 2.655.765 1.71 0 3.105-.698 3.893-1.935v1.71h1.08zM58.65 53.5c0 1.867-1.71 3.285-3.712 3.285-1.463 0-2.678-.698-2.678-2.025 0-1.193.945-1.868 2.723-1.868h3.667zM69.18 46.682c-.112 0-.405-.067-.697-.067-1.508 0-2.813.652-3.6 1.912v-1.845h-1.08V57.55h1.125v-6.39c0-2.183 1.822-3.487 3.69-3.487h.562v-.99zM79.17 50.732c0-2.767-1.62-4.275-4.072-4.275-1.733 0-3.105.743-4.163 2.25l.788.63c.922-1.192 1.935-1.822 3.307-1.822 1.823 0 2.993 1.103 2.993 3.172v1.238h-3.78c-2.273 0-3.78 1.125-3.78 2.902 0 .923.36 1.666 1.08 2.183.72.517 1.597.765 2.655.765 1.71 0 3.105-.698 3.892-1.935v1.71h1.08zM78.023 53.5c0 1.867-1.71 3.285-3.713 3.285-1.462 0-2.677-.698-2.677-2.025 0-1.193.945-1.868 2.722-1.868h3.668zM104.955 50.688c0-2.543-1.44-4.23-3.87-4.23-1.732 0-3.037.855-3.757 2.115-.563-1.328-1.733-2.115-3.42-2.115-1.44 0-2.633.585-3.353 1.642v-1.417h-1.08V57.55H90.6v-6.772c0-1.89 1.283-3.263 3.15-3.263 1.8 0 2.903 1.305 2.903 3.262v6.773h1.125v-6.952c0-1.688 1.327-3.083 3.15-3.083 1.8 0 2.88 1.305 2.88 3.262v6.773h1.147v-6.862zM108.128 52.105c-.068 3.083 2.542 5.737 5.602 5.67 3.083.068 5.715-2.587 5.648-5.67 0-3.127-2.52-5.647-5.625-5.647-3.083-.068-5.693 2.52-5.625 5.647zm10.08.022c0 2.565-1.98 4.59-4.478 4.59-2.497 0-4.432-2.024-4.432-4.59 0-2.61 1.935-4.612 4.455-4.612 2.475 0 4.455 2.002 4.455 4.612zM121.673 55.525c.922 1.35 2.362 2.25 4.162 2.25 1.013 0 1.868-.27 2.565-.787.698-.518 1.058-1.26 1.058-2.228 0-1.507-.99-2.317-2.813-3.127l-1.012-.45c-1.463-.63-2.048-1.036-2.048-1.958 0-1.103.945-1.71 2.205-1.71 1.058 0 2.003.472 2.835 1.395l.743-.72c-.81-1.057-2.003-1.732-3.51-1.732-.968 0-1.778.247-2.453.764-.675.518-1.012 1.193-1.012 2.07 0 1.418.967 2.16 2.677 2.903l.99.427c1.53.698 2.115.99 2.228 2.183 0 1.237-1.058 1.912-2.43 1.912-1.373 0-2.408-.675-3.398-1.935l-.787.743zM138.413 56.56c-.563.112-1.08.18-1.508.18-1.462 0-2.362-.63-2.362-2.273v-6.75h3.51v-1.035h-3.51V43.6h-1.148v3.082h-1.89v1.035h1.89v6.795c0 2.25 1.283 3.263 3.33 3.263.563 0 1.125-.068 1.688-.225v-.99zM146.513 46.682c-.113 0-.405-.067-.698-.067-1.507 0-2.812.652-3.6 1.912v-1.845h-1.08V57.55h1.125v-6.39c0-2.183 1.823-3.487 3.69-3.487h.563v-.99zM156.503 50.732c0-2.767-1.62-4.275-4.073-4.275-1.732 0-3.105.743-4.162 2.25l.787.63c.923-1.192 1.935-1.822 3.308-1.822 1.822 0 2.992 1.103 2.992 3.172v1.238h-3.78c-2.272 0-3.78 1.125-3.78 2.902 0 .923.36 1.666 1.08 2.183.72.517 1.598.765 2.655.765 1.71 0 3.105-.698 3.893-1.935v1.71h1.08zm-1.148 2.768c0 1.867-1.71 3.285-3.712 3.285-1.463 0-2.678-.698-2.678-2.025 0-1.193.945-1.868 2.723-1.868h3.667zM165.885 46.682c-.112 0-.405-.067-.697-.067-1.508 0-2.813.652-3.6 1.912v-1.845h-1.08V57.55h1.125v-6.39c0-2.183 1.822-3.487 3.69-3.487h.562v-.99zM185.595 52.105c0-3.127-2.362-5.647-5.4-5.647-1.89 0-3.622.944-4.432 2.407v-2.183h-1.08V61.6h1.125v-6.143c.832 1.44 2.565 2.318 4.387 2.318 3.038 0 5.4-2.498 5.4-5.67zm-1.17.022c0 2.61-1.845 4.59-4.342 4.59-2.25 0-4.275-1.484-4.275-4.612 0-3.105 2.025-4.59 4.275-4.59 2.497 0 4.342 2.025 4.342 4.612zM194.325 46.682c-.112 0-.405-.067-.697-.067-1.508 0-2.813.652-3.6 1.912v-1.845h-1.08V57.55h1.125v-6.39c0-2.183 1.822-3.487 3.69-3.487h.562v-.99zM195.765 52.105c-.067 3.083 2.543 5.737 5.603 5.67 3.082.068 5.715-2.587 5.647-5.67 0-3.127-2.52-5.647-5.625-5.647-3.082-.068-5.692 2.52-5.625 5.647zm10.08.022c0 2.565-1.98 4.59-4.477 4.59-2.498 0-4.433-2.024-4.433-4.59 0-2.61 1.935-4.612 4.455-4.612 2.475 0 4.455 2.002 4.455 4.612zM219.323 40.675v8.123c-.833-1.44-2.52-2.34-4.388-2.34-3.105 0-5.4 2.497-5.4 5.67 0 3.127 2.363 5.647 5.4 5.647 1.89 0 3.623-.922 4.433-2.43v2.205h1.08V40.675zm0 11.452c0 3.105-2.025 4.59-4.275 4.59-2.498 0-4.343-2.024-4.343-4.612 0-2.61 1.845-4.59 4.343-4.59 2.25 0 4.275 1.485 4.275 4.612zM224.475 53.432c0 2.633 1.868 4.343 4.275 4.343 2.385 0 4.253-1.71 4.253-4.343v-6.75h-1.125v6.795c0 1.98-1.35 3.24-3.128 3.24-1.8 0-3.15-1.26-3.15-3.24v-6.794h-1.125v6.75zM242.475 56.56c-.562.112-1.08.18-1.507.18-1.463 0-2.363-.63-2.363-2.273v-6.75h3.51v-1.035h-3.51V43.6h-1.147v3.082h-1.89v1.035h1.89v6.795c0 2.25 1.282 3.263 3.33 3.263.562 0 1.125-.068 1.687-.225v-.99zM244.14 52.105c-.067 3.083 2.543 5.737 5.603 5.67 3.082.068 5.715-2.587 5.647-5.67 0-3.127-2.52-5.647-5.625-5.647-3.082-.068-5.692 2.52-5.625 5.647zm10.08.022c0 2.565-1.98 4.59-4.477 4.59-2.498 0-4.433-2.024-4.433-4.59 0-2.61 1.935-4.612 4.455-4.612 2.475 0 4.455 2.002 4.455 4.612zM257.685 55.525c.923 1.35 2.363 2.25 4.163 2.25 1.012 0 1.867-.27 2.565-.787.697-.518 1.057-1.26 1.057-2.228 0-1.507-.99-2.317-2.812-3.127l-1.013-.45c-1.462-.63-2.047-1.036-2.047-1.958 0-1.103.945-1.71 2.205-1.71 1.057 0 2.002.472 2.835 1.395l.742-.72c-.81-1.057-2.002-1.732-3.51-1.732-.967 0-1.777.247-2.452.764-.675.518-1.013 1.193-1.013 2.07 0 1.418.968 2.16 2.678 2.903l.99.427c1.53.698 2.115.99 2.227 2.183 0 1.237-1.057 1.912-2.43 1.912-1.372 0-2.407-.675-3.397-1.935l-.788.743zM269.138 61.6h.967l.81-5.738h-1.395zM292.493 52.105c0-3.127-2.363-5.647-5.4-5.647-1.89 0-3.623.944-4.433 2.407v-2.183h-1.08V61.6h1.125v-6.143c.833 1.44 2.565 2.318 4.388 2.318 3.037 0 5.4-2.498 5.4-5.67zm-1.17.022c0 2.61-1.845 4.59-4.343 4.59-2.25 0-4.275-1.484-4.275-4.612 0-3.105 2.025-4.59 4.275-4.59 2.498 0 4.343 2.025 4.343 4.612zM301.223 46.682c-.113 0-.405-.067-.698-.067-1.507 0-2.812.652-3.6 1.912v-1.845h-1.08V57.55h1.125v-6.39c0-2.183 1.823-3.487 3.69-3.487h.563v-.99zM312.923 52.375c.067-.247.09-.607.09-1.08 0-2.902-2.183-4.837-4.86-4.837-2.993-.068-5.558 2.587-5.49 5.67-.068 3.082 2.542 5.715 5.625 5.647 1.732 0 3.285-.765 4.365-2.025l-.72-.742c-.968 1.147-2.183 1.71-3.623 1.71-2.452 0-4.342-1.8-4.477-4.343zm-9.045-1.012c.157-1.126.63-2.048 1.417-2.768.788-.742 1.71-1.103 2.813-1.103 2.092 0 3.825 1.508 3.735 3.87zM315.533 52.105c-.068 3.083 2.542 5.737 5.602 5.67a5.414 5.414 0 004.41-2.228l-.81-.652c-.945 1.215-2.137 1.822-3.6 1.822-2.497 0-4.432-2.025-4.432-4.612 0-2.542 1.935-4.59 4.455-4.59 1.462 0 2.655.607 3.577 1.823l.81-.653c-1.012-1.373-2.565-2.228-4.387-2.228-3.083-.067-5.693 2.565-5.625 5.648zm2.925 9.495a5.215 5.215 0 001.507.225c1.643 0 2.7-1.058 2.7-2.43 0-1.013-.63-1.823-1.597-2.273l-.428.338c.608.517.968 1.057.968 1.8 0 1.08-.743 1.62-1.8 1.62-.428 0-.878-.045-1.35-.158zM327.728 52.105c-.068 3.083 2.542 5.737 5.602 5.67 3.083.068 5.715-2.587 5.648-5.67 0-3.127-2.52-5.647-5.625-5.647-3.083-.068-5.693 2.52-5.625 5.647zm10.08.022c0 2.565-1.98 4.59-4.478 4.59-2.497 0-4.432-2.024-4.432-4.59 0-2.61 1.935-4.612 4.455-4.612 2.475 0 4.455 2.002 4.455 4.612zM341.273 55.525c.922 1.35 2.362 2.25 4.162 2.25 1.013 0 1.868-.27 2.565-.787.698-.518 1.058-1.26 1.058-2.228 0-1.507-.99-2.317-2.813-3.127l-1.012-.45c-1.463-.63-2.048-1.036-2.048-1.958 0-1.103.945-1.71 2.205-1.71 1.058 0 2.003.472 2.835 1.395l.743-.72c-.81-1.057-2.003-1.732-3.51-1.732-.968 0-1.778.247-2.453.764-.675.518-1.012 1.193-1.012 2.07 0 1.418.967 2.16 2.677 2.903l.99.427c1.53.698 2.115.99 2.228 2.183 0 1.237-1.058 1.912-2.43 1.912-1.373 0-2.408-.675-3.398-1.935l-.787.743zM368.295 52.375c.068-.247.09-.607.09-1.08 0-2.902-2.182-4.837-4.86-4.837-2.992-.068-5.557 2.587-5.49 5.67-.067 3.082 2.543 5.715 5.625 5.647 1.733 0 3.285-.765 4.365-2.025l-.72-.742c-.967 1.147-2.182 1.71-3.622 1.71-2.453 0-4.343-1.8-4.478-4.343zm-9.045-1.012c.158-1.126.63-2.048 1.418-2.768.787-.742 1.71-1.103 2.812-1.103 2.093 0 3.825 1.508 3.735 3.87zM388.95 52.105c0-3.127-2.362-5.647-5.4-5.647-1.89 0-3.622.944-4.432 2.407v-2.183h-1.08V61.6h1.125v-6.143c.832 1.44 2.565 2.318 4.387 2.318 3.038 0 5.4-2.498 5.4-5.67zm-1.17.022c0 2.61-1.845 4.59-4.342 4.59-2.25 0-4.275-1.484-4.275-4.612 0-3.105 2.025-4.59 4.275-4.59 2.497 0 4.342 2.025 4.342 4.612zM397.68 46.682c-.112 0-.405-.067-.697-.067-1.508 0-2.813.652-3.6 1.912v-1.845h-1.08V57.55h1.125v-6.39c0-2.183 1.822-3.487 3.69-3.487h.562v-.99zM399.12 52.105c-.067 3.083 2.543 5.737 5.603 5.67 3.082.068 5.715-2.587 5.647-5.67 0-3.127-2.52-5.647-5.625-5.647-3.082-.068-5.692 2.52-5.625 5.647zm10.08.022c0 2.565-1.98 4.59-4.477 4.59-2.498 0-4.433-2.024-4.433-4.59 0-2.61 1.935-4.612 4.455-4.612 2.475 0 4.455 2.002 4.455 4.612zM429.203 50.688c0-2.543-1.44-4.23-3.87-4.23-1.733 0-3.038.855-3.758 2.115-.562-1.328-1.732-2.115-3.42-2.115-1.44 0-2.632.585-3.352 1.642v-1.417h-1.08V57.55h1.125v-6.772c0-1.89 1.282-3.263 3.15-3.263 1.8 0 2.902 1.305 2.902 3.262v6.773h1.125v-6.952c0-1.688 1.328-3.083 3.15-3.083 1.8 0 2.88 1.305 2.88 3.262v6.773h1.147v-6.862zM432.375 52.105c-.067 3.083 2.543 5.737 5.603 5.67 3.082.068 5.715-2.587 5.647-5.67 0-3.127-2.52-5.647-5.625-5.647-3.082-.068-5.692 2.52-5.625 5.647zm10.08.022c0 2.565-1.98 4.59-4.477 4.59-2.498 0-4.433-2.024-4.433-4.59 0-2.61 1.935-4.612 4.455-4.612 2.475 0 4.455 2.002 4.455 4.612zM446.145 52.105c-.067 3.083 2.543 5.737 5.603 5.67a5.414 5.414 0 004.41-2.228l-.81-.652c-.945 1.215-2.138 1.822-3.6 1.822-2.498 0-4.433-2.025-4.433-4.612 0-2.542 1.935-4.59 4.455-4.59 1.463 0 2.655.607 3.578 1.823l.81-.653c-1.013-1.373-2.565-2.228-4.388-2.228-3.082-.067-5.692 2.565-5.625 5.648zm2.925 9.495a5.215 5.215 0 001.508.225c1.642 0 2.7-1.058 2.7-2.43 0-1.013-.63-1.823-1.598-2.273l-.427.338c.607.517.967 1.057.967 1.8 0 1.08-.742 1.62-1.8 1.62-.427 0-.877-.045-1.35-.158zM458.34 52.105c-.067 3.083 2.543 5.737 5.603 5.67 3.082.068 5.715-2.587 5.647-5.67 0-3.127-2.52-5.647-5.625-5.647-3.082-.068-5.692 2.52-5.625 5.647zm10.08.022c0 2.565-1.98 4.59-4.477 4.59-2.498 0-4.433-2.024-4.433-4.59 0-2.61 1.935-4.612 4.455-4.612 2.475 0 4.455 2.002 4.455 4.612zm-4.365-8.82c.45.45.945.675 1.463.675 1.057 0 1.62-.922 1.62-2.025 0-.225 0-.382-.023-.495h-.99v.428c0 .607-.247 1.035-.72 1.035-.337 0-.585-.158-.967-.54l-.563-.563c-.45-.45-.922-.675-1.44-.675-1.057 0-1.62.878-1.62 2.026 0 .202 0 .382.023.494h.99v-.45c0-.607.225-1.012.697-1.012.36 0 .585.157.968.54zM482.37 52.375c.068-.247.09-.607.09-1.08 0-2.902-2.182-4.837-4.86-4.837-2.992-.068-5.558 2.587-5.49 5.67-.068 3.082 2.542 5.715 5.625 5.647 1.732 0 3.285-.765 4.365-2.025l-.72-.742c-.967 1.147-2.183 1.71-3.623 1.71-2.452 0-4.342-1.8-4.477-4.343zm-9.045-1.012c.158-1.126.63-2.048 1.418-2.768.787-.742 1.71-1.103 2.812-1.103 2.093 0 3.825 1.508 3.735 3.87zM484.755 55.525c.923 1.35 2.363 2.25 4.163 2.25 1.012 0 1.867-.27 2.565-.787.697-.518 1.057-1.26 1.057-2.228 0-1.507-.99-2.317-2.812-3.127l-1.013-.45c-1.462-.63-2.047-1.036-2.047-1.958 0-1.103.945-1.71 2.205-1.71 1.057 0 2.002.472 2.835 1.395l.742-.72c-.81-1.057-2.002-1.732-3.51-1.732-.967 0-1.777.247-2.452.764-.675.518-1.013 1.193-1.013 2.07 0 1.418.968 2.16 2.678 2.903l.99.427c1.53.698 2.115.99 2.227 2.183 0 1.237-1.057 1.912-2.43 1.912-1.372 0-2.407-.675-3.397-1.935l-.788.743zM496.208 61.6h.967l.81-5.738h-1.395zM519.563 52.105c0-3.127-2.363-5.647-5.4-5.647-1.89 0-3.623.944-4.433 2.407v-2.183h-1.08V61.6h1.125v-6.143c.833 1.44 2.565 2.318 4.388 2.318 3.037 0 5.4-2.498 5.4-5.67zm-1.17.022c0 2.61-1.845 4.59-4.343 4.59-2.25 0-4.275-1.484-4.275-4.612 0-3.105 2.025-4.59 4.275-4.59 2.498 0 4.343 2.025 4.343 4.612zM522.083 52.105c-.068 3.083 2.542 5.737 5.602 5.67 3.083.068 5.715-2.587 5.648-5.67 0-3.127-2.52-5.647-5.625-5.647-3.083-.068-5.693 2.52-5.625 5.647zm10.08.022c0 2.565-1.98 4.59-4.478 4.59-2.497 0-4.432-2.024-4.432-4.59 0-2.61 1.935-4.612 4.455-4.612 2.475 0 4.455 2.002 4.455 4.612zM545.64 40.675v8.123c-.832-1.44-2.52-2.34-4.387-2.34-3.105 0-5.4 2.497-5.4 5.67 0 3.127 2.362 5.647 5.4 5.647 1.89 0 3.622-.922 4.432-2.43v2.205h1.08V40.675zm0 11.452c0 3.105-2.025 4.59-4.275 4.59-2.497 0-4.342-2.024-4.342-4.612 0-2.61 1.845-4.59 4.342-4.59 2.25 0 4.275 1.485 4.275 4.612zM560.378 52.375c.067-.247.09-.607.09-1.08 0-2.902-2.183-4.837-4.86-4.837-2.993-.068-5.558 2.587-5.49 5.67-.068 3.082 2.542 5.715 5.625 5.647 1.732 0 3.285-.765 4.365-2.025l-.72-.742c-.968 1.147-2.183 1.71-3.623 1.71-2.452 0-4.342-1.8-4.477-4.343zm-9.045-1.012c.157-1.126.63-2.048 1.417-2.768.788-.742 1.71-1.103 2.813-1.103 2.092 0 3.825 1.508 3.735 3.87zM572.348 50.688c0-2.52-1.485-4.23-3.983-4.23-1.507 0-2.722.607-3.465 1.687v-1.462h-1.08V57.55h1.125v-6.795c0-.922.292-1.71.9-2.317.607-.608 1.395-.923 2.34-.923 1.868 0 3.038 1.327 3.038 3.24v6.795h1.125v-6.862zM585.33 40.675v8.123c-.833-1.44-2.52-2.34-4.388-2.34-3.105 0-5.4 2.497-5.4 5.67 0 3.127 2.363 5.647 5.4 5.647 1.89 0 3.623-.922 4.433-2.43v2.205h1.08V40.675zm0 11.452c0 3.105-2.025 4.59-4.275 4.59-2.497 0-4.342-2.024-4.342-4.612 0-2.61 1.845-4.59 4.342-4.59 2.25 0 4.275 1.485 4.275 4.612zM589.808 52.105c-.068 3.083 2.542 5.737 5.602 5.67 3.083.068 5.715-2.587 5.647-5.67 0-3.127-2.52-5.647-5.625-5.647-3.082-.068-5.692 2.52-5.625 5.647zm10.08.022c0 2.565-1.98 4.59-4.478 4.59-2.497 0-4.432-2.024-4.432-4.59 0-2.61 1.935-4.612 4.455-4.612 2.475 0 4.455 2.002 4.455 4.612zM610.71 57.55h1.125V40.675h-1.125zM625.447 52.375c.068-.247.09-.607.09-1.08 0-2.902-2.182-4.837-4.86-4.837-2.992-.068-5.557 2.587-5.49 5.67-.067 3.082 2.543 5.715 5.625 5.647 1.733 0 3.285-.765 4.365-2.025l-.72-.742c-.967 1.147-2.182 1.71-3.622 1.71-2.453 0-4.343-1.8-4.478-4.343zm-9.045-1.012c.158-1.126.63-2.048 1.418-2.768.787-.742 1.71-1.103 2.812-1.103 2.093 0 3.825 1.508 3.735 3.87zM636.27 46.682l-3.983 9.158-4.005-9.158h-1.215l4.995 11.093h.473l4.95-11.092zM647.565 50.732c0-2.767-1.62-4.275-4.073-4.275-1.732 0-3.105.743-4.162 2.25l.787.63c.923-1.192 1.935-1.822 3.308-1.822 1.822 0 2.992 1.103 2.992 3.172v1.238h-3.78c-2.272 0-3.78 1.125-3.78 2.902 0 .923.36 1.666 1.08 2.183.72.517 1.598.765 2.655.765 1.71 0 3.105-.698 3.893-1.935v1.71h1.08zm-1.148 2.768c0 1.867-1.71 3.285-3.712 3.285-1.463 0-2.678-.698-2.678-2.025 0-1.193.945-1.868 2.723-1.868h3.667zM656.947 46.682c-.112 0-.405-.067-.697-.067-1.508 0-2.813.652-3.6 1.912v-1.845h-1.08V57.55h1.125v-6.39c0-2.183 1.822-3.487 3.69-3.487h.562v-.99z" stroke-width=".0225"/></g><g fill="#fff" stroke="#000"><path d="M45.668 85.855c-.068 3.083 2.542 5.737 5.602 5.67 3.083.068 5.715-2.587 5.648-5.67 0-3.127-2.52-5.647-5.625-5.647-3.083-.068-5.693 2.52-5.625 5.647zm10.08.022c0 2.566-1.98 4.59-4.478 4.59-2.497 0-4.432-2.024-4.432-4.59 0-2.61 1.935-4.612 4.455-4.612 2.475 0 4.455 2.002 4.455 4.612zM66.413 87.183c0 2.632 1.867 4.342 4.275 4.342 2.385 0 4.252-1.71 4.252-4.343v-6.75h-1.125v6.796c0 1.98-1.35 3.24-3.127 3.24-1.8 0-3.15-1.26-3.15-3.24v-6.795h-1.125v6.75zM77.91 89.275c.923 1.35 2.363 2.25 4.163 2.25 1.012 0 1.867-.27 2.565-.788.697-.517 1.057-1.26 1.057-2.227 0-1.508-.99-2.318-2.812-3.128l-1.013-.45c-1.462-.63-2.047-1.035-2.047-1.957 0-1.103.945-1.71 2.205-1.71 1.057 0 2.002.472 2.834 1.395l.743-.72c-.81-1.057-2.002-1.732-3.51-1.732-.967 0-1.777.247-2.453.764-.674.518-1.012 1.193-1.012 2.07 0 1.418.967 2.16 2.677 2.903l.99.427c1.53.698 2.115.99 2.228 2.183 0 1.237-1.058 1.912-2.43 1.912-1.373 0-2.407-.675-3.397-1.935l-.788.743zM89.048 87.183c0 2.632 1.867 4.342 4.275 4.342 2.385 0 4.252-1.71 4.252-4.343v-6.75H96.45v6.796c0 1.98-1.35 3.24-3.127 3.24-1.8 0-3.15-1.26-3.15-3.24v-6.795h-1.125v6.75zM109.32 84.483c0-2.768-1.62-4.276-4.072-4.276-1.733 0-3.106.743-4.163 2.25l.788.63c.922-1.192 1.934-1.822 3.307-1.822 1.823 0 2.992 1.102 2.992 3.172v1.238h-3.78c-2.272 0-3.78 1.125-3.78 2.902 0 .923.36 1.665 1.08 2.183.72.517 1.598.765 2.656.765 1.71 0 3.105-.698 3.892-1.935v1.71h1.08zm-1.147 2.767c0 1.867-1.71 3.285-3.713 3.285-1.462 0-2.677-.698-2.677-2.025 0-1.193.945-1.868 2.722-1.868h3.668zm-3.375-8.64h.9l2.542-4.657v-.203h-1.395zM118.703 80.433c-.113 0-.406-.068-.698-.068-1.507 0-2.813.653-3.6 1.913v-1.846h-1.08V91.3h1.125v-6.39c0-2.182 1.823-3.487 3.69-3.487h.563v-.99zM121.2 91.3h1.125V80.433H121.2zm-.427-15.053c0 .54.427.99.99.99.54 0 .99-.45.99-.99s-.45-.99-.99-.99c-.563 0-.99.45-.99.99zM125.678 85.855c-.068 3.083 2.542 5.737 5.602 5.67 3.083.068 5.715-2.587 5.647-5.67 0-3.127-2.52-5.647-5.624-5.647-3.083-.068-5.693 2.52-5.625 5.647zm10.08.022c0 2.566-1.98 4.59-4.478 4.59-2.497 0-4.432-2.024-4.432-4.59 0-2.61 1.935-4.612 4.455-4.612 2.475 0 4.455 2.002 4.455 4.612zM154.298 84.483c0-2.768-1.62-4.276-4.073-4.276-1.732 0-3.105.743-4.162 2.25l.787.63c.923-1.192 1.935-1.822 3.308-1.822 1.822 0 2.992 1.102 2.992 3.172v1.238h-3.78c-2.272 0-3.78 1.125-3.78 2.902 0 .923.36 1.665 1.08 2.183.72.517 1.598.765 2.655.765 1.71 0 3.105-.698 3.893-1.935v1.71h1.08zm-1.148 2.767c0 1.867-1.71 3.285-3.712 3.285-1.463 0-2.678-.698-2.678-2.025 0-1.193.945-1.868 2.722-1.868h3.668zM163.748 90.31c-.563.112-1.08.18-1.508.18-1.462 0-2.362-.63-2.362-2.272v-6.75h3.51v-1.035h-3.51V77.35h-1.148v3.083h-1.89v1.035h1.89v6.795c0 2.25 1.282 3.262 3.33 3.262.563 0 1.125-.067 1.688-.225v-.99zM175.673 86.125c.067-.247.09-.607.09-1.08 0-2.902-2.183-4.837-4.86-4.837-2.993-.068-5.558 2.587-5.49 5.67-.068 3.082 2.542 5.714 5.625 5.647 1.732 0 3.285-.765 4.365-2.025l-.72-.743c-.968 1.148-2.183 1.71-3.623 1.71-2.452 0-4.342-1.8-4.477-4.342zm-9.045-1.012c.157-1.126.63-2.048 1.417-2.768.788-.742 1.71-1.103 2.813-1.103 2.092 0 3.825 1.508 3.735 3.87zm3.69-6.503h.9l2.542-4.657v-.203h-1.395zM184.583 85.855c-.068 3.083 2.542 5.737 5.602 5.67 3.083.068 5.715-2.587 5.647-5.67 0-3.127-2.52-5.647-5.624-5.647-3.083-.068-5.693 2.52-5.625 5.647zm10.08.022c0 2.566-1.98 4.59-4.478 4.59-2.497 0-4.432-2.024-4.432-4.59 0-2.61 1.935-4.612 4.455-4.612 2.475 0 4.455 2.002 4.455 4.612zM204.428 89.275c.922 1.35 2.362 2.25 4.162 2.25 1.013 0 1.868-.27 2.565-.788.698-.517 1.058-1.26 1.058-2.227 0-1.508-.99-2.318-2.813-3.128l-1.012-.45c-1.463-.63-2.048-1.035-2.048-1.957 0-1.103.945-1.71 2.205-1.71 1.058 0 2.003.472 2.835 1.395l.743-.72c-.81-1.057-2.003-1.732-3.51-1.732-.968 0-1.778.247-2.453.764-.675.518-1.012 1.193-1.012 2.07 0 1.418.967 2.16 2.677 2.903l.99.427c1.53.698 2.115.99 2.228 2.183 0 1.237-1.058 1.912-2.43 1.912-1.373 0-2.408-.675-3.398-1.935l-.787.743zM215.723 91.3h1.125V80.433h-1.125zm-.428-15.053c0 .54.428.99.99.99.54 0 .99-.45.99-.99s-.45-.99-.99-.99c-.562 0-.99.45-.99.99zM226.478 90.31c-.563.112-1.08.18-1.508.18-1.462 0-2.362-.63-2.362-2.272v-6.75h3.51v-1.035h-3.51V77.35h-1.148v3.083h-1.89v1.035h1.89v6.795c0 2.25 1.283 3.262 3.33 3.262.563 0 1.125-.067 1.688-.225v-.99zM238.403 86.125c.067-.247.09-.607.09-1.08 0-2.902-2.183-4.837-4.86-4.837-2.993-.068-5.558 2.587-5.49 5.67-.068 3.082 2.542 5.714 5.625 5.647 1.732 0 3.285-.765 4.365-2.025l-.72-.743c-.968 1.148-2.183 1.71-3.623 1.71-2.452 0-4.342-1.8-4.477-4.342zm-9.045-1.012c.157-1.126.63-2.048 1.417-2.768.788-.742 1.71-1.103 2.813-1.103 2.092 0 3.825 1.508 3.735 3.87zM253.613 85.855c-.068 3.083 2.542 5.737 5.602 5.67 3.083.068 5.715-2.587 5.648-5.67 0-3.127-2.52-5.647-5.625-5.647-3.083-.068-5.693 2.52-5.625 5.647zm10.08.022c0 2.566-1.98 4.59-4.478 4.59-2.497 0-4.432-2.024-4.432-4.59 0-2.61 1.935-4.612 4.455-4.612 2.475 0 4.455 2.002 4.455 4.612zM268.058 87.183c0 2.632 1.867 4.342 4.275 4.342 2.385 0 4.252-1.71 4.252-4.343v-6.75h-1.125v6.796c0 1.98-1.35 3.24-3.127 3.24-1.8 0-3.15-1.26-3.15-3.24v-6.795h-1.125v6.75zM295.868 74.425v8.123c-.833-1.44-2.52-2.34-4.388-2.34-3.105 0-5.4 2.497-5.4 5.67 0 3.127 2.363 5.647 5.4 5.647 1.89 0 3.623-.923 4.433-2.43V91.3h1.08V74.425zm0 11.452c0 3.106-2.025 4.59-4.275 4.59-2.498 0-4.343-2.024-4.343-4.612 0-2.61 1.845-4.59 4.343-4.59 2.25 0 4.275 1.485 4.275 4.612zM301.178 91.3h1.125V80.433h-1.125zm-.428-15.053c0 .54.427.99.99.99.54 0 .99-.45.99-.99s-.45-.99-.99-.99c-.563 0-.99.45-.99.99zM311.865 80.433c-.112 0-.405-.068-.697-.068-1.508 0-2.813.653-3.6 1.913v-1.846h-1.08V91.3h1.125v-6.39c0-2.182 1.822-3.487 3.69-3.487h.562v-.99zM323.565 86.125c.068-.247.09-.607.09-1.08 0-2.902-2.183-4.837-4.86-4.837-2.993-.068-5.558 2.587-5.49 5.67-.068 3.082 2.542 5.714 5.625 5.647 1.732 0 3.285-.765 4.365-2.025l-.72-.743c-.968 1.148-2.183 1.71-3.623 1.71-2.452 0-4.342-1.8-4.477-4.342zm-9.045-1.012c.158-1.126.63-2.048 1.417-2.768.788-.742 1.71-1.103 2.813-1.103 2.092 0 3.825 1.508 3.735 3.87zM326.175 85.855c-.068 3.083 2.542 5.737 5.603 5.67a5.414 5.414 0 004.41-2.228l-.81-.652c-.945 1.215-2.138 1.823-3.6 1.823-2.498 0-4.433-2.026-4.433-4.613 0-2.542 1.935-4.59 4.455-4.59 1.462 0 2.655.607 3.577 1.823l.81-.653c-1.012-1.373-2.565-2.228-4.387-2.228-3.083-.067-5.692 2.566-5.625 5.648zM339.428 91.3h1.125V80.433h-1.125zM339 76.247c0 .54.427.99.99.99.54 0 .99-.45.99-.99s-.45-.99-.99-.99c-.563 0-.99.45-.99.99zM343.905 85.855c-.067 3.083 2.543 5.737 5.603 5.67 3.082.068 5.715-2.587 5.647-5.67 0-3.127-2.52-5.647-5.625-5.647-3.082-.068-5.692 2.52-5.625 5.647zm10.08.022c0 2.566-1.98 4.59-4.478 4.59-2.497 0-4.432-2.024-4.432-4.59 0-2.61 1.935-4.612 4.455-4.612 2.475 0 4.455 2.002 4.455 4.612zM367.035 84.438c0-2.52-1.485-4.23-3.982-4.23-1.508 0-2.723.607-3.465 1.687v-1.462h-1.08V91.3h1.125v-6.795c0-.923.292-1.71.9-2.318.607-.607 1.395-.922 2.34-.922 1.867 0 3.037 1.327 3.037 3.24V91.3h1.125v-6.863zM378.78 84.483c0-2.768-1.62-4.276-4.072-4.276-1.733 0-3.105.743-4.163 2.25l.787.63c.923-1.192 1.936-1.822 3.308-1.822 1.823 0 2.993 1.102 2.993 3.172v1.238h-3.78c-2.273 0-3.78 1.125-3.78 2.902 0 .923.36 1.665 1.08 2.183.72.517 1.597.765 2.655.765 1.71 0 3.105-.698 3.892-1.935v1.71h1.08zm-1.147 2.767c0 1.867-1.71 3.285-3.713 3.285-1.462 0-2.677-.698-2.677-2.025 0-1.193.945-1.868 2.722-1.868h3.668zm-3.375-8.64h.9l2.542-4.657v-.203h-1.395zM381.975 84.797h5.13v-.99h-5.13zM390.502 91.3h1.125V74.425h-1.125zM394.98 85.855c-.068 3.083 2.542 5.737 5.603 5.67 3.082.068 5.715-2.587 5.647-5.67 0-3.127-2.52-5.647-5.625-5.647-3.083-.068-5.692 2.52-5.625 5.647zm10.08.022c0 2.566-1.98 4.59-4.478 4.59-2.497 0-4.432-2.024-4.432-4.59 0-2.61 1.935-4.612 4.455-4.612 2.475 0 4.455 2.002 4.455 4.612zM423.6 84.483c0-2.768-1.62-4.276-4.072-4.276-1.733 0-3.105.743-4.163 2.25l.787.63c.923-1.192 1.936-1.822 3.308-1.822 1.823 0 2.993 1.102 2.993 3.172v1.238h-3.78c-2.273 0-3.78 1.125-3.78 2.902 0 .923.36 1.665 1.08 2.183.72.517 1.597.765 2.655.765 1.71 0 3.105-.698 3.892-1.935v1.71h1.08zm-1.147 2.767c0 1.867-1.71 3.285-3.713 3.285-1.462 0-2.677-.698-2.677-2.025 0-1.193.945-1.868 2.722-1.868h3.668zM433.05 90.31c-.562.112-1.08.18-1.507.18-1.463 0-2.363-.63-2.363-2.272v-6.75h3.51v-1.035h-3.51V77.35h-1.147v3.083h-1.89v1.035h1.89v6.795c0 2.25 1.282 3.262 3.33 3.262.562 0 1.125-.067 1.687-.225v-.99zM444.975 86.125c.068-.247.09-.607.09-1.08 0-2.902-2.183-4.837-4.86-4.837-2.992-.068-5.558 2.587-5.49 5.67-.068 3.082 2.542 5.714 5.625 5.647 1.732 0 3.285-.765 4.365-2.025l-.72-.743c-.968 1.148-2.183 1.71-3.623 1.71-2.452 0-4.342-1.8-4.477-4.342zm-9.045-1.012c.158-1.126.63-2.048 1.417-2.768.788-.742 1.71-1.103 2.813-1.103 2.092 0 3.825 1.508 3.735 3.87zm3.69-6.503h.9l2.542-4.657v-.203h-1.395zM462.435 84.483c0-2.768-1.62-4.276-4.072-4.276-1.733 0-3.105.743-4.163 2.25l.788.63c.922-1.192 1.935-1.822 3.307-1.822 1.823 0 2.993 1.102 2.993 3.172v1.238h-3.78c-2.273 0-3.78 1.125-3.78 2.902 0 .923.36 1.665 1.08 2.183.72.517 1.597.765 2.655.765 1.71 0 3.105-.698 3.892-1.935v1.71h1.08zm-1.147 2.767c0 1.867-1.71 3.285-3.713 3.285-1.462 0-2.677-.698-2.677-2.025 0-1.193.945-1.868 2.722-1.868h3.668zM472.74 91.3h1.125V74.425h-1.125zM477.218 85.855c-.068 3.083 2.542 5.737 5.602 5.67 3.083.068 5.715-2.587 5.648-5.67 0-3.127-2.52-5.647-5.625-5.647-3.083-.068-5.693 2.52-5.625 5.647zm10.08.022c0 2.566-1.98 4.59-4.478 4.59-2.497 0-4.432-2.024-4.432-4.59 0-2.61 1.935-4.612 4.455-4.612 2.475 0 4.455 2.002 4.455 4.612zM488.423 95.44c.382.09.787.135 1.237.135 2.003 0 3.285-1.012 3.285-3.262v-11.88h-1.125v11.834c0 1.688-.855 2.273-2.362 2.273-.338 0-.698-.023-1.035-.09zm2.97-19.192c0 .54.427.99.99.99.54 0 .99-.45.99-.99s-.45-.99-.99-.99c-.563 0-.99.45-.99.99zM504.848 84.483c0-2.768-1.62-4.276-4.073-4.276-1.732 0-3.105.743-4.162 2.25l.787.63c.923-1.192 1.935-1.822 3.308-1.822 1.822 0 2.992 1.102 2.992 3.172v1.238h-3.78c-2.272 0-3.78 1.125-3.78 2.902 0 .923.36 1.665 1.08 2.183.72.517 1.598.765 2.655.765 1.71 0 3.105-.698 3.893-1.935v1.71h1.08zM503.7 87.25c0 1.867-1.71 3.285-3.712 3.285-1.463 0-2.678-.698-2.678-2.025 0-1.193.945-1.868 2.723-1.868h3.667zM530.633 84.438c0-2.543-1.44-4.23-3.87-4.23-1.733 0-3.038.854-3.758 2.114-.563-1.327-1.732-2.115-3.42-2.115-1.44 0-2.632.586-3.353 1.643v-1.417h-1.08V91.3h1.125v-6.773c0-1.89 1.283-3.262 3.15-3.262 1.8 0 2.903 1.305 2.903 3.262V91.3h1.125v-6.953c0-1.687 1.327-3.082 3.15-3.082 1.8 0 2.88 1.305 2.88 3.262V91.3h1.147v-6.863zM542.355 84.483c0-2.768-1.62-4.276-4.072-4.276-1.733 0-3.105.743-4.163 2.25l.787.63c.923-1.192 1.935-1.822 3.308-1.822 1.823 0 2.992 1.102 2.992 3.172v1.238h-3.78c-2.272 0-3.78 1.125-3.78 2.902 0 .923.36 1.665 1.08 2.183.72.517 1.598.765 2.656.765 1.71 0 3.105-.698 3.892-1.935v1.71h1.08zm-1.147 2.767c0 1.867-1.71 3.285-3.713 3.285-1.462 0-2.677-.698-2.677-2.025 0-1.193.945-1.868 2.722-1.868h3.667zM546.36 91.3h1.125V80.433h-1.125zm-.427-15.053c0 .54.427.99.99.99.54 0 .99-.45.99-.99s-.45-.99-.99-.99c-.563 0-.99.45-.99.99zM550.612 89.275c.923 1.35 2.363 2.25 4.163 2.25 1.012 0 1.867-.27 2.565-.788.698-.517 1.057-1.26 1.057-2.227 0-1.508-.99-2.318-2.812-3.128l-1.012-.45c-1.463-.63-2.048-1.035-2.048-1.957 0-1.103.945-1.71 2.205-1.71 1.057 0 2.002.472 2.835 1.395l.742-.72c-.81-1.057-2.002-1.732-3.51-1.732-.967 0-1.777.247-2.452.764-.675.518-1.012 1.193-1.012 2.07 0 1.418.967 2.16 2.677 2.903l.99.427c1.53.698 2.115.99 2.228 2.183 0 1.237-1.058 1.912-2.43 1.912-1.373 0-2.408-.675-3.398-1.935l-.787.743zM579.12 85.855c0-3.127-2.363-5.647-5.4-5.647-1.89 0-3.623.945-4.433 2.407v-2.182h-1.08V95.35h1.125v-6.142c.833 1.44 2.565 2.317 4.388 2.317 3.037 0 5.4-2.498 5.4-5.67zm-1.17.022c0 2.61-1.845 4.59-4.343 4.59-2.25 0-4.275-1.484-4.275-4.612 0-3.105 2.025-4.59 4.275-4.59 2.498 0 4.343 2.025 4.343 4.612zM587.85 80.433c-.113 0-.405-.068-.698-.068-1.507 0-2.812.653-3.6 1.913v-1.846h-1.08V91.3h1.125v-6.39c0-2.182 1.823-3.487 3.69-3.487h.563v-.99zM589.29 85.855c-.068 3.083 2.542 5.737 5.602 5.67 3.083.068 5.715-2.587 5.648-5.67 0-3.127-2.52-5.647-5.625-5.647-3.083-.068-5.693 2.52-5.625 5.647zm10.08.022c0 2.566-1.98 4.59-4.478 4.59-2.497 0-4.432-2.024-4.432-4.59 0-2.61 1.935-4.612 4.455-4.612 2.475 0 4.455 2.002 4.455 4.612zm-4.883-7.267h.9l2.543-4.657v-.203h-1.395zM611.565 91.3l-4.163-5.67 3.825-5.197h-1.35l-3.15 4.364-3.105-4.365h-1.35l3.78 5.153-4.117 5.715h1.35l3.465-4.86 3.465 4.86zM614.242 91.3h1.125V80.433h-1.125zm-.427-15.053c0 .54.427.99.99.99.54 0 .99-.45.99-.99s-.45-.99-.99-.99c-.563 0-.99.45-.99.99zM635.032 84.438c0-2.543-1.44-4.23-3.87-4.23-1.732 0-3.037.854-3.757 2.114-.563-1.327-1.733-2.115-3.42-2.115-1.44 0-2.633.586-3.353 1.643v-1.417h-1.08V91.3h1.125v-6.773c0-1.89 1.283-3.262 3.15-3.262 1.8 0 2.903 1.305 2.903 3.262V91.3h1.125v-6.953c0-1.687 1.327-3.082 3.15-3.082 1.8 0 2.88 1.305 2.88 3.262V91.3h1.147v-6.863zM646.755 84.483c0-2.768-1.62-4.276-4.073-4.276-1.732 0-3.105.743-4.162 2.25l.787.63c.923-1.192 1.935-1.822 3.308-1.822 1.822 0 2.992 1.102 2.992 3.172v1.238h-3.78c-2.272 0-3.78 1.125-3.78 2.902 0 .923.36 1.665 1.08 2.183.72.517 1.598.765 2.655.765 1.71 0 3.105-.698 3.893-1.935v1.71h1.08zm-1.148 2.767c0 1.867-1.71 3.285-3.712 3.285-1.463 0-2.678-.698-2.678-2.025 0-1.193.945-1.868 2.723-1.868h3.667zM650.715 90.445c0 .63.517 1.08 1.08 1.08.63 0 1.125-.45 1.125-1.08 0-.698-.495-1.125-1.125-1.125-.608 0-1.08.472-1.08 1.125z" stroke-width=".0225"/></g></svg>